<svg width="571" height="371" viewBox="0 0 571 371" fill="none" xmlns="http://www.w3.org/2000/svg">
<rect width="571" height="371" rx="10" fill="#FD84FF" fill-opacity="0.4"/>
<path d="M89.1109 225V211H90.7909V225H89.1109ZM93.1593 225V215.08H94.6793L94.7793 216.86C95.0993 216.233 95.5593 215.74 96.1593 215.38C96.7593 215.02 97.4393 214.84 98.1993 214.84C99.3726 214.84 100.306 215.2 100.999 215.92C101.706 216.627 102.059 217.72 102.059 219.2V225H100.379V219.38C100.379 217.313 99.526 216.28 97.8193 216.28C96.966 216.28 96.2526 216.593 95.6793 217.22C95.1193 217.833 94.8393 218.713 94.8393 219.86V225H93.1593ZM107.905 225.24C106.718 225.24 105.731 224.94 104.945 224.34C104.158 223.74 103.698 222.927 103.565 221.9H105.285C105.391 222.42 105.665 222.873 106.105 223.26C106.558 223.633 107.165 223.82 107.925 223.82C108.631 223.82 109.151 223.673 109.485 223.38C109.818 223.073 109.985 222.713 109.985 222.3C109.985 221.7 109.765 221.3 109.325 221.1C108.898 220.9 108.291 220.72 107.505 220.56C106.971 220.453 106.438 220.3 105.905 220.1C105.371 219.9 104.925 219.62 104.565 219.26C104.205 218.887 104.025 218.4 104.025 217.8C104.025 216.933 104.345 216.227 104.985 215.68C105.638 215.12 106.518 214.84 107.625 214.84C108.678 214.84 109.538 215.107 110.205 215.64C110.885 216.16 111.278 216.907 111.385 217.88H109.725C109.658 217.373 109.438 216.98 109.065 216.7C108.705 216.407 108.218 216.26 107.605 216.26C107.005 216.26 106.538 216.387 106.205 216.64C105.885 216.893 105.725 217.227 105.725 217.64C105.725 218.04 105.931 218.353 106.345 218.58C106.771 218.807 107.345 219 108.065 219.16C108.678 219.293 109.258 219.46 109.805 219.66C110.365 219.847 110.818 220.133 111.165 220.52C111.525 220.893 111.705 221.44 111.705 222.16C111.718 223.053 111.378 223.793 110.685 224.38C110.005 224.953 109.078 225.24 107.905 225.24ZM117.075 225C116.169 225 115.455 224.78 114.935 224.34C114.415 223.9 114.155 223.107 114.155 221.96V216.5H112.435V215.08H114.155L114.375 212.7H115.835V215.08H118.755V216.5H115.835V221.96C115.835 222.587 115.962 223.013 116.215 223.24C116.469 223.453 116.915 223.56 117.555 223.56H118.595V225H117.075ZM123.69 225.24C122.863 225.24 122.176 225.1 121.63 224.82C121.083 224.54 120.676 224.167 120.41 223.7C120.143 223.233 120.01 222.727 120.01 222.18C120.01 221.167 120.396 220.387 121.17 219.84C121.943 219.293 122.996 219.02 124.33 219.02H127.01V218.9C127.01 218.033 126.783 217.38 126.33 216.94C125.876 216.487 125.27 216.26 124.51 216.26C123.856 216.26 123.29 216.427 122.81 216.76C122.343 217.08 122.05 217.553 121.93 218.18H120.21C120.276 217.46 120.516 216.853 120.93 216.36C121.356 215.867 121.883 215.493 122.51 215.24C123.136 214.973 123.803 214.84 124.51 214.84C125.896 214.84 126.936 215.213 127.63 215.96C128.336 216.693 128.69 217.673 128.69 218.9V225H127.19L127.09 223.22C126.81 223.78 126.396 224.26 125.85 224.66C125.316 225.047 124.596 225.24 123.69 225.24ZM123.95 223.82C124.59 223.82 125.136 223.653 125.59 223.32C126.056 222.987 126.41 222.553 126.65 222.02C126.89 221.487 127.01 220.927 127.01 220.34V220.32H124.47C123.483 220.32 122.783 220.493 122.37 220.84C121.97 221.173 121.77 221.593 121.77 222.1C121.77 222.62 121.956 223.04 122.33 223.36C122.716 223.667 123.256 223.82 123.95 223.82ZM134.63 221.88C134.07 221.88 133.557 221.807 133.09 221.66L132.09 222.6C132.237 222.707 132.417 222.8 132.63 222.88C132.857 222.947 133.177 223.013 133.59 223.08C134.003 223.133 134.583 223.193 135.33 223.26C136.663 223.353 137.617 223.66 138.19 224.18C138.763 224.7 139.05 225.38 139.05 226.22C139.05 226.793 138.89 227.34 138.57 227.86C138.263 228.38 137.783 228.807 137.13 229.14C136.49 229.473 135.663 229.64 134.65 229.64C133.757 229.64 132.963 229.52 132.27 229.28C131.577 229.053 131.037 228.7 130.65 228.22C130.263 227.753 130.07 227.16 130.07 226.44C130.07 226.067 130.17 225.66 130.37 225.22C130.57 224.793 130.943 224.387 131.49 224C131.197 223.88 130.943 223.753 130.73 223.62C130.53 223.473 130.343 223.313 130.17 223.14V222.68L131.87 221C131.083 220.333 130.69 219.453 130.69 218.36C130.69 217.707 130.843 217.113 131.15 216.58C131.457 216.047 131.903 215.627 132.49 215.32C133.077 215 133.79 214.84 134.63 214.84C135.203 214.84 135.723 214.92 136.19 215.08H139.85V216.34L137.99 216.42C138.377 216.98 138.57 217.627 138.57 218.36C138.57 219.013 138.41 219.607 138.09 220.14C137.783 220.673 137.337 221.1 136.75 221.42C136.177 221.727 135.47 221.88 134.63 221.88ZM134.63 220.5C135.337 220.5 135.897 220.32 136.31 219.96C136.737 219.587 136.95 219.053 136.95 218.36C136.95 217.68 136.737 217.16 136.31 216.8C135.897 216.427 135.337 216.24 134.63 216.24C133.91 216.24 133.337 216.427 132.91 216.8C132.497 217.16 132.29 217.68 132.29 218.36C132.29 219.053 132.497 219.587 132.91 219.96C133.337 220.32 133.91 220.5 134.63 220.5ZM131.71 226.28C131.71 226.947 131.99 227.44 132.55 227.76C133.11 228.093 133.81 228.26 134.65 228.26C135.477 228.26 136.137 228.08 136.63 227.72C137.137 227.36 137.39 226.88 137.39 226.28C137.39 225.853 137.217 225.48 136.87 225.16C136.523 224.853 135.883 224.673 134.95 224.62C134.217 224.567 133.583 224.5 133.05 224.42C132.503 224.713 132.143 225.027 131.97 225.36C131.797 225.707 131.71 226.013 131.71 226.28ZM141.245 225V215.08H142.765L142.905 216.98C143.212 216.327 143.679 215.807 144.305 215.42C144.932 215.033 145.705 214.84 146.625 214.84V216.6H146.165C145.579 216.6 145.039 216.707 144.545 216.92C144.052 217.12 143.659 217.467 143.365 217.96C143.072 218.453 142.925 219.133 142.925 220V225H141.245ZM151.311 225.24C150.484 225.24 149.798 225.1 149.251 224.82C148.704 224.54 148.298 224.167 148.031 223.7C147.764 223.233 147.631 222.727 147.631 222.18C147.631 221.167 148.018 220.387 148.791 219.84C149.564 219.293 150.618 219.02 151.951 219.02H154.631V218.9C154.631 218.033 154.404 217.38 153.951 216.94C153.498 216.487 152.891 216.26 152.131 216.26C151.478 216.26 150.911 216.427 150.431 216.76C149.964 217.08 149.671 217.553 149.551 218.18H147.831C147.898 217.46 148.138 216.853 148.551 216.36C148.978 215.867 149.504 215.493 150.131 215.24C150.758 214.973 151.424 214.84 152.131 214.84C153.518 214.84 154.558 215.213 155.251 215.96C155.958 216.693 156.311 217.673 156.311 218.9V225H154.811L154.711 223.22C154.431 223.78 154.018 224.26 153.471 224.66C152.938 225.047 152.218 225.24 151.311 225.24ZM151.571 223.82C152.211 223.82 152.758 223.653 153.211 223.32C153.678 222.987 154.031 222.553 154.271 222.02C154.511 221.487 154.631 220.927 154.631 220.34V220.32H152.091C151.104 220.32 150.404 220.493 149.991 220.84C149.591 221.173 149.391 221.593 149.391 222.1C149.391 222.62 149.578 223.04 149.951 223.36C150.338 223.667 150.878 223.82 151.571 223.82ZM158.331 225V215.08H159.851L159.971 216.52C160.291 215.987 160.718 215.573 161.251 215.28C161.785 214.987 162.385 214.84 163.051 214.84C163.838 214.84 164.511 215 165.071 215.32C165.645 215.64 166.085 216.127 166.391 216.78C166.738 216.18 167.211 215.707 167.811 215.36C168.425 215.013 169.085 214.84 169.791 214.84C170.978 214.84 171.925 215.2 172.631 215.92C173.338 216.627 173.691 217.72 173.691 219.2V225H172.031V219.38C172.031 218.353 171.825 217.58 171.411 217.06C170.998 216.54 170.405 216.28 169.631 216.28C168.831 216.28 168.165 216.593 167.631 217.22C167.111 217.833 166.851 218.713 166.851 219.86V225H165.171V219.38C165.171 218.353 164.965 217.58 164.551 217.06C164.138 216.54 163.545 216.28 162.771 216.28C161.985 216.28 161.325 216.593 160.791 217.22C160.271 217.833 160.011 218.713 160.011 219.86V225H158.331ZM180.515 229.4V215.08H182.035L182.195 216.72C182.515 216.24 182.968 215.807 183.555 215.42C184.155 215.033 184.915 214.84 185.835 214.84C186.821 214.84 187.681 215.067 188.415 215.52C189.148 215.973 189.715 216.593 190.115 217.38C190.528 218.167 190.735 219.06 190.735 220.06C190.735 221.06 190.528 221.953 190.115 222.74C189.715 223.513 189.141 224.127 188.395 224.58C187.661 225.02 186.801 225.24 185.815 225.24C185.001 225.24 184.275 225.073 183.635 224.74C183.008 224.407 182.528 223.94 182.195 223.34V229.4H180.515ZM185.635 223.78C186.301 223.78 186.888 223.627 187.395 223.32C187.901 223 188.301 222.56 188.595 222C188.888 221.44 189.035 220.787 189.035 220.04C189.035 219.293 188.888 218.64 188.595 218.08C188.301 217.52 187.901 217.087 187.395 216.78C186.888 216.46 186.301 216.3 185.635 216.3C184.968 216.3 184.381 216.46 183.875 216.78C183.368 217.087 182.968 217.52 182.675 218.08C182.381 218.64 182.235 219.293 182.235 220.04C182.235 220.787 182.381 221.44 182.675 222C182.968 222.56 183.368 223 183.875 223.32C184.381 223.627 184.968 223.78 185.635 223.78ZM192.573 225V215.08H194.093L194.233 216.98C194.54 216.327 195.007 215.807 195.633 215.42C196.26 215.033 197.033 214.84 197.953 214.84V216.6H197.493C196.907 216.6 196.367 216.707 195.873 216.92C195.38 217.12 194.987 217.467 194.693 217.96C194.4 218.453 194.253 219.133 194.253 220V225H192.573ZM203.488 225.24C202.555 225.24 201.715 225.027 200.968 224.6C200.221 224.173 199.628 223.573 199.188 222.8C198.761 222.013 198.548 221.093 198.548 220.04C198.548 218.987 198.768 218.073 199.208 217.3C199.648 216.513 200.241 215.907 200.988 215.48C201.748 215.053 202.595 214.84 203.528 214.84C204.461 214.84 205.301 215.053 206.048 215.48C206.795 215.907 207.381 216.513 207.808 217.3C208.248 218.073 208.468 218.987 208.468 220.04C208.468 221.093 208.248 222.013 207.808 222.8C207.368 223.573 206.768 224.173 206.008 224.6C205.261 225.027 204.421 225.24 203.488 225.24ZM203.488 223.8C204.061 223.8 204.595 223.66 205.088 223.38C205.581 223.1 205.981 222.68 206.288 222.12C206.595 221.56 206.748 220.867 206.748 220.04C206.748 219.213 206.595 218.52 206.288 217.96C205.995 217.4 205.601 216.98 205.108 216.7C204.615 216.42 204.088 216.28 203.528 216.28C202.955 216.28 202.421 216.42 201.928 216.7C201.435 216.98 201.035 217.4 200.728 217.96C200.421 218.52 200.268 219.213 200.268 220.04C200.268 220.867 200.421 221.56 200.728 222.12C201.035 222.68 201.428 223.1 201.908 223.38C202.401 223.66 202.928 223.8 203.488 223.8ZM210.304 225V215.08H211.824L211.944 216.52C212.264 215.987 212.69 215.573 213.224 215.28C213.757 214.987 214.357 214.84 215.024 214.84C215.81 214.84 216.484 215 217.044 215.32C217.617 215.64 218.057 216.127 218.364 216.78C218.71 216.18 219.184 215.707 219.784 215.36C220.397 215.013 221.057 214.84 221.764 214.84C222.95 214.84 223.897 215.2 224.604 215.92C225.31 216.627 225.664 217.72 225.664 219.2V225H224.004V219.38C224.004 218.353 223.797 217.58 223.384 217.06C222.97 216.54 222.377 216.28 221.604 216.28C220.804 216.28 220.137 216.593 219.604 217.22C219.084 217.833 218.824 218.713 218.824 219.86V225H217.144V219.38C217.144 218.353 216.937 217.58 216.524 217.06C216.11 216.54 215.517 216.28 214.744 216.28C213.957 216.28 213.297 216.593 212.764 217.22C212.244 217.833 211.984 218.713 211.984 219.86V225H210.304ZM232.214 225.24C231.281 225.24 230.441 225.027 229.694 224.6C228.948 224.173 228.354 223.573 227.914 222.8C227.488 222.013 227.274 221.093 227.274 220.04C227.274 218.987 227.494 218.073 227.934 217.3C228.374 216.513 228.968 215.907 229.714 215.48C230.474 215.053 231.321 214.84 232.254 214.84C233.188 214.84 234.028 215.053 234.774 215.48C235.521 215.907 236.108 216.513 236.534 217.3C236.974 218.073 237.194 218.987 237.194 220.04C237.194 221.093 236.974 222.013 236.534 222.8C236.094 223.573 235.494 224.173 234.734 224.6C233.988 225.027 233.148 225.24 232.214 225.24ZM232.214 223.8C232.788 223.8 233.321 223.66 233.814 223.38C234.308 223.1 234.708 222.68 235.014 222.12C235.321 221.56 235.474 220.867 235.474 220.04C235.474 219.213 235.321 218.52 235.014 217.96C234.721 217.4 234.328 216.98 233.834 216.7C233.341 216.42 232.814 216.28 232.254 216.28C231.681 216.28 231.148 216.42 230.654 216.7C230.161 216.98 229.761 217.4 229.454 217.96C229.148 218.52 228.994 219.213 228.994 220.04C228.994 220.867 229.148 221.56 229.454 222.12C229.761 222.68 230.154 223.1 230.634 223.38C231.128 223.66 231.654 223.8 232.214 223.8ZM242.56 225C241.653 225 240.94 224.78 240.42 224.34C239.9 223.9 239.64 223.107 239.64 221.96V216.5H237.92V215.08H239.64L239.86 212.7H241.32V215.08H244.24V216.5H241.32V221.96C241.32 222.587 241.446 223.013 241.7 223.24C241.953 223.453 242.4 223.56 243.04 223.56H244.08V225H242.56ZM246.894 212.88C246.561 212.88 246.281 212.773 246.054 212.56C245.841 212.333 245.734 212.053 245.734 211.72C245.734 211.4 245.841 211.133 246.054 210.92C246.281 210.707 246.561 210.6 246.894 210.6C247.214 210.6 247.487 210.707 247.714 210.92C247.941 211.133 248.054 211.4 248.054 211.72C248.054 212.053 247.941 212.333 247.714 212.56C247.487 212.773 247.214 212.88 246.894 212.88ZM246.054 225V215.08H247.734V225H246.054ZM254.679 225.24C253.746 225.24 252.906 225.027 252.159 224.6C251.413 224.173 250.819 223.573 250.379 222.8C249.953 222.013 249.739 221.093 249.739 220.04C249.739 218.987 249.959 218.073 250.399 217.3C250.839 216.513 251.433 215.907 252.179 215.48C252.939 215.053 253.786 214.84 254.719 214.84C255.653 214.84 256.493 215.053 257.239 215.48C257.986 215.907 258.573 216.513 258.999 217.3C259.439 218.073 259.659 218.987 259.659 220.04C259.659 221.093 259.439 222.013 258.999 222.8C258.559 223.573 257.959 224.173 257.199 224.6C256.453 225.027 255.613 225.24 254.679 225.24ZM254.679 223.8C255.253 223.8 255.786 223.66 256.279 223.38C256.773 223.1 257.173 222.68 257.479 222.12C257.786 221.56 257.939 220.867 257.939 220.04C257.939 219.213 257.786 218.52 257.479 217.96C257.186 217.4 256.793 216.98 256.299 216.7C255.806 216.42 255.279 216.28 254.719 216.28C254.146 216.28 253.613 216.42 253.119 216.7C252.626 216.98 252.226 217.4 251.919 217.96C251.613 218.52 251.459 219.213 251.459 220.04C251.459 220.867 251.613 221.56 251.919 222.12C252.226 222.68 252.619 223.1 253.099 223.38C253.593 223.66 254.119 223.8 254.679 223.8ZM261.495 225V215.08H263.015L263.115 216.86C263.435 216.233 263.895 215.74 264.495 215.38C265.095 215.02 265.775 214.84 266.535 214.84C267.709 214.84 268.642 215.2 269.335 215.92C270.042 216.627 270.395 217.72 270.395 219.2V225H268.715V219.38C268.715 217.313 267.862 216.28 266.155 216.28C265.302 216.28 264.589 216.593 264.015 217.22C263.455 217.833 263.175 218.713 263.175 219.86V225H261.495ZM271.101 227.38L272.261 222.96H274.001L272.261 227.38H271.101ZM284.848 225.24C283.902 225.24 283.048 225.027 282.288 224.6C281.542 224.16 280.948 223.553 280.508 222.78C280.082 221.993 279.868 221.08 279.868 220.04C279.868 219 280.082 218.093 280.508 217.32C280.948 216.533 281.542 215.927 282.288 215.5C283.048 215.06 283.902 214.84 284.848 214.84C286.022 214.84 287.008 215.147 287.808 215.76C288.622 216.373 289.135 217.193 289.348 218.22H287.628C287.495 217.607 287.168 217.133 286.648 216.8C286.128 216.453 285.522 216.28 284.828 216.28C284.268 216.28 283.742 216.42 283.248 216.7C282.755 216.98 282.355 217.4 282.048 217.96C281.742 218.52 281.588 219.213 281.588 220.04C281.588 220.867 281.742 221.56 282.048 222.12C282.355 222.68 282.755 223.107 283.248 223.4C283.742 223.68 284.268 223.82 284.828 223.82C285.522 223.82 286.128 223.653 286.648 223.32C287.168 222.973 287.495 222.487 287.628 221.86H289.348C289.148 222.86 288.642 223.673 287.828 224.3C287.015 224.927 286.022 225.24 284.848 225.24ZM291.194 225V215.08H292.714L292.854 216.98C293.161 216.327 293.628 215.807 294.254 215.42C294.881 215.033 295.654 214.84 296.574 214.84V216.6H296.114C295.528 216.6 294.988 216.707 294.494 216.92C294.001 217.12 293.608 217.467 293.314 217.96C293.021 218.453 292.874 219.133 292.874 220V225H291.194ZM302.049 225.24C301.102 225.24 300.262 225.027 299.529 224.6C298.796 224.16 298.216 223.553 297.789 222.78C297.376 222.007 297.169 221.093 297.169 220.04C297.169 219 297.376 218.093 297.789 217.32C298.202 216.533 298.776 215.927 299.509 215.5C300.256 215.06 301.116 214.84 302.089 214.84C303.049 214.84 303.876 215.06 304.569 215.5C305.276 215.927 305.816 216.493 306.189 217.2C306.562 217.907 306.749 218.667 306.749 219.48C306.749 219.627 306.742 219.773 306.729 219.92C306.729 220.067 306.729 220.233 306.729 220.42H298.829C298.869 221.18 299.042 221.813 299.349 222.32C299.669 222.813 300.062 223.187 300.529 223.44C301.009 223.693 301.516 223.82 302.049 223.82C302.742 223.82 303.322 223.66 303.789 223.34C304.256 223.02 304.596 222.587 304.809 222.04H306.469C306.202 222.96 305.689 223.727 304.929 224.34C304.182 224.94 303.222 225.24 302.049 225.24ZM302.049 216.26C301.249 216.26 300.536 216.507 299.909 217C299.296 217.48 298.942 218.187 298.849 219.12H305.089C305.049 218.227 304.742 217.527 304.169 217.02C303.596 216.513 302.889 216.26 302.049 216.26ZM311.776 225.24C310.949 225.24 310.262 225.1 309.716 224.82C309.169 224.54 308.762 224.167 308.496 223.7C308.229 223.233 308.096 222.727 308.096 222.18C308.096 221.167 308.482 220.387 309.256 219.84C310.029 219.293 311.082 219.02 312.416 219.02H315.096V218.9C315.096 218.033 314.869 217.38 314.416 216.94C313.962 216.487 313.356 216.26 312.596 216.26C311.942 216.26 311.376 216.427 310.896 216.76C310.429 217.08 310.136 217.553 310.016 218.18H308.296C308.362 217.46 308.602 216.853 309.016 216.36C309.442 215.867 309.969 215.493 310.596 215.24C311.222 214.973 311.889 214.84 312.596 214.84C313.982 214.84 315.022 215.213 315.716 215.96C316.422 216.693 316.776 217.673 316.776 218.9V225H315.276L315.176 223.22C314.896 223.78 314.482 224.26 313.936 224.66C313.402 225.047 312.682 225.24 311.776 225.24ZM312.036 223.82C312.676 223.82 313.222 223.653 313.676 223.32C314.142 222.987 314.496 222.553 314.736 222.02C314.976 221.487 315.096 220.927 315.096 220.34V220.32H312.556C311.569 220.32 310.869 220.493 310.456 220.84C310.056 221.173 309.856 221.593 309.856 222.1C309.856 222.62 310.042 223.04 310.416 223.36C310.802 223.667 311.342 223.82 312.036 223.82ZM322.443 225C321.536 225 320.823 224.78 320.303 224.34C319.783 223.9 319.523 223.107 319.523 221.96V216.5H317.803V215.08H319.523L319.743 212.7H321.203V215.08H324.123V216.5H321.203V221.96C321.203 222.587 321.329 223.013 321.583 223.24C321.836 223.453 322.283 223.56 322.923 223.56H323.963V225H322.443ZM326.777 212.88C326.444 212.88 326.164 212.773 325.937 212.56C325.724 212.333 325.617 212.053 325.617 211.72C325.617 211.4 325.724 211.133 325.937 210.92C326.164 210.707 326.444 210.6 326.777 210.6C327.097 210.6 327.37 210.707 327.597 210.92C327.824 211.133 327.937 211.4 327.937 211.72C327.937 212.053 327.824 212.333 327.597 212.56C327.37 212.773 327.097 212.88 326.777 212.88ZM325.937 225V215.08H327.617V225H325.937ZM330.042 225V215.08H331.562L331.662 216.86C331.982 216.233 332.442 215.74 333.042 215.38C333.642 215.02 334.322 214.84 335.082 214.84C336.255 214.84 337.189 215.2 337.882 215.92C338.589 216.627 338.942 217.72 338.942 219.2V225H337.262V219.38C337.262 217.313 336.409 216.28 334.702 216.28C333.849 216.28 333.135 216.593 332.562 217.22C332.002 217.833 331.722 218.713 331.722 219.86V225H330.042ZM344.907 221.88C344.347 221.88 343.834 221.807 343.367 221.66L342.367 222.6C342.514 222.707 342.694 222.8 342.907 222.88C343.134 222.947 343.454 223.013 343.867 223.08C344.281 223.133 344.861 223.193 345.607 223.26C346.941 223.353 347.894 223.66 348.467 224.18C349.041 224.7 349.327 225.38 349.327 226.22C349.327 226.793 349.167 227.34 348.847 227.86C348.541 228.38 348.061 228.807 347.407 229.14C346.767 229.473 345.941 229.64 344.927 229.64C344.034 229.64 343.241 229.52 342.547 229.28C341.854 229.053 341.314 228.7 340.927 228.22C340.541 227.753 340.347 227.16 340.347 226.44C340.347 226.067 340.447 225.66 340.647 225.22C340.847 224.793 341.221 224.387 341.767 224C341.474 223.88 341.221 223.753 341.007 223.62C340.807 223.473 340.621 223.313 340.447 223.14V222.68L342.147 221C341.361 220.333 340.967 219.453 340.967 218.36C340.967 217.707 341.121 217.113 341.427 216.58C341.734 216.047 342.181 215.627 342.767 215.32C343.354 215 344.067 214.84 344.907 214.84C345.481 214.84 346.001 214.92 346.467 215.08H350.127V216.34L348.267 216.42C348.654 216.98 348.847 217.627 348.847 218.36C348.847 219.013 348.687 219.607 348.367 220.14C348.061 220.673 347.614 221.1 347.027 221.42C346.454 221.727 345.747 221.88 344.907 221.88ZM344.907 220.5C345.614 220.5 346.174 220.32 346.587 219.96C347.014 219.587 347.227 219.053 347.227 218.36C347.227 217.68 347.014 217.16 346.587 216.8C346.174 216.427 345.614 216.24 344.907 216.24C344.187 216.24 343.614 216.427 343.187 216.8C342.774 217.16 342.567 217.68 342.567 218.36C342.567 219.053 342.774 219.587 343.187 219.96C343.614 220.32 344.187 220.5 344.907 220.5ZM341.987 226.28C341.987 226.947 342.267 227.44 342.827 227.76C343.387 228.093 344.087 228.26 344.927 228.26C345.754 228.26 346.414 228.08 346.907 227.72C347.414 227.36 347.667 226.88 347.667 226.28C347.667 225.853 347.494 225.48 347.147 225.16C346.801 224.853 346.161 224.673 345.227 224.62C344.494 224.567 343.861 224.5 343.327 224.42C342.781 224.713 342.421 225.027 342.247 225.36C342.074 225.707 341.987 226.013 341.987 226.28ZM359.616 225.24C358.789 225.24 358.102 225.1 357.556 224.82C357.009 224.54 356.602 224.167 356.336 223.7C356.069 223.233 355.936 222.727 355.936 222.18C355.936 221.167 356.322 220.387 357.096 219.84C357.869 219.293 358.922 219.02 360.256 219.02H362.936V218.9C362.936 218.033 362.709 217.38 362.256 216.94C361.802 216.487 361.196 216.26 360.436 216.26C359.782 216.26 359.216 216.427 358.736 216.76C358.269 217.08 357.976 217.553 357.856 218.18H356.136C356.202 217.46 356.442 216.853 356.856 216.36C357.282 215.867 357.809 215.493 358.436 215.24C359.062 214.973 359.729 214.84 360.436 214.84C361.822 214.84 362.862 215.213 363.556 215.96C364.262 216.693 364.616 217.673 364.616 218.9V225H363.116L363.016 223.22C362.736 223.78 362.322 224.26 361.776 224.66C361.242 225.047 360.522 225.24 359.616 225.24ZM359.876 223.82C360.516 223.82 361.062 223.653 361.516 223.32C361.982 222.987 362.336 222.553 362.576 222.02C362.816 221.487 362.936 220.927 362.936 220.34V220.32H360.396C359.409 220.32 358.709 220.493 358.296 220.84C357.896 221.173 357.696 221.593 357.696 222.1C357.696 222.62 357.882 223.04 358.256 223.36C358.642 223.667 359.182 223.82 359.876 223.82ZM375.989 225.24C375.042 225.24 374.189 225.027 373.429 224.6C372.682 224.16 372.089 223.553 371.649 222.78C371.222 221.993 371.009 221.08 371.009 220.04C371.009 219 371.222 218.093 371.649 217.32C372.089 216.533 372.682 215.927 373.429 215.5C374.189 215.06 375.042 214.84 375.989 214.84C377.162 214.84 378.149 215.147 378.949 215.76C379.762 216.373 380.275 217.193 380.489 218.22H378.769C378.635 217.607 378.309 217.133 377.789 216.8C377.269 216.453 376.662 216.28 375.969 216.28C375.409 216.28 374.882 216.42 374.389 216.7C373.895 216.98 373.495 217.4 373.189 217.96C372.882 218.52 372.729 219.213 372.729 220.04C372.729 220.867 372.882 221.56 373.189 222.12C373.495 222.68 373.895 223.107 374.389 223.4C374.882 223.68 375.409 223.82 375.969 223.82C376.662 223.82 377.269 223.653 377.789 223.32C378.309 222.973 378.635 222.487 378.769 221.86H380.489C380.289 222.86 379.782 223.673 378.969 224.3C378.155 224.927 377.162 225.24 375.989 225.24ZM386.855 225.24C385.922 225.24 385.082 225.027 384.335 224.6C383.588 224.173 382.995 223.573 382.555 222.8C382.128 222.013 381.915 221.093 381.915 220.04C381.915 218.987 382.135 218.073 382.575 217.3C383.015 216.513 383.608 215.907 384.355 215.48C385.115 215.053 385.962 214.84 386.895 214.84C387.828 214.84 388.668 215.053 389.415 215.48C390.162 215.907 390.748 216.513 391.175 217.3C391.615 218.073 391.835 218.987 391.835 220.04C391.835 221.093 391.615 222.013 391.175 222.8C390.735 223.573 390.135 224.173 389.375 224.6C388.628 225.027 387.788 225.24 386.855 225.24ZM386.855 223.8C387.428 223.8 387.962 223.66 388.455 223.38C388.948 223.1 389.348 222.68 389.655 222.12C389.962 221.56 390.115 220.867 390.115 220.04C390.115 219.213 389.962 218.52 389.655 217.96C389.362 217.4 388.968 216.98 388.475 216.7C387.982 216.42 387.455 216.28 386.895 216.28C386.322 216.28 385.788 216.42 385.295 216.7C384.802 216.98 384.402 217.4 384.095 217.96C383.788 218.52 383.635 219.213 383.635 220.04C383.635 220.867 383.788 221.56 384.095 222.12C384.402 222.68 384.795 223.1 385.275 223.38C385.768 223.66 386.295 223.8 386.855 223.8ZM393.671 225V215.08H395.191L395.291 216.86C395.611 216.233 396.071 215.74 396.671 215.38C397.271 215.02 397.951 214.84 398.711 214.84C399.884 214.84 400.818 215.2 401.511 215.92C402.218 216.627 402.571 217.72 402.571 219.2V225H400.891V219.38C400.891 217.313 400.038 216.28 398.331 216.28C397.478 216.28 396.764 216.593 396.191 217.22C395.631 217.833 395.351 218.713 395.351 219.86V225H393.671ZM408.536 225C407.63 225 406.916 224.78 406.396 224.34C405.876 223.9 405.616 223.107 405.616 221.96V216.5H403.896V215.08H405.616L405.836 212.7H407.296V215.08H410.216V216.5H407.296V221.96C407.296 222.587 407.423 223.013 407.676 223.24C407.93 223.453 408.376 223.56 409.016 223.56H410.056V225H408.536ZM416.037 225.24C415.091 225.24 414.251 225.027 413.517 224.6C412.784 224.16 412.204 223.553 411.777 222.78C411.364 222.007 411.157 221.093 411.157 220.04C411.157 219 411.364 218.093 411.777 217.32C412.191 216.533 412.764 215.927 413.497 215.5C414.244 215.06 415.104 214.84 416.077 214.84C417.037 214.84 417.864 215.06 418.557 215.5C419.264 215.927 419.804 216.493 420.177 217.2C420.551 217.907 420.737 218.667 420.737 219.48C420.737 219.627 420.731 219.773 420.717 219.92C420.717 220.067 420.717 220.233 420.717 220.42H412.817C412.857 221.18 413.031 221.813 413.337 222.32C413.657 222.813 414.051 223.187 414.517 223.44C414.997 223.693 415.504 223.82 416.037 223.82C416.731 223.82 417.311 223.66 417.777 223.34C418.244 223.02 418.584 222.587 418.797 222.04H420.457C420.191 222.96 419.677 223.727 418.917 224.34C418.171 224.94 417.211 225.24 416.037 225.24ZM416.037 216.26C415.237 216.26 414.524 216.507 413.897 217C413.284 217.48 412.931 218.187 412.837 219.12H419.077C419.037 218.227 418.731 217.527 418.157 217.02C417.584 216.513 416.877 216.26 416.037 216.26ZM422.464 225V215.08H423.984L424.084 216.86C424.404 216.233 424.864 215.74 425.464 215.38C426.064 215.02 426.744 214.84 427.504 214.84C428.677 214.84 429.611 215.2 430.304 215.92C431.011 216.627 431.364 217.72 431.364 219.2V225H429.684V219.38C429.684 217.313 428.831 216.28 427.124 216.28C426.271 216.28 425.557 216.593 424.984 217.22C424.424 217.833 424.144 218.713 424.144 219.86V225H422.464ZM437.329 225C436.423 225 435.709 224.78 435.189 224.34C434.669 223.9 434.409 223.107 434.409 221.96V216.5H432.689V215.08H434.409L434.629 212.7H436.089V215.08H439.009V216.5H436.089V221.96C436.089 222.587 436.216 223.013 436.469 223.24C436.723 223.453 437.169 223.56 437.809 223.56H438.849V225H437.329ZM445.437 229.4V215.08H446.957L447.117 216.72C447.437 216.24 447.89 215.807 448.477 215.42C449.077 215.033 449.837 214.84 450.757 214.84C451.743 214.84 452.603 215.067 453.337 215.52C454.07 215.973 454.637 216.593 455.037 217.38C455.45 218.167 455.657 219.06 455.657 220.06C455.657 221.06 455.45 221.953 455.037 222.74C454.637 223.513 454.063 224.127 453.317 224.58C452.583 225.02 451.723 225.24 450.737 225.24C449.923 225.24 449.197 225.073 448.557 224.74C447.93 224.407 447.45 223.94 447.117 223.34V229.4H445.437ZM450.557 223.78C451.223 223.78 451.81 223.627 452.317 223.32C452.823 223 453.223 222.56 453.517 222C453.81 221.44 453.957 220.787 453.957 220.04C453.957 219.293 453.81 218.64 453.517 218.08C453.223 217.52 452.823 217.087 452.317 216.78C451.81 216.46 451.223 216.3 450.557 216.3C449.89 216.3 449.303 216.46 448.797 216.78C448.29 217.087 447.89 217.52 447.597 218.08C447.303 218.64 447.157 219.293 447.157 220.04C447.157 220.787 447.303 221.44 447.597 222C447.89 222.56 448.29 223 448.797 223.32C449.303 223.627 449.89 223.78 450.557 223.78ZM457.495 225V210.6H459.175V225H457.495ZM464.729 225.24C463.902 225.24 463.215 225.1 462.669 224.82C462.122 224.54 461.715 224.167 461.449 223.7C461.182 223.233 461.049 222.727 461.049 222.18C461.049 221.167 461.435 220.387 462.209 219.84C462.982 219.293 464.035 219.02 465.369 219.02H468.049V218.9C468.049 218.033 467.822 217.38 467.369 216.94C466.915 216.487 466.309 216.26 465.549 216.26C464.895 216.26 464.329 216.427 463.849 216.76C463.382 217.08 463.089 217.553 462.969 218.18H461.249C461.315 217.46 461.555 216.853 461.969 216.36C462.395 215.867 462.922 215.493 463.549 215.24C464.175 214.973 464.842 214.84 465.549 214.84C466.935 214.84 467.975 215.213 468.669 215.96C469.375 216.693 469.729 217.673 469.729 218.9V225H468.229L468.129 223.22C467.849 223.78 467.435 224.26 466.889 224.66C466.355 225.047 465.635 225.24 464.729 225.24ZM464.989 223.82C465.629 223.82 466.175 223.653 466.629 223.32C467.095 222.987 467.449 222.553 467.689 222.02C467.929 221.487 468.049 220.927 468.049 220.34V220.32H465.509C464.522 220.32 463.822 220.493 463.409 220.84C463.009 221.173 462.809 221.593 462.809 222.1C462.809 222.62 462.995 223.04 463.369 223.36C463.755 223.667 464.295 223.82 464.989 223.82ZM471.749 225V215.08H473.269L473.369 216.86C473.689 216.233 474.149 215.74 474.749 215.38C475.349 215.02 476.029 214.84 476.789 214.84C477.962 214.84 478.896 215.2 479.589 215.92C480.296 216.627 480.649 217.72 480.649 219.2V225H478.969V219.38C478.969 217.313 478.116 216.28 476.409 216.28C475.556 216.28 474.842 216.593 474.269 217.22C473.709 217.833 473.429 218.713 473.429 219.86V225H471.749ZM481.354 227.38L482.514 222.96H484.254L482.514 227.38H481.354ZM108.044 259.4V245.08H109.564L109.724 246.72C110.044 246.24 110.497 245.807 111.084 245.42C111.684 245.033 112.444 244.84 113.364 244.84C114.351 244.84 115.211 245.067 115.944 245.52C116.677 245.973 117.244 246.593 117.644 247.38C118.057 248.167 118.264 249.06 118.264 250.06C118.264 251.06 118.057 251.953 117.644 252.74C117.244 253.513 116.671 254.127 115.924 254.58C115.191 255.02 114.331 255.24 113.344 255.24C112.531 255.24 111.804 255.073 111.164 254.74C110.537 254.407 110.057 253.94 109.724 253.34V259.4H108.044ZM113.164 253.78C113.831 253.78 114.417 253.627 114.924 253.32C115.431 253 115.831 252.56 116.124 252C116.417 251.44 116.564 250.787 116.564 250.04C116.564 249.293 116.417 248.64 116.124 248.08C115.831 247.52 115.431 247.087 114.924 246.78C114.417 246.46 113.831 246.3 113.164 246.3C112.497 246.3 111.911 246.46 111.404 246.78C110.897 247.087 110.497 247.52 110.204 248.08C109.911 248.64 109.764 249.293 109.764 250.04C109.764 250.787 109.911 251.44 110.204 252C110.497 252.56 110.897 253 111.404 253.32C111.911 253.627 112.497 253.78 113.164 253.78ZM120.103 255V245.08H121.623L121.763 246.98C122.069 246.327 122.536 245.807 123.163 245.42C123.789 245.033 124.563 244.84 125.483 244.84V246.6H125.023C124.436 246.6 123.896 246.707 123.403 246.92C122.909 247.12 122.516 247.467 122.223 247.96C121.929 248.453 121.783 249.133 121.783 250V255H120.103ZM131.017 255.24C130.084 255.24 129.244 255.027 128.497 254.6C127.751 254.173 127.157 253.573 126.717 252.8C126.291 252.013 126.077 251.093 126.077 250.04C126.077 248.987 126.297 248.073 126.737 247.3C127.177 246.513 127.771 245.907 128.517 245.48C129.277 245.053 130.124 244.84 131.057 244.84C131.991 244.84 132.831 245.053 133.577 245.48C134.324 245.907 134.911 246.513 135.337 247.3C135.777 248.073 135.997 248.987 135.997 250.04C135.997 251.093 135.777 252.013 135.337 252.8C134.897 253.573 134.297 254.173 133.537 254.6C132.791 255.027 131.951 255.24 131.017 255.24ZM131.017 253.8C131.591 253.8 132.124 253.66 132.617 253.38C133.111 253.1 133.511 252.68 133.817 252.12C134.124 251.56 134.277 250.867 134.277 250.04C134.277 249.213 134.124 248.52 133.817 247.96C133.524 247.4 133.131 246.98 132.637 246.7C132.144 246.42 131.617 246.28 131.057 246.28C130.484 246.28 129.951 246.42 129.457 246.7C128.964 246.98 128.564 247.4 128.257 247.96C127.951 248.52 127.797 249.213 127.797 250.04C127.797 250.867 127.951 251.56 128.257 252.12C128.564 252.68 128.957 253.1 129.437 253.38C129.931 253.66 130.457 253.8 131.017 253.8ZM138.373 255V246.5H136.873V245.08H138.373V243.36C138.373 242.4 138.613 241.7 139.093 241.26C139.573 240.82 140.273 240.6 141.193 240.6H142.193V242.04H141.453C140.946 242.04 140.586 242.147 140.373 242.36C140.16 242.56 140.053 242.907 140.053 243.4V245.08H146.213V255H144.533V246.5H140.053V255H138.373ZM145.393 243.18C145.073 243.18 144.8 243.073 144.573 242.86C144.346 242.633 144.233 242.353 144.233 242.02C144.233 241.7 144.346 241.433 144.573 241.22C144.8 241.007 145.073 240.9 145.393 240.9C145.726 240.9 146 241.007 146.213 241.22C146.44 241.433 146.553 241.7 146.553 242.02C146.553 242.353 146.44 242.633 146.213 242.86C146 243.073 145.726 243.18 145.393 243.18ZM148.681 255V240.6H150.361V255H148.681ZM157.074 255.24C156.128 255.24 155.288 255.027 154.554 254.6C153.821 254.16 153.241 253.553 152.814 252.78C152.401 252.007 152.194 251.093 152.194 250.04C152.194 249 152.401 248.093 152.814 247.32C153.228 246.533 153.801 245.927 154.534 245.5C155.281 245.06 156.141 244.84 157.114 244.84C158.074 244.84 158.901 245.06 159.594 245.5C160.301 245.927 160.841 246.493 161.214 247.2C161.588 247.907 161.774 248.667 161.774 249.48C161.774 249.627 161.768 249.773 161.754 249.92C161.754 250.067 161.754 250.233 161.754 250.42H153.854C153.894 251.18 154.068 251.813 154.374 252.32C154.694 252.813 155.088 253.187 155.554 253.44C156.034 253.693 156.541 253.82 157.074 253.82C157.768 253.82 158.348 253.66 158.814 253.34C159.281 253.02 159.621 252.587 159.834 252.04H161.494C161.228 252.96 160.714 253.727 159.954 254.34C159.208 254.94 158.248 255.24 157.074 255.24ZM157.074 246.26C156.274 246.26 155.561 246.507 154.934 247C154.321 247.48 153.968 248.187 153.874 249.12H160.114C160.074 248.227 159.768 247.527 159.194 247.02C158.621 246.513 157.914 246.26 157.074 246.26ZM172.854 255.24C171.907 255.24 171.054 255.027 170.294 254.6C169.547 254.16 168.954 253.553 168.514 252.78C168.087 251.993 167.874 251.08 167.874 250.04C167.874 249 168.087 248.093 168.514 247.32C168.954 246.533 169.547 245.927 170.294 245.5C171.054 245.06 171.907 244.84 172.854 244.84C174.027 244.84 175.014 245.147 175.814 245.76C176.627 246.373 177.141 247.193 177.354 248.22H175.634C175.501 247.607 175.174 247.133 174.654 246.8C174.134 246.453 173.527 246.28 172.834 246.28C172.274 246.28 171.747 246.42 171.254 246.7C170.761 246.98 170.361 247.4 170.054 247.96C169.747 248.52 169.594 249.213 169.594 250.04C169.594 250.867 169.747 251.56 170.054 252.12C170.361 252.68 170.761 253.107 171.254 253.4C171.747 253.68 172.274 253.82 172.834 253.82C173.527 253.82 174.134 253.653 174.654 253.32C175.174 252.973 175.501 252.487 175.634 251.86H177.354C177.154 252.86 176.647 253.673 175.834 254.3C175.021 254.927 174.027 255.24 172.854 255.24ZM182.5 255.24C181.674 255.24 180.987 255.1 180.44 254.82C179.894 254.54 179.487 254.167 179.22 253.7C178.954 253.233 178.82 252.727 178.82 252.18C178.82 251.167 179.207 250.387 179.98 249.84C180.754 249.293 181.807 249.02 183.14 249.02H185.82V248.9C185.82 248.033 185.594 247.38 185.14 246.94C184.687 246.487 184.08 246.26 183.32 246.26C182.667 246.26 182.1 246.427 181.62 246.76C181.154 247.08 180.86 247.553 180.74 248.18H179.02C179.087 247.46 179.327 246.853 179.74 246.36C180.167 245.867 180.694 245.493 181.32 245.24C181.947 244.973 182.614 244.84 183.32 244.84C184.707 244.84 185.747 245.213 186.44 245.96C187.147 246.693 187.5 247.673 187.5 248.9V255H186L185.9 253.22C185.62 253.78 185.207 254.26 184.66 254.66C184.127 255.047 183.407 255.24 182.5 255.24ZM182.76 253.82C183.4 253.82 183.947 253.653 184.4 253.32C184.867 252.987 185.22 252.553 185.46 252.02C185.7 251.487 185.82 250.927 185.82 250.34V250.32H183.28C182.294 250.32 181.594 250.493 181.18 250.84C180.78 251.173 180.58 251.593 180.58 252.1C180.58 252.62 180.767 253.04 181.14 253.36C181.527 253.667 182.067 253.82 182.76 253.82ZM189.521 259.4V245.08H191.041L191.201 246.72C191.521 246.24 191.974 245.807 192.561 245.42C193.161 245.033 193.921 244.84 194.841 244.84C195.827 244.84 196.687 245.067 197.421 245.52C198.154 245.973 198.721 246.593 199.121 247.38C199.534 248.167 199.741 249.06 199.741 250.06C199.741 251.06 199.534 251.953 199.121 252.74C198.721 253.513 198.147 254.127 197.401 254.58C196.667 255.02 195.807 255.24 194.821 255.24C194.007 255.24 193.281 255.073 192.641 254.74C192.014 254.407 191.534 253.94 191.201 253.34V259.4H189.521ZM194.641 253.78C195.307 253.78 195.894 253.627 196.401 253.32C196.907 253 197.307 252.56 197.601 252C197.894 251.44 198.041 250.787 198.041 250.04C198.041 249.293 197.894 248.64 197.601 248.08C197.307 247.52 196.907 247.087 196.401 246.78C195.894 246.46 195.307 246.3 194.641 246.3C193.974 246.3 193.387 246.46 192.881 246.78C192.374 247.087 191.974 247.52 191.681 248.08C191.387 248.64 191.241 249.293 191.241 250.04C191.241 250.787 191.387 251.44 191.681 252C191.974 252.56 192.374 253 192.881 253.32C193.387 253.627 193.974 253.78 194.641 253.78ZM205.379 255.24C204.193 255.24 203.206 254.94 202.419 254.34C201.633 253.74 201.173 252.927 201.039 251.9H202.759C202.866 252.42 203.139 252.873 203.579 253.26C204.033 253.633 204.639 253.82 205.399 253.82C206.106 253.82 206.626 253.673 206.959 253.38C207.293 253.073 207.459 252.713 207.459 252.3C207.459 251.7 207.239 251.3 206.799 251.1C206.373 250.9 205.766 250.72 204.979 250.56C204.446 250.453 203.913 250.3 203.379 250.1C202.846 249.9 202.399 249.62 202.039 249.26C201.679 248.887 201.499 248.4 201.499 247.8C201.499 246.933 201.819 246.227 202.459 245.68C203.113 245.12 203.993 244.84 205.099 244.84C206.153 244.84 207.013 245.107 207.679 245.64C208.359 246.16 208.753 246.907 208.859 247.88H207.199C207.133 247.373 206.913 246.98 206.539 246.7C206.179 246.407 205.693 246.26 205.079 246.26C204.479 246.26 204.013 246.387 203.679 246.64C203.359 246.893 203.199 247.227 203.199 247.64C203.199 248.04 203.406 248.353 203.819 248.58C204.246 248.807 204.819 249 205.539 249.16C206.153 249.293 206.733 249.46 207.279 249.66C207.839 249.847 208.293 250.133 208.639 250.52C208.999 250.893 209.179 251.44 209.179 252.16C209.193 253.053 208.853 253.793 208.159 254.38C207.479 254.953 206.553 255.24 205.379 255.24ZM209.739 257.38L210.899 252.96H212.639L210.899 257.38H209.739ZM220.927 255L218.027 245.08H219.707L221.807 252.86L224.127 245.08H226.027L228.367 252.86L230.447 245.08H232.147L229.247 255H227.527L225.087 246.82L222.647 255H220.927ZM233.505 255V245.08H235.025L235.165 246.98C235.472 246.327 235.938 245.807 236.565 245.42C237.192 245.033 237.965 244.84 238.885 244.84V246.6H238.425C237.838 246.6 237.298 246.707 236.805 246.92C236.312 247.12 235.918 247.467 235.625 247.96C235.332 248.453 235.185 249.133 235.185 250V255H233.505ZM241.291 242.88C240.957 242.88 240.677 242.773 240.451 242.56C240.237 242.333 240.131 242.053 240.131 241.72C240.131 241.4 240.237 241.133 240.451 240.92C240.677 240.707 240.957 240.6 241.291 240.6C241.611 240.6 241.884 240.707 242.111 240.92C242.337 241.133 242.451 241.4 242.451 241.72C242.451 242.053 242.337 242.333 242.111 242.56C241.884 242.773 241.611 242.88 241.291 242.88ZM240.451 255V245.08H242.131V255H240.451ZM248.476 255C247.569 255 246.856 254.78 246.336 254.34C245.816 253.9 245.556 253.107 245.556 251.96V246.5H243.836V245.08H245.556L245.776 242.7H247.236V245.08H250.156V246.5H247.236V251.96C247.236 252.587 247.362 253.013 247.616 253.24C247.869 253.453 248.316 253.56 248.956 253.56H249.996V255H248.476ZM252.81 242.88C252.477 242.88 252.197 242.773 251.97 242.56C251.757 242.333 251.65 242.053 251.65 241.72C251.65 241.4 251.757 241.133 251.97 240.92C252.197 240.707 252.477 240.6 252.81 240.6C253.13 240.6 253.403 240.707 253.63 240.92C253.857 241.133 253.97 241.4 253.97 241.72C253.97 242.053 253.857 242.333 253.63 242.56C253.403 242.773 253.13 242.88 252.81 242.88ZM251.97 255V245.08H253.65V255H251.97ZM256.075 255V245.08H257.595L257.695 246.86C258.015 246.233 258.475 245.74 259.075 245.38C259.675 245.02 260.355 244.84 261.115 244.84C262.289 244.84 263.222 245.2 263.915 245.92C264.622 246.627 264.975 247.72 264.975 249.2V255H263.295V249.38C263.295 247.313 262.442 246.28 260.735 246.28C259.882 246.28 259.169 246.593 258.595 247.22C258.035 247.833 257.755 248.713 257.755 249.86V255H256.075ZM270.941 251.88C270.381 251.88 269.867 251.807 269.401 251.66L268.401 252.6C268.547 252.707 268.727 252.8 268.941 252.88C269.167 252.947 269.487 253.013 269.901 253.08C270.314 253.133 270.894 253.193 271.641 253.26C272.974 253.353 273.927 253.66 274.501 254.18C275.074 254.7 275.361 255.38 275.361 256.22C275.361 256.793 275.201 257.34 274.881 257.86C274.574 258.38 274.094 258.807 273.441 259.14C272.801 259.473 271.974 259.64 270.961 259.64C270.067 259.64 269.274 259.52 268.581 259.28C267.887 259.053 267.347 258.7 266.961 258.22C266.574 257.753 266.381 257.16 266.381 256.44C266.381 256.067 266.481 255.66 266.681 255.22C266.881 254.793 267.254 254.387 267.801 254C267.507 253.88 267.254 253.753 267.041 253.62C266.841 253.473 266.654 253.313 266.481 253.14V252.68L268.181 251C267.394 250.333 267.001 249.453 267.001 248.36C267.001 247.707 267.154 247.113 267.461 246.58C267.767 246.047 268.214 245.627 268.801 245.32C269.387 245 270.101 244.84 270.941 244.84C271.514 244.84 272.034 244.92 272.501 245.08H276.161V246.34L274.301 246.42C274.687 246.98 274.881 247.627 274.881 248.36C274.881 249.013 274.721 249.607 274.401 250.14C274.094 250.673 273.647 251.1 273.061 251.42C272.487 251.727 271.781 251.88 270.941 251.88ZM270.941 250.5C271.647 250.5 272.207 250.32 272.621 249.96C273.047 249.587 273.261 249.053 273.261 248.36C273.261 247.68 273.047 247.16 272.621 246.8C272.207 246.427 271.647 246.24 270.941 246.24C270.221 246.24 269.647 246.427 269.221 246.8C268.807 247.16 268.601 247.68 268.601 248.36C268.601 249.053 268.807 249.587 269.221 249.96C269.647 250.32 270.221 250.5 270.941 250.5ZM268.021 256.28C268.021 256.947 268.301 257.44 268.861 257.76C269.421 258.093 270.121 258.26 270.961 258.26C271.787 258.26 272.447 258.08 272.941 257.72C273.447 257.36 273.701 256.88 273.701 256.28C273.701 255.853 273.527 255.48 273.181 255.16C272.834 254.853 272.194 254.673 271.261 254.62C270.527 254.567 269.894 254.5 269.361 254.42C268.814 254.713 268.454 255.027 268.281 255.36C268.107 255.707 268.021 256.013 268.021 256.28ZM285.649 255.24C284.822 255.24 284.135 255.1 283.589 254.82C283.042 254.54 282.635 254.167 282.369 253.7C282.102 253.233 281.969 252.727 281.969 252.18C281.969 251.167 282.355 250.387 283.129 249.84C283.902 249.293 284.955 249.02 286.289 249.02H288.969V248.9C288.969 248.033 288.742 247.38 288.289 246.94C287.835 246.487 287.229 246.26 286.469 246.26C285.815 246.26 285.249 246.427 284.769 246.76C284.302 247.08 284.009 247.553 283.889 248.18H282.169C282.235 247.46 282.475 246.853 282.889 246.36C283.315 245.867 283.842 245.493 284.469 245.24C285.095 244.973 285.762 244.84 286.469 244.84C287.855 244.84 288.895 245.213 289.589 245.96C290.295 246.693 290.649 247.673 290.649 248.9V255H289.149L289.049 253.22C288.769 253.78 288.355 254.26 287.809 254.66C287.275 255.047 286.555 255.24 285.649 255.24ZM285.909 253.82C286.549 253.82 287.095 253.653 287.549 253.32C288.015 252.987 288.369 252.553 288.609 252.02C288.849 251.487 288.969 250.927 288.969 250.34V250.32H286.429C285.442 250.32 284.742 250.493 284.329 250.84C283.929 251.173 283.729 251.593 283.729 252.1C283.729 252.62 283.915 253.04 284.289 253.36C284.675 253.667 285.215 253.82 285.909 253.82ZM297.462 259.4V245.08H298.982L299.142 246.72C299.462 246.24 299.915 245.807 300.502 245.42C301.102 245.033 301.862 244.84 302.782 244.84C303.769 244.84 304.629 245.067 305.362 245.52C306.095 245.973 306.662 246.593 307.062 247.38C307.475 248.167 307.682 249.06 307.682 250.06C307.682 251.06 307.475 251.953 307.062 252.74C306.662 253.513 306.089 254.127 305.342 254.58C304.609 255.02 303.749 255.24 302.762 255.24C301.949 255.24 301.222 255.073 300.582 254.74C299.955 254.407 299.475 253.94 299.142 253.34V259.4H297.462ZM302.582 253.78C303.249 253.78 303.835 253.627 304.342 253.32C304.849 253 305.249 252.56 305.542 252C305.835 251.44 305.982 250.787 305.982 250.04C305.982 249.293 305.835 248.64 305.542 248.08C305.249 247.52 304.849 247.087 304.342 246.78C303.835 246.46 303.249 246.3 302.582 246.3C301.915 246.3 301.329 246.46 300.822 246.78C300.315 247.087 299.915 247.52 299.622 248.08C299.329 248.64 299.182 249.293 299.182 250.04C299.182 250.787 299.329 251.44 299.622 252C299.915 252.56 300.315 253 300.822 253.32C301.329 253.627 301.915 253.78 302.582 253.78ZM309.521 255V245.08H311.041L311.181 246.98C311.487 246.327 311.954 245.807 312.581 245.42C313.207 245.033 313.981 244.84 314.901 244.84V246.6H314.441C313.854 246.6 313.314 246.707 312.821 246.92C312.327 247.12 311.934 247.467 311.641 247.96C311.347 248.453 311.201 249.133 311.201 250V255H309.521ZM320.435 255.24C319.502 255.24 318.662 255.027 317.915 254.6C317.168 254.173 316.575 253.573 316.135 252.8C315.708 252.013 315.495 251.093 315.495 250.04C315.495 248.987 315.715 248.073 316.155 247.3C316.595 246.513 317.188 245.907 317.935 245.48C318.695 245.053 319.542 244.84 320.475 244.84C321.408 244.84 322.248 245.053 322.995 245.48C323.742 245.907 324.328 246.513 324.755 247.3C325.195 248.073 325.415 248.987 325.415 250.04C325.415 251.093 325.195 252.013 324.755 252.8C324.315 253.573 323.715 254.173 322.955 254.6C322.208 255.027 321.368 255.24 320.435 255.24ZM320.435 253.8C321.008 253.8 321.542 253.66 322.035 253.38C322.528 253.1 322.928 252.68 323.235 252.12C323.542 251.56 323.695 250.867 323.695 250.04C323.695 249.213 323.542 248.52 323.235 247.96C322.942 247.4 322.548 246.98 322.055 246.7C321.562 246.42 321.035 246.28 320.475 246.28C319.902 246.28 319.368 246.42 318.875 246.7C318.382 246.98 317.982 247.4 317.675 247.96C317.368 248.52 317.215 249.213 317.215 250.04C317.215 250.867 317.368 251.56 317.675 252.12C317.982 252.68 318.375 253.1 318.855 253.38C319.348 253.66 319.875 253.8 320.435 253.8ZM327.251 255V245.08H328.771L328.891 246.52C329.211 245.987 329.638 245.573 330.171 245.28C330.704 244.987 331.304 244.84 331.971 244.84C332.758 244.84 333.431 245 333.991 245.32C334.564 245.64 335.004 246.127 335.311 246.78C335.658 246.18 336.131 245.707 336.731 245.36C337.344 245.013 338.004 244.84 338.711 244.84C339.898 244.84 340.844 245.2 341.551 245.92C342.258 246.627 342.611 247.72 342.611 249.2V255H340.951V249.38C340.951 248.353 340.744 247.58 340.331 247.06C339.918 246.54 339.324 246.28 338.551 246.28C337.751 246.28 337.084 246.593 336.551 247.22C336.031 247.833 335.771 248.713 335.771 249.86V255H334.091V249.38C334.091 248.353 333.884 247.58 333.471 247.06C333.058 246.54 332.464 246.28 331.691 246.28C330.904 246.28 330.244 246.593 329.711 247.22C329.191 247.833 328.931 248.713 328.931 249.86V255H327.251ZM349.162 255.24C348.228 255.24 347.388 255.027 346.642 254.6C345.895 254.173 345.302 253.573 344.862 252.8C344.435 252.013 344.222 251.093 344.222 250.04C344.222 248.987 344.442 248.073 344.882 247.3C345.322 246.513 345.915 245.907 346.662 245.48C347.422 245.053 348.268 244.84 349.202 244.84C350.135 244.84 350.975 245.053 351.722 245.48C352.468 245.907 353.055 246.513 353.482 247.3C353.922 248.073 354.142 248.987 354.142 250.04C354.142 251.093 353.922 252.013 353.482 252.8C353.042 253.573 352.442 254.173 351.682 254.6C350.935 255.027 350.095 255.24 349.162 255.24ZM349.162 253.8C349.735 253.8 350.268 253.66 350.762 253.38C351.255 253.1 351.655 252.68 351.962 252.12C352.268 251.56 352.422 250.867 352.422 250.04C352.422 249.213 352.268 248.52 351.962 247.96C351.668 247.4 351.275 246.98 350.782 246.7C350.288 246.42 349.762 246.28 349.202 246.28C348.628 246.28 348.095 246.42 347.602 246.7C347.108 246.98 346.708 247.4 346.402 247.96C346.095 248.52 345.942 249.213 345.942 250.04C345.942 250.867 346.095 251.56 346.402 252.12C346.708 252.68 347.102 253.1 347.582 253.38C348.075 253.66 348.602 253.8 349.162 253.8ZM359.507 255C358.6 255 357.887 254.78 357.367 254.34C356.847 253.9 356.587 253.107 356.587 251.96V246.5H354.867V245.08H356.587L356.807 242.7H358.267V245.08H361.187V246.5H358.267V251.96C358.267 252.587 358.394 253.013 358.647 253.24C358.9 253.453 359.347 253.56 359.987 253.56H361.027V255H359.507ZM363.841 242.88C363.508 242.88 363.228 242.773 363.001 242.56C362.788 242.333 362.681 242.053 362.681 241.72C362.681 241.4 362.788 241.133 363.001 240.92C363.228 240.707 363.508 240.6 363.841 240.6C364.161 240.6 364.435 240.707 364.661 240.92C364.888 241.133 365.001 241.4 365.001 241.72C365.001 242.053 364.888 242.333 364.661 242.56C364.435 242.773 364.161 242.88 363.841 242.88ZM363.001 255V245.08H364.681V255H363.001ZM371.627 255.24C370.693 255.24 369.853 255.027 369.107 254.6C368.36 254.173 367.767 253.573 367.327 252.8C366.9 252.013 366.687 251.093 366.687 250.04C366.687 248.987 366.907 248.073 367.347 247.3C367.787 246.513 368.38 245.907 369.127 245.48C369.887 245.053 370.733 244.84 371.667 244.84C372.6 244.84 373.44 245.053 374.187 245.48C374.933 245.907 375.52 246.513 375.947 247.3C376.387 248.073 376.607 248.987 376.607 250.04C376.607 251.093 376.387 252.013 375.947 252.8C375.507 253.573 374.907 254.173 374.147 254.6C373.4 255.027 372.56 255.24 371.627 255.24ZM371.627 253.8C372.2 253.8 372.733 253.66 373.227 253.38C373.72 253.1 374.12 252.68 374.427 252.12C374.733 251.56 374.887 250.867 374.887 250.04C374.887 249.213 374.733 248.52 374.427 247.96C374.133 247.4 373.74 246.98 373.247 246.7C372.753 246.42 372.227 246.28 371.667 246.28C371.093 246.28 370.56 246.42 370.067 246.7C369.573 246.98 369.173 247.4 368.867 247.96C368.56 248.52 368.407 249.213 368.407 250.04C368.407 250.867 368.56 251.56 368.867 252.12C369.173 252.68 369.567 253.1 370.047 253.38C370.54 253.66 371.067 253.8 371.627 253.8ZM378.443 255V245.08H379.963L380.063 246.86C380.383 246.233 380.843 245.74 381.443 245.38C382.043 245.02 382.723 244.84 383.483 244.84C384.656 244.84 385.589 245.2 386.283 245.92C386.989 246.627 387.342 247.72 387.342 249.2V255H385.663V249.38C385.663 247.313 384.809 246.28 383.103 246.28C382.249 246.28 381.536 246.593 380.963 247.22C380.403 247.833 380.123 248.713 380.123 249.86V255H378.443ZM397.981 255.24C396.794 255.24 395.807 254.94 395.021 254.34C394.234 253.74 393.774 252.927 393.641 251.9H395.361C395.467 252.42 395.741 252.873 396.181 253.26C396.634 253.633 397.241 253.82 398.001 253.82C398.707 253.82 399.227 253.673 399.561 253.38C399.894 253.073 400.061 252.713 400.061 252.3C400.061 251.7 399.841 251.3 399.401 251.1C398.974 250.9 398.367 250.72 397.581 250.56C397.047 250.453 396.514 250.3 395.981 250.1C395.447 249.9 395.001 249.62 394.641 249.26C394.281 248.887 394.101 248.4 394.101 247.8C394.101 246.933 394.421 246.227 395.061 245.68C395.714 245.12 396.594 244.84 397.701 244.84C398.754 244.84 399.614 245.107 400.281 245.64C400.961 246.16 401.354 246.907 401.461 247.88H399.801C399.734 247.373 399.514 246.98 399.141 246.7C398.781 246.407 398.294 246.26 397.681 246.26C397.081 246.26 396.614 246.387 396.281 246.64C395.961 246.893 395.801 247.227 395.801 247.64C395.801 248.04 396.007 248.353 396.421 248.58C396.847 248.807 397.421 249 398.141 249.16C398.754 249.293 399.334 249.46 399.881 249.66C400.441 249.847 400.894 250.133 401.241 250.52C401.601 250.893 401.781 251.44 401.781 252.16C401.794 253.053 401.454 253.793 400.761 254.38C400.081 254.953 399.154 255.24 397.981 255.24ZM407.152 255C406.245 255 405.532 254.78 405.012 254.34C404.492 253.9 404.232 253.107 404.232 251.96V246.5H402.512V245.08H404.232L404.452 242.7H405.912V245.08H408.832V246.5H405.912V251.96C405.912 252.587 406.038 253.013 406.292 253.24C406.545 253.453 406.992 253.56 407.632 253.56H408.672V255H407.152ZM410.466 255V245.08H411.986L412.126 246.98C412.433 246.327 412.899 245.807 413.526 245.42C414.153 245.033 414.926 244.84 415.846 244.84V246.6H415.386C414.799 246.6 414.259 246.707 413.766 246.92C413.273 247.12 412.879 247.467 412.586 247.96C412.293 248.453 412.146 249.133 412.146 250V255H410.466ZM420.532 255.24C419.705 255.24 419.018 255.1 418.472 254.82C417.925 254.54 417.518 254.167 417.252 253.7C416.985 253.233 416.852 252.727 416.852 252.18C416.852 251.167 417.238 250.387 418.012 249.84C418.785 249.293 419.838 249.02 421.172 249.02H423.852V248.9C423.852 248.033 423.625 247.38 423.172 246.94C422.718 246.487 422.112 246.26 421.352 246.26C420.698 246.26 420.132 246.427 419.652 246.76C419.185 247.08 418.892 247.553 418.772 248.18H417.052C417.118 247.46 417.358 246.853 417.772 246.36C418.198 245.867 418.725 245.493 419.352 245.24C419.978 244.973 420.645 244.84 421.352 244.84C422.738 244.84 423.778 245.213 424.472 245.96C425.178 246.693 425.532 247.673 425.532 248.9V255H424.032L423.932 253.22C423.652 253.78 423.238 254.26 422.692 254.66C422.158 255.047 421.438 255.24 420.532 255.24ZM420.792 253.82C421.432 253.82 421.978 253.653 422.432 253.32C422.898 252.987 423.252 252.553 423.492 252.02C423.732 251.487 423.852 250.927 423.852 250.34V250.32H421.312C420.325 250.32 419.625 250.493 419.212 250.84C418.812 251.173 418.612 251.593 418.612 252.1C418.612 252.62 418.798 253.04 419.172 253.36C419.558 253.667 420.098 253.82 420.792 253.82ZM431.198 255C430.292 255 429.578 254.78 429.058 254.34C428.538 253.9 428.278 253.107 428.278 251.96V246.5H426.558V245.08H428.278L428.498 242.7H429.958V245.08H432.878V246.5H429.958V251.96C429.958 252.587 430.085 253.013 430.338 253.24C430.592 253.453 431.038 253.56 431.678 253.56H432.718V255H431.198ZM438.699 255.24C437.753 255.24 436.913 255.027 436.179 254.6C435.446 254.16 434.866 253.553 434.439 252.78C434.026 252.007 433.819 251.093 433.819 250.04C433.819 249 434.026 248.093 434.439 247.32C434.853 246.533 435.426 245.927 436.159 245.5C436.906 245.06 437.766 244.84 438.739 244.84C439.699 244.84 440.526 245.06 441.219 245.5C441.926 245.927 442.466 246.493 442.839 247.2C443.213 247.907 443.399 248.667 443.399 249.48C443.399 249.627 443.393 249.773 443.379 249.92C443.379 250.067 443.379 250.233 443.379 250.42H435.479C435.519 251.18 435.693 251.813 435.999 252.32C436.319 252.813 436.713 253.187 437.179 253.44C437.659 253.693 438.166 253.82 438.699 253.82C439.393 253.82 439.973 253.66 440.439 253.34C440.906 253.02 441.246 252.587 441.459 252.04H443.119C442.853 252.96 442.339 253.727 441.579 254.34C440.833 254.94 439.873 255.24 438.699 255.24ZM438.699 246.26C437.899 246.26 437.186 246.507 436.559 247C435.946 247.48 435.593 248.187 435.499 249.12H441.739C441.699 248.227 441.393 247.527 440.819 247.02C440.246 246.513 439.539 246.26 438.699 246.26ZM448.988 251.88C448.428 251.88 447.914 251.807 447.448 251.66L446.448 252.6C446.594 252.707 446.774 252.8 446.988 252.88C447.214 252.947 447.534 253.013 447.948 253.08C448.361 253.133 448.941 253.193 449.688 253.26C451.021 253.353 451.974 253.66 452.548 254.18C453.121 254.7 453.408 255.38 453.408 256.22C453.408 256.793 453.248 257.34 452.928 257.86C452.621 258.38 452.141 258.807 451.488 259.14C450.848 259.473 450.021 259.64 449.008 259.64C448.114 259.64 447.321 259.52 446.627 259.28C445.934 259.053 445.394 258.7 445.007 258.22C444.621 257.753 444.428 257.16 444.428 256.44C444.428 256.067 444.528 255.66 444.728 255.22C444.928 254.793 445.301 254.387 445.848 254C445.554 253.88 445.301 253.753 445.088 253.62C444.888 253.473 444.701 253.313 444.528 253.14V252.68L446.228 251C445.441 250.333 445.048 249.453 445.048 248.36C445.048 247.707 445.201 247.113 445.508 246.58C445.814 246.047 446.261 245.627 446.848 245.32C447.434 245 448.148 244.84 448.988 244.84C449.561 244.84 450.081 244.92 450.548 245.08H454.208V246.34L452.348 246.42C452.734 246.98 452.928 247.627 452.928 248.36C452.928 249.013 452.768 249.607 452.448 250.14C452.141 250.673 451.694 251.1 451.108 251.42C450.534 251.727 449.828 251.88 448.988 251.88ZM448.988 250.5C449.694 250.5 450.254 250.32 450.668 249.96C451.094 249.587 451.308 249.053 451.308 248.36C451.308 247.68 451.094 247.16 450.668 246.8C450.254 246.427 449.694 246.24 448.988 246.24C448.268 246.24 447.694 246.427 447.268 246.8C446.854 247.16 446.648 247.68 446.648 248.36C446.648 249.053 446.854 249.587 447.268 249.96C447.694 250.32 448.268 250.5 448.988 250.5ZM446.068 256.28C446.068 256.947 446.348 257.44 446.908 257.76C447.468 258.093 448.168 258.26 449.008 258.26C449.834 258.26 450.494 258.08 450.988 257.72C451.494 257.36 451.748 256.88 451.748 256.28C451.748 255.853 451.574 255.48 451.228 255.16C450.881 254.853 450.241 254.673 449.308 254.62C448.574 254.567 447.941 254.5 447.408 254.42C446.861 254.713 446.501 255.027 446.327 255.36C446.154 255.707 446.068 256.013 446.068 256.28ZM456.683 259.4L459.143 254.04H458.563L454.623 245.08H456.443L459.723 252.8L463.203 245.08H464.943L458.443 259.4H456.683Z" fill="#171718"/>
<path d="M174.216 158V123H187.166C189.966 123 192.283 123.467 194.116 124.4C195.95 125.333 197.316 126.617 198.216 128.25C199.116 129.883 199.566 131.717 199.566 133.75C199.566 135.683 199.133 137.467 198.266 139.1C197.4 140.7 196.05 142 194.216 143C192.383 143.967 190.033 144.45 187.166 144.45H180.616V158H174.216ZM180.616 139.25H186.766C189 139.25 190.6 138.767 191.566 137.8C192.566 136.8 193.066 135.45 193.066 133.75C193.066 132.017 192.566 130.667 191.566 129.7C190.6 128.7 189 128.2 186.766 128.2H180.616V139.25ZM203.938 158V133.2H209.638L210.238 137.85C211.138 136.25 212.354 134.983 213.887 134.05C215.454 133.083 217.288 132.6 219.388 132.6V139.35H217.588C216.188 139.35 214.938 139.567 213.838 140C212.738 140.433 211.871 141.183 211.238 142.25C210.638 143.317 210.338 144.8 210.338 146.7V158H203.938ZM234.722 158.6C232.322 158.6 230.156 158.05 228.222 156.95C226.322 155.85 224.806 154.333 223.672 152.4C222.572 150.433 222.022 148.167 222.022 145.6C222.022 143.033 222.589 140.783 223.722 138.85C224.856 136.883 226.372 135.35 228.272 134.25C230.206 133.15 232.372 132.6 234.772 132.6C237.139 132.6 239.272 133.15 241.172 134.25C243.106 135.35 244.622 136.883 245.722 138.85C246.856 140.783 247.422 143.033 247.422 145.6C247.422 148.167 246.856 150.433 245.722 152.4C244.622 154.333 243.106 155.85 241.172 156.95C239.239 158.05 237.089 158.6 234.722 158.6ZM234.722 153.05C236.389 153.05 237.839 152.433 239.072 151.2C240.306 149.933 240.922 148.067 240.922 145.6C240.922 143.133 240.306 141.283 239.072 140.05C237.839 138.783 236.406 138.15 234.772 138.15C233.072 138.15 231.606 138.783 230.372 140.05C229.172 141.283 228.572 143.133 228.572 145.6C228.572 148.067 229.172 149.933 230.372 151.2C231.606 152.433 233.056 153.05 234.722 153.05ZM252.645 158V133.2H258.295L258.845 136.55C259.645 135.35 260.695 134.4 261.995 133.7C263.328 132.967 264.861 132.6 266.595 132.6C270.428 132.6 273.145 134.083 274.745 137.05C275.645 135.683 276.845 134.6 278.345 133.8C279.878 133 281.545 132.6 283.345 132.6C286.578 132.6 289.061 133.567 290.795 135.5C292.528 137.433 293.395 140.267 293.395 144V158H286.995V144.6C286.995 142.467 286.578 140.833 285.745 139.7C284.945 138.567 283.695 138 281.995 138C280.261 138 278.861 138.633 277.795 139.9C276.761 141.167 276.245 142.933 276.245 145.2V158H269.845V144.6C269.845 142.467 269.428 140.833 268.595 139.7C267.761 138.567 266.478 138 264.745 138C263.045 138 261.661 138.633 260.595 139.9C259.561 141.167 259.045 142.933 259.045 145.2V158H252.645ZM310.871 158.6C308.471 158.6 306.304 158.05 304.371 156.95C302.471 155.85 300.954 154.333 299.821 152.4C298.721 150.433 298.171 148.167 298.171 145.6C298.171 143.033 298.737 140.783 299.871 138.85C301.004 136.883 302.521 135.35 304.421 134.25C306.354 133.15 308.521 132.6 310.921 132.6C313.287 132.6 315.421 133.15 317.321 134.25C319.254 135.35 320.771 136.883 321.871 138.85C323.004 140.783 323.571 143.033 323.571 145.6C323.571 148.167 323.004 150.433 321.871 152.4C320.771 154.333 319.254 155.85 317.321 156.95C315.387 158.05 313.237 158.6 310.871 158.6ZM310.871 153.05C312.537 153.05 313.987 152.433 315.221 151.2C316.454 149.933 317.071 148.067 317.071 145.6C317.071 143.133 316.454 141.283 315.221 140.05C313.987 138.783 312.554 138.15 310.921 138.15C309.221 138.15 307.754 138.783 306.521 140.05C305.321 141.283 304.721 143.133 304.721 145.6C304.721 148.067 305.321 149.933 306.521 151.2C307.754 152.433 309.204 153.05 310.871 153.05ZM338.866 158C336.266 158 334.183 157.367 332.616 156.1C331.05 154.833 330.266 152.583 330.266 149.35V138.55H326.016V133.2H330.266L331.016 126.55H336.666V133.2H343.366V138.55H336.666V149.4C336.666 150.6 336.916 151.433 337.416 151.9C337.95 152.333 338.85 152.55 340.116 152.55H343.216V158H338.866ZM351.811 129.35C350.645 129.35 349.678 129 348.911 128.3C348.178 127.6 347.811 126.717 347.811 125.65C347.811 124.583 348.178 123.717 348.911 123.05C349.678 122.35 350.645 122 351.811 122C352.978 122 353.928 122.35 354.661 123.05C355.428 123.717 355.811 124.583 355.811 125.65C355.811 126.717 355.428 127.6 354.661 128.3C353.928 129 352.978 129.35 351.811 129.35ZM348.611 158V133.2H355.011V158H348.611ZM373.091 158.6C370.691 158.6 368.525 158.05 366.591 156.95C364.691 155.85 363.175 154.333 362.041 152.4C360.941 150.433 360.391 148.167 360.391 145.6C360.391 143.033 360.958 140.783 362.091 138.85C363.225 136.883 364.741 135.35 366.641 134.25C368.575 133.15 370.741 132.6 373.141 132.6C375.508 132.6 377.641 133.15 379.541 134.25C381.475 135.35 382.991 136.883 384.091 138.85C385.225 140.783 385.791 143.033 385.791 145.6C385.791 148.167 385.225 150.433 384.091 152.4C382.991 154.333 381.475 155.85 379.541 156.95C377.608 158.05 375.458 158.6 373.091 158.6ZM373.091 153.05C374.758 153.05 376.208 152.433 377.441 151.2C378.675 149.933 379.291 148.067 379.291 145.6C379.291 143.133 378.675 141.283 377.441 140.05C376.208 138.783 374.775 138.15 373.141 138.15C371.441 138.15 369.975 138.783 368.741 140.05C367.541 141.283 366.941 143.133 366.941 145.6C366.941 148.067 367.541 149.933 368.741 151.2C369.975 152.433 371.425 153.05 373.091 153.05ZM391.014 158V133.2H396.664L397.164 137.4C397.93 135.933 399.03 134.767 400.464 133.9C401.93 133.033 403.647 132.6 405.614 132.6C408.68 132.6 411.064 133.567 412.764 135.5C414.464 137.433 415.314 140.267 415.314 144V158H408.914V144.6C408.914 142.467 408.48 140.833 407.614 139.7C406.747 138.567 405.397 138 403.564 138C401.764 138 400.28 138.633 399.114 139.9C397.98 141.167 397.414 142.933 397.414 145.2V158H391.014Z" fill="#171718"/>
</svg>
