<svg width="571" height="371" viewBox="0 0 571 371" fill="none" xmlns="http://www.w3.org/2000/svg">
<rect width="571" height="371" rx="10" fill="#FD84FF" fill-opacity="0.4"/>
<path d="M89.327 210.24C87.9537 210.24 86.767 209.94 85.767 209.34C84.7804 208.727 84.0137 207.88 83.467 206.8C82.9204 205.707 82.647 204.44 82.647 203C82.647 201.573 82.9204 200.32 83.467 199.24C84.0137 198.147 84.7804 197.293 85.767 196.68C86.767 196.067 87.9537 195.76 89.327 195.76C90.927 195.76 92.227 196.147 93.227 196.92C94.2404 197.68 94.887 198.747 95.167 200.12H93.307C93.0937 199.253 92.6537 198.56 91.987 198.04C91.3337 197.507 90.447 197.24 89.327 197.24C88.327 197.24 87.4537 197.473 86.707 197.94C85.9604 198.393 85.3804 199.053 84.967 199.92C84.567 200.773 84.367 201.8 84.367 203C84.367 204.2 84.567 205.233 84.967 206.1C85.3804 206.953 85.9604 207.613 86.707 208.08C87.4537 208.533 88.327 208.76 89.327 208.76C90.447 208.76 91.3337 208.507 91.987 208C92.6537 207.48 93.0937 206.793 93.307 205.94H95.167C94.887 207.287 94.2404 208.34 93.227 209.1C92.227 209.86 90.927 210.24 89.327 210.24ZM96.9816 210V200.08H98.5016L98.6416 201.98C98.9482 201.327 99.4149 200.807 100.042 200.42C100.668 200.033 101.442 199.84 102.362 199.84V201.6H101.902C101.315 201.6 100.775 201.707 100.282 201.92C99.7882 202.12 99.3949 202.467 99.1016 202.96C98.8082 203.453 98.6616 204.133 98.6616 205V210H96.9816ZM107.836 210.24C106.889 210.24 106.049 210.027 105.316 209.6C104.583 209.16 104.003 208.553 103.576 207.78C103.163 207.007 102.956 206.093 102.956 205.04C102.956 204 103.163 203.093 103.576 202.32C103.989 201.533 104.563 200.927 105.296 200.5C106.043 200.06 106.903 199.84 107.876 199.84C108.836 199.84 109.663 200.06 110.356 200.5C111.063 200.927 111.603 201.493 111.976 202.2C112.349 202.907 112.536 203.667 112.536 204.48C112.536 204.627 112.529 204.773 112.516 204.92C112.516 205.067 112.516 205.233 112.516 205.42H104.616C104.656 206.18 104.829 206.813 105.136 207.32C105.456 207.813 105.849 208.187 106.316 208.44C106.796 208.693 107.303 208.82 107.836 208.82C108.529 208.82 109.109 208.66 109.576 208.34C110.043 208.02 110.383 207.587 110.596 207.04H112.256C111.989 207.96 111.476 208.727 110.716 209.34C109.969 209.94 109.009 210.24 107.836 210.24ZM107.836 201.26C107.036 201.26 106.323 201.507 105.696 202C105.083 202.48 104.729 203.187 104.636 204.12H110.876C110.836 203.227 110.529 202.527 109.956 202.02C109.383 201.513 108.676 201.26 107.836 201.26ZM117.563 210.24C116.736 210.24 116.049 210.1 115.503 209.82C114.956 209.54 114.549 209.167 114.283 208.7C114.016 208.233 113.883 207.727 113.883 207.18C113.883 206.167 114.269 205.387 115.043 204.84C115.816 204.293 116.869 204.02 118.203 204.02H120.883V203.9C120.883 203.033 120.656 202.38 120.203 201.94C119.749 201.487 119.143 201.26 118.383 201.26C117.729 201.26 117.163 201.427 116.683 201.76C116.216 202.08 115.923 202.553 115.803 203.18H114.083C114.149 202.46 114.389 201.853 114.803 201.36C115.229 200.867 115.756 200.493 116.383 200.24C117.009 199.973 117.676 199.84 118.383 199.84C119.769 199.84 120.809 200.213 121.503 200.96C122.209 201.693 122.563 202.673 122.563 203.9V210H121.063L120.963 208.22C120.683 208.78 120.269 209.26 119.723 209.66C119.189 210.047 118.469 210.24 117.563 210.24ZM117.823 208.82C118.463 208.82 119.009 208.653 119.463 208.32C119.929 207.987 120.283 207.553 120.523 207.02C120.763 206.487 120.883 205.927 120.883 205.34V205.32H118.343C117.356 205.32 116.656 205.493 116.243 205.84C115.843 206.173 115.643 206.593 115.643 207.1C115.643 207.62 115.829 208.04 116.203 208.36C116.589 208.667 117.129 208.82 117.823 208.82ZM128.23 210C127.323 210 126.61 209.78 126.09 209.34C125.57 208.9 125.31 208.107 125.31 206.96V201.5H123.59V200.08H125.31L125.53 197.7H126.99V200.08H129.91V201.5H126.99V206.96C126.99 207.587 127.116 208.013 127.37 208.24C127.623 208.453 128.07 208.56 128.71 208.56H129.75V210H128.23ZM132.564 197.88C132.231 197.88 131.951 197.773 131.724 197.56C131.511 197.333 131.404 197.053 131.404 196.72C131.404 196.4 131.511 196.133 131.724 195.92C131.951 195.707 132.231 195.6 132.564 195.6C132.884 195.6 133.157 195.707 133.384 195.92C133.611 196.133 133.724 196.4 133.724 196.72C133.724 197.053 133.611 197.333 133.384 197.56C133.157 197.773 132.884 197.88 132.564 197.88ZM131.724 210V200.08H133.404V210H131.724ZM135.829 210V200.08H137.349L137.449 201.86C137.769 201.233 138.229 200.74 138.829 200.38C139.429 200.02 140.109 199.84 140.869 199.84C142.043 199.84 142.976 200.2 143.669 200.92C144.376 201.627 144.729 202.72 144.729 204.2V210H143.049V204.38C143.049 202.313 142.196 201.28 140.489 201.28C139.636 201.28 138.923 201.593 138.349 202.22C137.789 202.833 137.509 203.713 137.509 204.86V210H135.829ZM150.695 206.88C150.135 206.88 149.621 206.807 149.155 206.66L148.155 207.6C148.301 207.707 148.481 207.8 148.695 207.88C148.921 207.947 149.241 208.013 149.655 208.08C150.068 208.133 150.648 208.193 151.395 208.26C152.728 208.353 153.681 208.66 154.255 209.18C154.828 209.7 155.115 210.38 155.115 211.22C155.115 211.793 154.955 212.34 154.635 212.86C154.328 213.38 153.848 213.807 153.195 214.14C152.555 214.473 151.728 214.64 150.715 214.64C149.821 214.64 149.028 214.52 148.335 214.28C147.641 214.053 147.101 213.7 146.715 213.22C146.328 212.753 146.135 212.16 146.135 211.44C146.135 211.067 146.235 210.66 146.435 210.22C146.635 209.793 147.008 209.387 147.555 209C147.261 208.88 147.008 208.753 146.795 208.62C146.595 208.473 146.408 208.313 146.235 208.14V207.68L147.935 206C147.148 205.333 146.755 204.453 146.755 203.36C146.755 202.707 146.908 202.113 147.215 201.58C147.521 201.047 147.968 200.627 148.555 200.32C149.141 200 149.855 199.84 150.695 199.84C151.268 199.84 151.788 199.92 152.255 200.08H155.915V201.34L154.055 201.42C154.441 201.98 154.635 202.627 154.635 203.36C154.635 204.013 154.475 204.607 154.155 205.14C153.848 205.673 153.401 206.1 152.815 206.42C152.241 206.727 151.535 206.88 150.695 206.88ZM150.695 205.5C151.401 205.5 151.961 205.32 152.375 204.96C152.801 204.587 153.015 204.053 153.015 203.36C153.015 202.68 152.801 202.16 152.375 201.8C151.961 201.427 151.401 201.24 150.695 201.24C149.975 201.24 149.401 201.427 148.975 201.8C148.561 202.16 148.355 202.68 148.355 203.36C148.355 204.053 148.561 204.587 148.975 204.96C149.401 205.32 149.975 205.5 150.695 205.5ZM147.775 211.28C147.775 211.947 148.055 212.44 148.615 212.76C149.175 213.093 149.875 213.26 150.715 213.26C151.541 213.26 152.201 213.08 152.695 212.72C153.201 212.36 153.455 211.88 153.455 211.28C153.455 210.853 153.281 210.48 152.935 210.16C152.588 209.853 151.948 209.673 151.015 209.62C150.281 209.567 149.648 209.5 149.115 209.42C148.568 209.713 148.208 210.027 148.035 210.36C147.861 210.707 147.775 211.013 147.775 211.28ZM165.403 210.24C164.576 210.24 163.889 210.1 163.343 209.82C162.796 209.54 162.389 209.167 162.123 208.7C161.856 208.233 161.723 207.727 161.723 207.18C161.723 206.167 162.109 205.387 162.883 204.84C163.656 204.293 164.709 204.02 166.043 204.02H168.723V203.9C168.723 203.033 168.496 202.38 168.043 201.94C167.589 201.487 166.983 201.26 166.223 201.26C165.569 201.26 165.003 201.427 164.523 201.76C164.056 202.08 163.763 202.553 163.643 203.18H161.923C161.989 202.46 162.229 201.853 162.643 201.36C163.069 200.867 163.596 200.493 164.223 200.24C164.849 199.973 165.516 199.84 166.223 199.84C167.609 199.84 168.649 200.213 169.343 200.96C170.049 201.693 170.403 202.673 170.403 203.9V210H168.903L168.803 208.22C168.523 208.78 168.109 209.26 167.563 209.66C167.029 210.047 166.309 210.24 165.403 210.24ZM165.663 208.82C166.303 208.82 166.849 208.653 167.303 208.32C167.769 207.987 168.123 207.553 168.363 207.02C168.603 206.487 168.723 205.927 168.723 205.34V205.32H166.183C165.196 205.32 164.496 205.493 164.083 205.84C163.683 206.173 163.483 206.593 163.483 207.1C163.483 207.62 163.669 208.04 164.043 208.36C164.429 208.667 164.969 208.82 165.663 208.82ZM180.076 210L176.316 200.08H178.076L181.056 208.38L184.056 200.08H185.776L182.016 210H180.076ZM188.166 197.88C187.832 197.88 187.552 197.773 187.326 197.56C187.112 197.333 187.006 197.053 187.006 196.72C187.006 196.4 187.112 196.133 187.326 195.92C187.552 195.707 187.832 195.6 188.166 195.6C188.486 195.6 188.759 195.707 188.986 195.92C189.212 196.133 189.326 196.4 189.326 196.72C189.326 197.053 189.212 197.333 188.986 197.56C188.759 197.773 188.486 197.88 188.166 197.88ZM187.326 210V200.08H189.006V210H187.326ZM195.231 210.24C194.044 210.24 193.057 209.94 192.271 209.34C191.484 208.74 191.024 207.927 190.891 206.9H192.611C192.717 207.42 192.991 207.873 193.431 208.26C193.884 208.633 194.491 208.82 195.251 208.82C195.957 208.82 196.477 208.673 196.811 208.38C197.144 208.073 197.311 207.713 197.311 207.3C197.311 206.7 197.091 206.3 196.651 206.1C196.224 205.9 195.617 205.72 194.831 205.56C194.297 205.453 193.764 205.3 193.231 205.1C192.697 204.9 192.251 204.62 191.891 204.26C191.531 203.887 191.351 203.4 191.351 202.8C191.351 201.933 191.671 201.227 192.311 200.68C192.964 200.12 193.844 199.84 194.951 199.84C196.004 199.84 196.864 200.107 197.531 200.64C198.211 201.16 198.604 201.907 198.711 202.88H197.051C196.984 202.373 196.764 201.98 196.391 201.7C196.031 201.407 195.544 201.26 194.931 201.26C194.331 201.26 193.864 201.387 193.531 201.64C193.211 201.893 193.051 202.227 193.051 202.64C193.051 203.04 193.257 203.353 193.671 203.58C194.097 203.807 194.671 204 195.391 204.16C196.004 204.293 196.584 204.46 197.131 204.66C197.691 204.847 198.144 205.133 198.491 205.52C198.851 205.893 199.031 206.44 199.031 207.16C199.044 208.053 198.704 208.793 198.011 209.38C197.331 209.953 196.404 210.24 195.231 210.24ZM204.551 210.24C203.377 210.24 202.444 209.887 201.751 209.18C201.057 208.46 200.711 207.36 200.711 205.88V200.08H202.391V205.7C202.391 207.767 203.237 208.8 204.931 208.8C205.797 208.8 206.511 208.493 207.071 207.88C207.644 207.253 207.931 206.367 207.931 205.22V200.08H209.611V210H208.091L207.971 208.22C207.664 208.847 207.204 209.34 206.591 209.7C205.991 210.06 205.311 210.24 204.551 210.24ZM215.176 210.24C214.349 210.24 213.663 210.1 213.116 209.82C212.569 209.54 212.163 209.167 211.896 208.7C211.629 208.233 211.496 207.727 211.496 207.18C211.496 206.167 211.883 205.387 212.656 204.84C213.429 204.293 214.483 204.02 215.816 204.02H218.496V203.9C218.496 203.033 218.269 202.38 217.816 201.94C217.363 201.487 216.756 201.26 215.996 201.26C215.343 201.26 214.776 201.427 214.296 201.76C213.829 202.08 213.536 202.553 213.416 203.18H211.696C211.763 202.46 212.003 201.853 212.416 201.36C212.843 200.867 213.369 200.493 213.996 200.24C214.623 199.973 215.289 199.84 215.996 199.84C217.383 199.84 218.423 200.213 219.116 200.96C219.823 201.693 220.176 202.673 220.176 203.9V210H218.676L218.576 208.22C218.296 208.78 217.883 209.26 217.336 209.66C216.803 210.047 216.083 210.24 215.176 210.24ZM215.436 208.82C216.076 208.82 216.623 208.653 217.076 208.32C217.543 207.987 217.896 207.553 218.136 207.02C218.376 206.487 218.496 205.927 218.496 205.34V205.32H215.956C214.969 205.32 214.269 205.493 213.856 205.84C213.456 206.173 213.256 206.593 213.256 207.1C213.256 207.62 213.443 208.04 213.816 208.36C214.203 208.667 214.743 208.82 215.436 208.82ZM222.196 210V195.6H223.876V210H222.196ZM231.463 210V201.5H229.963V200.08H231.463V198.36C231.463 197.4 231.703 196.7 232.183 196.26C232.663 195.82 233.363 195.6 234.283 195.6H235.283V197.04H234.543C234.036 197.04 233.676 197.147 233.463 197.36C233.25 197.56 233.143 197.907 233.143 198.4V200.08H235.583V201.5H233.143V210H231.463ZM241.213 210.24C240.279 210.24 239.439 210.027 238.693 209.6C237.946 209.173 237.353 208.573 236.913 207.8C236.486 207.013 236.273 206.093 236.273 205.04C236.273 203.987 236.493 203.073 236.933 202.3C237.373 201.513 237.966 200.907 238.713 200.48C239.473 200.053 240.319 199.84 241.253 199.84C242.186 199.84 243.026 200.053 243.773 200.48C244.519 200.907 245.106 201.513 245.533 202.3C245.973 203.073 246.193 203.987 246.193 205.04C246.193 206.093 245.973 207.013 245.533 207.8C245.093 208.573 244.493 209.173 243.733 209.6C242.986 210.027 242.146 210.24 241.213 210.24ZM241.213 208.8C241.786 208.8 242.319 208.66 242.813 208.38C243.306 208.1 243.706 207.68 244.013 207.12C244.319 206.56 244.473 205.867 244.473 205.04C244.473 204.213 244.319 203.52 244.013 202.96C243.719 202.4 243.326 201.98 242.833 201.7C242.339 201.42 241.813 201.28 241.253 201.28C240.679 201.28 240.146 201.42 239.653 201.7C239.159 201.98 238.759 202.4 238.453 202.96C238.146 203.52 237.993 204.213 237.993 205.04C237.993 205.867 238.146 206.56 238.453 207.12C238.759 207.68 239.153 208.1 239.633 208.38C240.126 208.66 240.653 208.8 241.213 208.8ZM248.028 210V200.08H249.548L249.688 201.98C249.995 201.327 250.462 200.807 251.088 200.42C251.715 200.033 252.488 199.84 253.408 199.84V201.6H252.948C252.362 201.6 251.822 201.707 251.328 201.92C250.835 202.12 250.442 202.467 250.148 202.96C249.855 203.453 249.708 204.133 249.708 205V210H248.028ZM263.507 210C262.6 210 261.887 209.78 261.367 209.34C260.847 208.9 260.587 208.107 260.587 206.96V201.5H258.867V200.08H260.587L260.807 197.7H262.267V200.08H265.187V201.5H262.267V206.96C262.267 207.587 262.394 208.013 262.647 208.24C262.9 208.453 263.347 208.56 263.987 208.56H265.027V210H263.507ZM266.821 210V195.6H268.501V201.78C268.835 201.167 269.308 200.693 269.921 200.36C270.535 200.013 271.201 199.84 271.921 199.84C273.068 199.84 273.988 200.2 274.681 200.92C275.375 201.627 275.721 202.72 275.721 204.2V210H274.061V204.38C274.061 202.313 273.228 201.28 271.561 201.28C270.695 201.28 269.968 201.593 269.381 202.22C268.795 202.833 268.501 203.713 268.501 204.86V210H266.821ZM282.227 210.24C281.28 210.24 280.44 210.027 279.707 209.6C278.973 209.16 278.393 208.553 277.967 207.78C277.553 207.007 277.347 206.093 277.347 205.04C277.347 204 277.553 203.093 277.967 202.32C278.38 201.533 278.953 200.927 279.687 200.5C280.433 200.06 281.293 199.84 282.267 199.84C283.227 199.84 284.053 200.06 284.747 200.5C285.453 200.927 285.993 201.493 286.367 202.2C286.74 202.907 286.927 203.667 286.927 204.48C286.927 204.627 286.92 204.773 286.907 204.92C286.907 205.067 286.907 205.233 286.907 205.42H279.007C279.047 206.18 279.22 206.813 279.527 207.32C279.847 207.813 280.24 208.187 280.707 208.44C281.187 208.693 281.693 208.82 282.227 208.82C282.92 208.82 283.5 208.66 283.967 208.34C284.433 208.02 284.773 207.587 284.987 207.04H286.647C286.38 207.96 285.867 208.727 285.107 209.34C284.36 209.94 283.4 210.24 282.227 210.24ZM282.227 201.26C281.427 201.26 280.713 201.507 280.087 202C279.473 202.48 279.12 203.187 279.027 204.12H285.267C285.227 203.227 284.92 202.527 284.347 202.02C283.773 201.513 283.067 201.26 282.227 201.26ZM293.986 210V201.5H292.486V200.08H293.986V198.36C293.986 197.4 294.226 196.7 294.706 196.26C295.186 195.82 295.886 195.6 296.806 195.6H297.806V197.04H297.066C296.56 197.04 296.2 197.147 295.986 197.36C295.773 197.56 295.666 197.907 295.666 198.4V200.08H298.106V201.5H295.666V210H293.986ZM303.676 210.24C302.729 210.24 301.889 210.027 301.156 209.6C300.423 209.16 299.843 208.553 299.416 207.78C299.003 207.007 298.796 206.093 298.796 205.04C298.796 204 299.003 203.093 299.416 202.32C299.829 201.533 300.403 200.927 301.136 200.5C301.883 200.06 302.743 199.84 303.716 199.84C304.676 199.84 305.503 200.06 306.196 200.5C306.903 200.927 307.443 201.493 307.816 202.2C308.189 202.907 308.376 203.667 308.376 204.48C308.376 204.627 308.369 204.773 308.356 204.92C308.356 205.067 308.356 205.233 308.356 205.42H300.456C300.496 206.18 300.669 206.813 300.976 207.32C301.296 207.813 301.689 208.187 302.156 208.44C302.636 208.693 303.143 208.82 303.676 208.82C304.369 208.82 304.949 208.66 305.416 208.34C305.883 208.02 306.223 207.587 306.436 207.04H308.096C307.829 207.96 307.316 208.727 306.556 209.34C305.809 209.94 304.849 210.24 303.676 210.24ZM303.676 201.26C302.876 201.26 302.163 201.507 301.536 202C300.923 202.48 300.569 203.187 300.476 204.12H306.716C306.676 203.227 306.369 202.527 305.796 202.02C305.223 201.513 304.516 201.26 303.676 201.26ZM314.563 210.24C313.616 210.24 312.776 210.027 312.043 209.6C311.309 209.16 310.729 208.553 310.303 207.78C309.889 207.007 309.683 206.093 309.683 205.04C309.683 204 309.889 203.093 310.303 202.32C310.716 201.533 311.289 200.927 312.023 200.5C312.769 200.06 313.629 199.84 314.603 199.84C315.563 199.84 316.389 200.06 317.083 200.5C317.789 200.927 318.329 201.493 318.703 202.2C319.076 202.907 319.263 203.667 319.263 204.48C319.263 204.627 319.256 204.773 319.243 204.92C319.243 205.067 319.243 205.233 319.243 205.42H311.343C311.383 206.18 311.556 206.813 311.863 207.32C312.183 207.813 312.576 208.187 313.043 208.44C313.523 208.693 314.029 208.82 314.563 208.82C315.256 208.82 315.836 208.66 316.303 208.34C316.769 208.02 317.109 207.587 317.323 207.04H318.983C318.716 207.96 318.203 208.727 317.443 209.34C316.696 209.94 315.736 210.24 314.563 210.24ZM314.563 201.26C313.763 201.26 313.049 201.507 312.423 202C311.809 202.48 311.456 203.187 311.363 204.12H317.603C317.563 203.227 317.256 202.527 316.683 202.02C316.109 201.513 315.403 201.26 314.563 201.26ZM325.489 210.24C324.503 210.24 323.636 210.013 322.889 209.56C322.156 209.107 321.583 208.487 321.169 207.7C320.769 206.913 320.569 206.02 320.569 205.02C320.569 204.02 320.776 203.133 321.189 202.36C321.603 201.573 322.176 200.96 322.909 200.52C323.643 200.067 324.509 199.84 325.509 199.84C326.323 199.84 327.043 200.007 327.669 200.34C328.296 200.673 328.783 201.14 329.129 201.74V195.6H330.809V210H329.289L329.129 208.36C328.809 208.84 328.349 209.273 327.749 209.66C327.149 210.047 326.396 210.24 325.489 210.24ZM325.669 208.78C326.336 208.78 326.923 208.627 327.429 208.32C327.949 208 328.349 207.56 328.629 207C328.923 206.44 329.069 205.787 329.069 205.04C329.069 204.293 328.923 203.64 328.629 203.08C328.349 202.52 327.949 202.087 327.429 201.78C326.923 201.46 326.336 201.3 325.669 201.3C325.016 201.3 324.429 201.46 323.909 201.78C323.403 202.087 323.003 202.52 322.709 203.08C322.429 203.64 322.289 204.293 322.289 205.04C322.289 205.787 322.429 206.44 322.709 207C323.003 207.56 323.403 208 323.909 208.32C324.429 208.627 325.016 208.78 325.669 208.78ZM331.708 212.38L332.868 207.96H334.608L332.868 212.38H331.708ZM344.696 210.24C343.509 210.24 342.522 209.94 341.736 209.34C340.949 208.74 340.489 207.927 340.356 206.9H342.076C342.182 207.42 342.456 207.873 342.896 208.26C343.349 208.633 343.956 208.82 344.716 208.82C345.422 208.82 345.942 208.673 346.276 208.38C346.609 208.073 346.776 207.713 346.776 207.3C346.776 206.7 346.556 206.3 346.116 206.1C345.689 205.9 345.082 205.72 344.296 205.56C343.762 205.453 343.229 205.3 342.696 205.1C342.162 204.9 341.716 204.62 341.356 204.26C340.996 203.887 340.816 203.4 340.816 202.8C340.816 201.933 341.136 201.227 341.776 200.68C342.429 200.12 343.309 199.84 344.416 199.84C345.469 199.84 346.329 200.107 346.996 200.64C347.676 201.16 348.069 201.907 348.176 202.88H346.516C346.449 202.373 346.229 201.98 345.856 201.7C345.496 201.407 345.009 201.26 344.396 201.26C343.796 201.26 343.329 201.387 342.996 201.64C342.676 201.893 342.516 202.227 342.516 202.64C342.516 203.04 342.722 203.353 343.136 203.58C343.562 203.807 344.136 204 344.856 204.16C345.469 204.293 346.049 204.46 346.596 204.66C347.156 204.847 347.609 205.133 347.956 205.52C348.316 205.893 348.496 206.44 348.496 207.16C348.509 208.053 348.169 208.793 347.476 209.38C346.796 209.953 345.869 210.24 344.696 210.24ZM353.866 210C352.96 210 352.246 209.78 351.726 209.34C351.206 208.9 350.946 208.107 350.946 206.96V201.5H349.226V200.08H350.946L351.166 197.7H352.626V200.08H355.546V201.5H352.626V206.96C352.626 207.587 352.753 208.013 353.006 208.24C353.26 208.453 353.706 208.56 354.346 208.56H355.386V210H353.866ZM361.427 210.24C360.494 210.24 359.654 210.027 358.907 209.6C358.161 209.173 357.567 208.573 357.127 207.8C356.701 207.013 356.487 206.093 356.487 205.04C356.487 203.987 356.707 203.073 357.147 202.3C357.587 201.513 358.181 200.907 358.927 200.48C359.687 200.053 360.534 199.84 361.467 199.84C362.401 199.84 363.241 200.053 363.987 200.48C364.734 200.907 365.321 201.513 365.747 202.3C366.187 203.073 366.407 203.987 366.407 205.04C366.407 206.093 366.187 207.013 365.747 207.8C365.307 208.573 364.707 209.173 363.947 209.6C363.201 210.027 362.361 210.24 361.427 210.24ZM361.427 208.8C362.001 208.8 362.534 208.66 363.027 208.38C363.521 208.1 363.921 207.68 364.227 207.12C364.534 206.56 364.687 205.867 364.687 205.04C364.687 204.213 364.534 203.52 364.227 202.96C363.934 202.4 363.541 201.98 363.047 201.7C362.554 201.42 362.027 201.28 361.467 201.28C360.894 201.28 360.361 201.42 359.867 201.7C359.374 201.98 358.974 202.4 358.667 202.96C358.361 203.52 358.207 204.213 358.207 205.04C358.207 205.867 358.361 206.56 358.667 207.12C358.974 207.68 359.367 208.1 359.847 208.38C360.341 208.66 360.867 208.8 361.427 208.8ZM368.243 210V200.08H369.763L369.903 201.98C370.21 201.327 370.677 200.807 371.303 200.42C371.93 200.033 372.703 199.84 373.623 199.84V201.6H373.163C372.577 201.6 372.037 201.707 371.543 201.92C371.05 202.12 370.657 202.467 370.363 202.96C370.07 203.453 369.923 204.133 369.923 205V210H368.243ZM376.029 197.88C375.696 197.88 375.416 197.773 375.189 197.56C374.976 197.333 374.869 197.053 374.869 196.72C374.869 196.4 374.976 196.133 375.189 195.92C375.416 195.707 375.696 195.6 376.029 195.6C376.349 195.6 376.622 195.707 376.849 195.92C377.076 196.133 377.189 196.4 377.189 196.72C377.189 197.053 377.076 197.333 376.849 197.56C376.622 197.773 376.349 197.88 376.029 197.88ZM375.189 210V200.08H376.869V210H375.189ZM383.754 210.24C382.807 210.24 381.967 210.027 381.234 209.6C380.501 209.16 379.921 208.553 379.494 207.78C379.081 207.007 378.874 206.093 378.874 205.04C378.874 204 379.081 203.093 379.494 202.32C379.907 201.533 380.481 200.927 381.214 200.5C381.961 200.06 382.821 199.84 383.794 199.84C384.754 199.84 385.581 200.06 386.274 200.5C386.981 200.927 387.521 201.493 387.894 202.2C388.267 202.907 388.454 203.667 388.454 204.48C388.454 204.627 388.447 204.773 388.434 204.92C388.434 205.067 388.434 205.233 388.434 205.42H380.534C380.574 206.18 380.747 206.813 381.054 207.32C381.374 207.813 381.767 208.187 382.234 208.44C382.714 208.693 383.221 208.82 383.754 208.82C384.447 208.82 385.027 208.66 385.494 208.34C385.961 208.02 386.301 207.587 386.514 207.04H388.174C387.907 207.96 387.394 208.727 386.634 209.34C385.887 209.94 384.927 210.24 383.754 210.24ZM383.754 201.26C382.954 201.26 382.241 201.507 381.614 202C381.001 202.48 380.647 203.187 380.554 204.12H386.794C386.754 203.227 386.447 202.527 385.874 202.02C385.301 201.513 384.594 201.26 383.754 201.26ZM393.981 210.24C392.794 210.24 391.807 209.94 391.021 209.34C390.234 208.74 389.774 207.927 389.641 206.9H391.361C391.467 207.42 391.741 207.873 392.181 208.26C392.634 208.633 393.241 208.82 394.001 208.82C394.707 208.82 395.227 208.673 395.561 208.38C395.894 208.073 396.061 207.713 396.061 207.3C396.061 206.7 395.841 206.3 395.401 206.1C394.974 205.9 394.367 205.72 393.581 205.56C393.047 205.453 392.514 205.3 391.981 205.1C391.447 204.9 391.001 204.62 390.641 204.26C390.281 203.887 390.101 203.4 390.101 202.8C390.101 201.933 390.421 201.227 391.061 200.68C391.714 200.12 392.594 199.84 393.701 199.84C394.754 199.84 395.614 200.107 396.281 200.64C396.961 201.16 397.354 201.907 397.461 202.88H395.801C395.734 202.373 395.514 201.98 395.141 201.7C394.781 201.407 394.294 201.26 393.681 201.26C393.081 201.26 392.614 201.387 392.281 201.64C391.961 201.893 391.801 202.227 391.801 202.64C391.801 203.04 392.007 203.353 392.421 203.58C392.847 203.807 393.421 204 394.141 204.16C394.754 204.293 395.334 204.46 395.881 204.66C396.441 204.847 396.894 205.133 397.241 205.52C397.601 205.893 397.781 206.44 397.781 207.16C397.794 208.053 397.454 208.793 396.761 209.38C396.081 209.953 395.154 210.24 393.981 210.24ZM398.341 212.38L399.501 207.96H401.241L399.501 212.38H398.341ZM407.528 210V195.6H409.208V201.78C409.542 201.167 410.015 200.693 410.628 200.36C411.242 200.013 411.908 199.84 412.628 199.84C413.775 199.84 414.695 200.2 415.388 200.92C416.082 201.627 416.428 202.72 416.428 204.2V210H414.768V204.38C414.768 202.313 413.935 201.28 412.268 201.28C411.402 201.28 410.675 201.593 410.088 202.22C409.502 202.833 409.208 203.713 409.208 204.86V210H407.528ZM419.494 197.88C419.16 197.88 418.88 197.773 418.654 197.56C418.44 197.333 418.334 197.053 418.334 196.72C418.334 196.4 418.44 196.133 418.654 195.92C418.88 195.707 419.16 195.6 419.494 195.6C419.814 195.6 420.087 195.707 420.314 195.92C420.54 196.133 420.654 196.4 420.654 196.72C420.654 197.053 420.54 197.333 420.314 197.56C420.087 197.773 419.814 197.88 419.494 197.88ZM418.654 210V200.08H420.334V210H418.654ZM426.679 206.88C426.119 206.88 425.606 206.807 425.139 206.66L424.139 207.6C424.286 207.707 424.466 207.8 424.679 207.88C424.906 207.947 425.226 208.013 425.639 208.08C426.052 208.133 426.632 208.193 427.379 208.26C428.712 208.353 429.666 208.66 430.239 209.18C430.812 209.7 431.099 210.38 431.099 211.22C431.099 211.793 430.939 212.34 430.619 212.86C430.312 213.38 429.832 213.807 429.179 214.14C428.539 214.473 427.712 214.64 426.699 214.64C425.806 214.64 425.012 214.52 424.319 214.28C423.626 214.053 423.086 213.7 422.699 213.22C422.312 212.753 422.119 212.16 422.119 211.44C422.119 211.067 422.219 210.66 422.419 210.22C422.619 209.793 422.992 209.387 423.539 209C423.246 208.88 422.992 208.753 422.779 208.62C422.579 208.473 422.392 208.313 422.219 208.14V207.68L423.919 206C423.132 205.333 422.739 204.453 422.739 203.36C422.739 202.707 422.892 202.113 423.199 201.58C423.506 201.047 423.952 200.627 424.539 200.32C425.126 200 425.839 199.84 426.679 199.84C427.252 199.84 427.772 199.92 428.239 200.08H431.899V201.34L430.039 201.42C430.426 201.98 430.619 202.627 430.619 203.36C430.619 204.013 430.459 204.607 430.139 205.14C429.832 205.673 429.386 206.1 428.799 206.42C428.226 206.727 427.519 206.88 426.679 206.88ZM426.679 205.5C427.386 205.5 427.946 205.32 428.359 204.96C428.786 204.587 428.999 204.053 428.999 203.36C428.999 202.68 428.786 202.16 428.359 201.8C427.946 201.427 427.386 201.24 426.679 201.24C425.959 201.24 425.386 201.427 424.959 201.8C424.546 202.16 424.339 202.68 424.339 203.36C424.339 204.053 424.546 204.587 424.959 204.96C425.386 205.32 425.959 205.5 426.679 205.5ZM423.759 211.28C423.759 211.947 424.039 212.44 424.599 212.76C425.159 213.093 425.859 213.26 426.699 213.26C427.526 213.26 428.186 213.08 428.679 212.72C429.186 212.36 429.439 211.88 429.439 211.28C429.439 210.853 429.266 210.48 428.919 210.16C428.572 209.853 427.932 209.673 426.999 209.62C426.266 209.567 425.632 209.5 425.099 209.42C424.552 209.713 424.192 210.027 424.019 210.36C423.846 210.707 423.759 211.013 423.759 211.28ZM433.294 210V195.6H434.974V201.78C435.307 201.167 435.781 200.693 436.394 200.36C437.007 200.013 437.674 199.84 438.394 199.84C439.541 199.84 440.461 200.2 441.154 200.92C441.847 201.627 442.194 202.72 442.194 204.2V210H440.534V204.38C440.534 202.313 439.701 201.28 438.034 201.28C437.167 201.28 436.441 201.593 435.854 202.22C435.267 202.833 434.974 203.713 434.974 204.86V210H433.294ZM444.239 210V195.6H445.919V210H444.239ZM449.193 197.88C448.86 197.88 448.58 197.773 448.353 197.56C448.14 197.333 448.033 197.053 448.033 196.72C448.033 196.4 448.14 196.133 448.353 195.92C448.58 195.707 448.86 195.6 449.193 195.6C449.513 195.6 449.786 195.707 450.013 195.92C450.24 196.133 450.353 196.4 450.353 196.72C450.353 197.053 450.24 197.333 450.013 197.56C449.786 197.773 449.513 197.88 449.193 197.88ZM448.353 210V200.08H450.033V210H448.353ZM456.378 206.88C455.818 206.88 455.305 206.807 454.838 206.66L453.838 207.6C453.985 207.707 454.165 207.8 454.378 207.88C454.605 207.947 454.925 208.013 455.338 208.08C455.751 208.133 456.331 208.193 457.078 208.26C458.411 208.353 459.365 208.66 459.938 209.18C460.511 209.7 460.798 210.38 460.798 211.22C460.798 211.793 460.638 212.34 460.318 212.86C460.011 213.38 459.531 213.807 458.878 214.14C458.238 214.473 457.411 214.64 456.398 214.64C455.505 214.64 454.711 214.52 454.018 214.28C453.325 214.053 452.785 213.7 452.398 213.22C452.011 212.753 451.818 212.16 451.818 211.44C451.818 211.067 451.918 210.66 452.118 210.22C452.318 209.793 452.691 209.387 453.238 209C452.945 208.88 452.691 208.753 452.478 208.62C452.278 208.473 452.091 208.313 451.918 208.14V207.68L453.618 206C452.831 205.333 452.438 204.453 452.438 203.36C452.438 202.707 452.591 202.113 452.898 201.58C453.205 201.047 453.651 200.627 454.238 200.32C454.825 200 455.538 199.84 456.378 199.84C456.951 199.84 457.471 199.92 457.938 200.08H461.598V201.34L459.738 201.42C460.125 201.98 460.318 202.627 460.318 203.36C460.318 204.013 460.158 204.607 459.838 205.14C459.531 205.673 459.085 206.1 458.498 206.42C457.925 206.727 457.218 206.88 456.378 206.88ZM456.378 205.5C457.085 205.5 457.645 205.32 458.058 204.96C458.485 204.587 458.698 204.053 458.698 203.36C458.698 202.68 458.485 202.16 458.058 201.8C457.645 201.427 457.085 201.24 456.378 201.24C455.658 201.24 455.085 201.427 454.658 201.8C454.245 202.16 454.038 202.68 454.038 203.36C454.038 204.053 454.245 204.587 454.658 204.96C455.085 205.32 455.658 205.5 456.378 205.5ZM453.458 211.28C453.458 211.947 453.738 212.44 454.298 212.76C454.858 213.093 455.558 213.26 456.398 213.26C457.225 213.26 457.885 213.08 458.378 212.72C458.885 212.36 459.138 211.88 459.138 211.28C459.138 210.853 458.965 210.48 458.618 210.16C458.271 209.853 457.631 209.673 456.698 209.62C455.965 209.567 455.331 209.5 454.798 209.42C454.251 209.713 453.891 210.027 453.718 210.36C453.545 210.707 453.458 211.013 453.458 211.28ZM462.993 210V195.6H464.673V201.78C465.007 201.167 465.48 200.693 466.093 200.36C466.707 200.013 467.373 199.84 468.093 199.84C469.24 199.84 470.16 200.2 470.853 200.92C471.547 201.627 471.893 202.72 471.893 204.2V210H470.233V204.38C470.233 202.313 469.4 201.28 467.733 201.28C466.867 201.28 466.14 201.593 465.553 202.22C464.967 202.833 464.673 203.713 464.673 204.86V210H462.993ZM477.859 210C476.952 210 476.239 209.78 475.719 209.34C475.199 208.9 474.939 208.107 474.939 206.96V201.5H473.219V200.08H474.939L475.159 197.7H476.619V200.08H479.539V201.5H476.619V206.96C476.619 207.587 476.745 208.013 476.999 208.24C477.252 208.453 477.699 208.56 478.339 208.56H479.379V210H477.859ZM484.973 210.24C483.786 210.24 482.8 209.94 482.013 209.34C481.226 208.74 480.766 207.927 480.633 206.9H482.353C482.46 207.42 482.733 207.873 483.173 208.26C483.626 208.633 484.233 208.82 484.993 208.82C485.7 208.82 486.22 208.673 486.553 208.38C486.886 208.073 487.053 207.713 487.053 207.3C487.053 206.7 486.833 206.3 486.393 206.1C485.966 205.9 485.36 205.72 484.573 205.56C484.04 205.453 483.506 205.3 482.973 205.1C482.44 204.9 481.993 204.62 481.633 204.26C481.273 203.887 481.093 203.4 481.093 202.8C481.093 201.933 481.413 201.227 482.053 200.68C482.706 200.12 483.586 199.84 484.693 199.84C485.746 199.84 486.606 200.107 487.273 200.64C487.953 201.16 488.346 201.907 488.453 202.88H486.793C486.726 202.373 486.506 201.98 486.133 201.7C485.773 201.407 485.286 201.26 484.673 201.26C484.073 201.26 483.606 201.387 483.273 201.64C482.953 201.893 482.793 202.227 482.793 202.64C482.793 203.04 483 203.353 483.413 203.58C483.84 203.807 484.413 204 485.133 204.16C485.746 204.293 486.326 204.46 486.873 204.66C487.433 204.847 487.886 205.133 488.233 205.52C488.593 205.893 488.773 206.44 488.773 207.16C488.786 208.053 488.446 208.793 487.753 209.38C487.073 209.953 486.146 210.24 484.973 210.24ZM87.807 240.24C86.9803 240.24 86.2936 240.1 85.747 239.82C85.2003 239.54 84.7936 239.167 84.527 238.7C84.2603 238.233 84.127 237.727 84.127 237.18C84.127 236.167 84.5136 235.387 85.287 234.84C86.0603 234.293 87.1136 234.02 88.447 234.02H91.127V233.9C91.127 233.033 90.9003 232.38 90.447 231.94C89.9936 231.487 89.387 231.26 88.627 231.26C87.9736 231.26 87.407 231.427 86.927 231.76C86.4603 232.08 86.167 232.553 86.047 233.18H84.327C84.3936 232.46 84.6336 231.853 85.047 231.36C85.4736 230.867 86.0003 230.493 86.627 230.24C87.2536 229.973 87.9203 229.84 88.627 229.84C90.0136 229.84 91.0536 230.213 91.747 230.96C92.4536 231.693 92.807 232.673 92.807 233.9V240H91.307L91.207 238.22C90.927 238.78 90.5136 239.26 89.967 239.66C89.4336 240.047 88.7136 240.24 87.807 240.24ZM88.067 238.82C88.707 238.82 89.2536 238.653 89.707 238.32C90.1736 237.987 90.527 237.553 90.767 237.02C91.007 236.487 91.127 235.927 91.127 235.34V235.32H88.587C87.6003 235.32 86.9003 235.493 86.487 235.84C86.087 236.173 85.887 236.593 85.887 237.1C85.887 237.62 86.0736 238.04 86.447 238.36C86.8336 238.667 87.3736 238.82 88.067 238.82ZM94.8273 240V230.08H96.3473L96.4473 231.86C96.7673 231.233 97.2273 230.74 97.8273 230.38C98.4273 230.02 99.1073 229.84 99.8673 229.84C101.041 229.84 101.974 230.2 102.667 230.92C103.374 231.627 103.727 232.72 103.727 234.2V240H102.047V234.38C102.047 232.313 101.194 231.28 99.4873 231.28C98.6339 231.28 97.9206 231.593 97.3473 232.22C96.7873 232.833 96.5073 233.713 96.5073 234.86V240H94.8273ZM110.273 240.24C109.286 240.24 108.419 240.013 107.673 239.56C106.939 239.107 106.366 238.487 105.953 237.7C105.553 236.913 105.353 236.02 105.353 235.02C105.353 234.02 105.559 233.133 105.973 232.36C106.386 231.573 106.959 230.96 107.693 230.52C108.426 230.067 109.293 229.84 110.293 229.84C111.106 229.84 111.826 230.007 112.453 230.34C113.079 230.673 113.566 231.14 113.913 231.74V225.6H115.593V240H114.073L113.913 238.36C113.593 238.84 113.133 239.273 112.533 239.66C111.933 240.047 111.179 240.24 110.273 240.24ZM110.453 238.78C111.119 238.78 111.706 238.627 112.213 238.32C112.733 238 113.133 237.56 113.413 237C113.706 236.44 113.853 235.787 113.853 235.04C113.853 234.293 113.706 233.64 113.413 233.08C113.133 232.52 112.733 232.087 112.213 231.78C111.706 231.46 111.119 231.3 110.453 231.3C109.799 231.3 109.213 231.46 108.693 231.78C108.186 232.087 107.786 232.52 107.493 233.08C107.213 233.64 107.073 234.293 107.073 235.04C107.073 235.787 107.213 236.44 107.493 237C107.786 237.56 108.186 238 108.693 238.32C109.213 238.627 109.799 238.78 110.453 238.78ZM122.624 244.4V230.08H124.144L124.304 231.72C124.624 231.24 125.077 230.807 125.664 230.42C126.264 230.033 127.024 229.84 127.944 229.84C128.931 229.84 129.791 230.067 130.524 230.52C131.257 230.973 131.824 231.593 132.224 232.38C132.637 233.167 132.844 234.06 132.844 235.06C132.844 236.06 132.637 236.953 132.224 237.74C131.824 238.513 131.251 239.127 130.504 239.58C129.771 240.02 128.911 240.24 127.924 240.24C127.111 240.24 126.384 240.073 125.744 239.74C125.117 239.407 124.637 238.94 124.304 238.34V244.4H122.624ZM127.744 238.78C128.411 238.78 128.997 238.627 129.504 238.32C130.011 238 130.411 237.56 130.704 237C130.997 236.44 131.144 235.787 131.144 235.04C131.144 234.293 130.997 233.64 130.704 233.08C130.411 232.52 130.011 232.087 129.504 231.78C128.997 231.46 128.411 231.3 127.744 231.3C127.077 231.3 126.491 231.46 125.984 231.78C125.477 232.087 125.077 232.52 124.784 233.08C124.491 233.64 124.344 234.293 124.344 235.04C124.344 235.787 124.491 236.44 124.784 237C125.077 237.56 125.477 238 125.984 238.32C126.491 238.627 127.077 238.78 127.744 238.78ZM134.683 240V230.08H136.203L136.343 231.98C136.649 231.327 137.116 230.807 137.743 230.42C138.369 230.033 139.143 229.84 140.063 229.84V231.6H139.603C139.016 231.6 138.476 231.707 137.983 231.92C137.489 232.12 137.096 232.467 136.803 232.96C136.509 233.453 136.363 234.133 136.363 235V240H134.683ZM145.537 240.24C144.591 240.24 143.751 240.027 143.017 239.6C142.284 239.16 141.704 238.553 141.277 237.78C140.864 237.007 140.657 236.093 140.657 235.04C140.657 234 140.864 233.093 141.277 232.32C141.691 231.533 142.264 230.927 142.997 230.5C143.744 230.06 144.604 229.84 145.577 229.84C146.537 229.84 147.364 230.06 148.057 230.5C148.764 230.927 149.304 231.493 149.677 232.2C150.051 232.907 150.237 233.667 150.237 234.48C150.237 234.627 150.231 234.773 150.217 234.92C150.217 235.067 150.217 235.233 150.217 235.42H142.317C142.357 236.18 142.531 236.813 142.837 237.32C143.157 237.813 143.551 238.187 144.017 238.44C144.497 238.693 145.004 238.82 145.537 238.82C146.231 238.82 146.811 238.66 147.277 238.34C147.744 238.02 148.084 237.587 148.297 237.04H149.957C149.691 237.96 149.177 238.727 148.417 239.34C147.671 239.94 146.711 240.24 145.537 240.24ZM145.537 231.26C144.737 231.26 144.024 231.507 143.397 232C142.784 232.48 142.431 233.187 142.337 234.12H148.577C148.537 233.227 148.231 232.527 147.657 232.02C147.084 231.513 146.377 231.26 145.537 231.26ZM155.764 240.24C154.577 240.24 153.591 239.94 152.804 239.34C152.017 238.74 151.557 237.927 151.424 236.9H153.144C153.251 237.42 153.524 237.873 153.964 238.26C154.417 238.633 155.024 238.82 155.784 238.82C156.491 238.82 157.011 238.673 157.344 238.38C157.677 238.073 157.844 237.713 157.844 237.3C157.844 236.7 157.624 236.3 157.184 236.1C156.757 235.9 156.151 235.72 155.364 235.56C154.831 235.453 154.297 235.3 153.764 235.1C153.231 234.9 152.784 234.62 152.424 234.26C152.064 233.887 151.884 233.4 151.884 232.8C151.884 231.933 152.204 231.227 152.844 230.68C153.497 230.12 154.377 229.84 155.484 229.84C156.537 229.84 157.397 230.107 158.064 230.64C158.744 231.16 159.137 231.907 159.244 232.88H157.584C157.517 232.373 157.297 231.98 156.924 231.7C156.564 231.407 156.077 231.26 155.464 231.26C154.864 231.26 154.397 231.387 154.064 231.64C153.744 231.893 153.584 232.227 153.584 232.64C153.584 233.04 153.791 233.353 154.204 233.58C154.631 233.807 155.204 234 155.924 234.16C156.537 234.293 157.117 234.46 157.664 234.66C158.224 234.847 158.677 235.133 159.024 235.52C159.384 235.893 159.564 236.44 159.564 237.16C159.577 238.053 159.237 238.793 158.544 239.38C157.864 239.953 156.937 240.24 155.764 240.24ZM165.924 240.24C164.977 240.24 164.137 240.027 163.404 239.6C162.671 239.16 162.091 238.553 161.664 237.78C161.251 237.007 161.044 236.093 161.044 235.04C161.044 234 161.251 233.093 161.664 232.32C162.077 231.533 162.651 230.927 163.384 230.5C164.131 230.06 164.991 229.84 165.964 229.84C166.924 229.84 167.751 230.06 168.444 230.5C169.151 230.927 169.691 231.493 170.064 232.2C170.437 232.907 170.624 233.667 170.624 234.48C170.624 234.627 170.617 234.773 170.604 234.92C170.604 235.067 170.604 235.233 170.604 235.42H162.704C162.744 236.18 162.917 236.813 163.224 237.32C163.544 237.813 163.937 238.187 164.404 238.44C164.884 238.693 165.391 238.82 165.924 238.82C166.617 238.82 167.197 238.66 167.664 238.34C168.131 238.02 168.471 237.587 168.684 237.04H170.344C170.077 237.96 169.564 238.727 168.804 239.34C168.057 239.94 167.097 240.24 165.924 240.24ZM165.924 231.26C165.124 231.26 164.411 231.507 163.784 232C163.171 232.48 162.817 233.187 162.724 234.12H168.964C168.924 233.227 168.617 232.527 168.044 232.02C167.471 231.513 166.764 231.26 165.924 231.26ZM172.351 240V230.08H173.871L173.971 231.86C174.291 231.233 174.751 230.74 175.351 230.38C175.951 230.02 176.631 229.84 177.391 229.84C178.564 229.84 179.497 230.2 180.191 230.92C180.897 231.627 181.251 232.72 181.251 234.2V240H179.571V234.38C179.571 232.313 178.717 231.28 177.011 231.28C176.157 231.28 175.444 231.593 174.871 232.22C174.311 232.833 174.031 233.713 174.031 234.86V240H172.351ZM187.216 240C186.309 240 185.596 239.78 185.076 239.34C184.556 238.9 184.296 238.107 184.296 236.96V231.5H182.576V230.08H184.296L184.516 227.7H185.976V230.08H188.896V231.5H185.976V236.96C185.976 237.587 186.103 238.013 186.356 238.24C186.609 238.453 187.056 238.56 187.696 238.56H188.736V240H187.216ZM193.83 240.24C193.004 240.24 192.317 240.1 191.77 239.82C191.224 239.54 190.817 239.167 190.55 238.7C190.284 238.233 190.15 237.727 190.15 237.18C190.15 236.167 190.537 235.387 191.31 234.84C192.084 234.293 193.137 234.02 194.47 234.02H197.15V233.9C197.15 233.033 196.924 232.38 196.47 231.94C196.017 231.487 195.41 231.26 194.65 231.26C193.997 231.26 193.43 231.427 192.95 231.76C192.484 232.08 192.19 232.553 192.07 233.18H190.35C190.417 232.46 190.657 231.853 191.07 231.36C191.497 230.867 192.024 230.493 192.65 230.24C193.277 229.973 193.944 229.84 194.65 229.84C196.037 229.84 197.077 230.213 197.77 230.96C198.477 231.693 198.83 232.673 198.83 233.9V240H197.33L197.23 238.22C196.95 238.78 196.537 239.26 195.99 239.66C195.457 240.047 194.737 240.24 193.83 240.24ZM194.09 238.82C194.73 238.82 195.277 238.653 195.73 238.32C196.197 237.987 196.55 237.553 196.79 237.02C197.03 236.487 197.15 235.927 197.15 235.34V235.32H194.61C193.624 235.32 192.924 235.493 192.51 235.84C192.11 236.173 191.91 236.593 191.91 237.1C191.91 237.62 192.097 238.04 192.47 238.36C192.857 238.667 193.397 238.82 194.09 238.82ZM204.497 240C203.591 240 202.877 239.78 202.357 239.34C201.837 238.9 201.577 238.107 201.577 236.96V231.5H199.857V230.08H201.577L201.797 227.7H203.257V230.08H206.177V231.5H203.257V236.96C203.257 237.587 203.384 238.013 203.637 238.24C203.891 238.453 204.337 238.56 204.977 238.56H206.017V240H204.497ZM208.832 227.88C208.498 227.88 208.218 227.773 207.992 227.56C207.778 227.333 207.672 227.053 207.672 226.72C207.672 226.4 207.778 226.133 207.992 225.92C208.218 225.707 208.498 225.6 208.832 225.6C209.152 225.6 209.425 225.707 209.652 225.92C209.878 226.133 209.992 226.4 209.992 226.72C209.992 227.053 209.878 227.333 209.652 227.56C209.425 227.773 209.152 227.88 208.832 227.88ZM207.992 240V230.08H209.672V240H207.992ZM216.617 240.24C215.683 240.24 214.843 240.027 214.097 239.6C213.35 239.173 212.757 238.573 212.317 237.8C211.89 237.013 211.677 236.093 211.677 235.04C211.677 233.987 211.897 233.073 212.337 232.3C212.777 231.513 213.37 230.907 214.117 230.48C214.877 230.053 215.723 229.84 216.657 229.84C217.59 229.84 218.43 230.053 219.177 230.48C219.923 230.907 220.51 231.513 220.937 232.3C221.377 233.073 221.597 233.987 221.597 235.04C221.597 236.093 221.377 237.013 220.937 237.8C220.497 238.573 219.897 239.173 219.137 239.6C218.39 240.027 217.55 240.24 216.617 240.24ZM216.617 238.8C217.19 238.8 217.723 238.66 218.217 238.38C218.71 238.1 219.11 237.68 219.417 237.12C219.723 236.56 219.877 235.867 219.877 235.04C219.877 234.213 219.723 233.52 219.417 232.96C219.123 232.4 218.73 231.98 218.237 231.7C217.743 231.42 217.217 231.28 216.657 231.28C216.083 231.28 215.55 231.42 215.057 231.7C214.563 231.98 214.163 232.4 213.857 232.96C213.55 233.52 213.397 234.213 213.397 235.04C213.397 235.867 213.55 236.56 213.857 237.12C214.163 237.68 214.557 238.1 215.037 238.38C215.53 238.66 216.057 238.8 216.617 238.8ZM223.433 240V230.08H224.953L225.053 231.86C225.373 231.233 225.833 230.74 226.433 230.38C227.033 230.02 227.713 229.84 228.473 229.84C229.646 229.84 230.579 230.2 231.273 230.92C231.979 231.627 232.333 232.72 232.333 234.2V240H230.653V234.38C230.653 232.313 229.799 231.28 228.093 231.28C227.239 231.28 226.526 231.593 225.953 232.22C225.393 232.833 225.113 233.713 225.113 234.86V240H223.433ZM238.178 240.24C236.991 240.24 236.005 239.94 235.218 239.34C234.431 238.74 233.971 237.927 233.838 236.9H235.558C235.665 237.42 235.938 237.873 236.378 238.26C236.831 238.633 237.438 238.82 238.198 238.82C238.905 238.82 239.425 238.673 239.758 238.38C240.091 238.073 240.258 237.713 240.258 237.3C240.258 236.7 240.038 236.3 239.598 236.1C239.171 235.9 238.565 235.72 237.778 235.56C237.245 235.453 236.711 235.3 236.178 235.1C235.645 234.9 235.198 234.62 234.838 234.26C234.478 233.887 234.298 233.4 234.298 232.8C234.298 231.933 234.618 231.227 235.258 230.68C235.911 230.12 236.791 229.84 237.898 229.84C238.951 229.84 239.811 230.107 240.478 230.64C241.158 231.16 241.551 231.907 241.658 232.88H239.998C239.931 232.373 239.711 231.98 239.338 231.7C238.978 231.407 238.491 231.26 237.878 231.26C237.278 231.26 236.811 231.387 236.478 231.64C236.158 231.893 235.998 232.227 235.998 232.64C235.998 233.04 236.205 233.353 236.618 233.58C237.045 233.807 237.618 234 238.338 234.16C238.951 234.293 239.531 234.46 240.078 234.66C240.638 234.847 241.091 235.133 241.438 235.52C241.798 235.893 241.978 236.44 241.978 237.16C241.991 238.053 241.651 238.793 240.958 239.38C240.278 239.953 239.351 240.24 238.178 240.24ZM244.458 240.1C244.125 240.1 243.845 239.993 243.618 239.78C243.405 239.553 243.298 239.28 243.298 238.96C243.298 238.64 243.405 238.373 243.618 238.16C243.845 237.933 244.125 237.82 244.458 237.82C244.778 237.82 245.045 237.933 245.258 238.16C245.485 238.373 245.598 238.64 245.598 238.96C245.598 239.28 245.485 239.553 245.258 239.78C245.045 239.993 244.778 240.1 244.458 240.1ZM252.177 240V226H253.857V240H252.177ZM263.019 240L260.119 230.08H261.799L263.899 237.86L266.219 230.08H268.119L270.459 237.86L272.539 230.08H274.239L271.339 240H269.619L267.179 231.82L264.739 240H263.019ZM279.746 240.24C278.812 240.24 277.972 240.027 277.226 239.6C276.479 239.173 275.886 238.573 275.446 237.8C275.019 237.013 274.806 236.093 274.806 235.04C274.806 233.987 275.026 233.073 275.466 232.3C275.906 231.513 276.499 230.907 277.246 230.48C278.006 230.053 278.852 229.84 279.786 229.84C280.719 229.84 281.559 230.053 282.306 230.48C283.052 230.907 283.639 231.513 284.066 232.3C284.506 233.073 284.726 233.987 284.726 235.04C284.726 236.093 284.506 237.013 284.066 237.8C283.626 238.573 283.026 239.173 282.266 239.6C281.519 240.027 280.679 240.24 279.746 240.24ZM279.746 238.8C280.319 238.8 280.852 238.66 281.346 238.38C281.839 238.1 282.239 237.68 282.546 237.12C282.852 236.56 283.006 235.867 283.006 235.04C283.006 234.213 282.852 233.52 282.546 232.96C282.252 232.4 281.859 231.98 281.366 231.7C280.872 231.42 280.346 231.28 279.786 231.28C279.212 231.28 278.679 231.42 278.186 231.7C277.692 231.98 277.292 232.4 276.986 232.96C276.679 233.52 276.526 234.213 276.526 235.04C276.526 235.867 276.679 236.56 276.986 237.12C277.292 237.68 277.686 238.1 278.166 238.38C278.659 238.66 279.186 238.8 279.746 238.8ZM286.562 240V230.08H288.082L288.222 231.98C288.528 231.327 288.995 230.807 289.622 230.42C290.248 230.033 291.022 229.84 291.942 229.84V231.6H291.482C290.895 231.6 290.355 231.707 289.862 231.92C289.368 232.12 288.975 232.467 288.682 232.96C288.388 233.453 288.242 234.133 288.242 235V240H286.562ZM293.327 240V225.6H295.007V234.26L299.067 230.08H301.127L296.727 234.56L301.687 240H299.547L295.007 234.86V240H293.327ZM308.718 227.88C308.385 227.88 308.105 227.773 307.878 227.56C307.665 227.333 307.558 227.053 307.558 226.72C307.558 226.4 307.665 226.133 307.878 225.92C308.105 225.707 308.385 225.6 308.718 225.6C309.038 225.6 309.312 225.707 309.538 225.92C309.765 226.133 309.878 226.4 309.878 226.72C309.878 227.053 309.765 227.333 309.538 227.56C309.312 227.773 309.038 227.88 308.718 227.88ZM307.878 240V230.08H309.558V240H307.878ZM311.984 240V230.08H313.504L313.604 231.86C313.924 231.233 314.384 230.74 314.984 230.38C315.584 230.02 316.264 229.84 317.024 229.84C318.197 229.84 319.13 230.2 319.824 230.92C320.53 231.627 320.884 232.72 320.884 234.2V240H319.204V234.38C319.204 232.313 318.35 231.28 316.644 231.28C315.79 231.28 315.077 231.593 314.504 232.22C313.944 232.833 313.664 233.713 313.664 234.86V240H311.984ZM326.942 240L332.102 226H333.882L339.022 240H337.242L335.962 236.4H330.002L328.702 240H326.942ZM330.502 235.04H335.462L332.982 228.12L330.502 235.04ZM344.456 240.24C343.47 240.24 342.603 240.013 341.856 239.56C341.123 239.107 340.55 238.487 340.136 237.7C339.736 236.913 339.536 236.02 339.536 235.02C339.536 234.02 339.743 233.133 340.156 232.36C340.57 231.573 341.143 230.96 341.876 230.52C342.61 230.067 343.476 229.84 344.476 229.84C345.29 229.84 346.01 230.007 346.636 230.34C347.263 230.673 347.75 231.14 348.096 231.74V225.6H349.776V240H348.256L348.096 238.36C347.776 238.84 347.316 239.273 346.716 239.66C346.116 240.047 345.363 240.24 344.456 240.24ZM344.636 238.78C345.303 238.78 345.89 238.627 346.396 238.32C346.916 238 347.316 237.56 347.596 237C347.89 236.44 348.036 235.787 348.036 235.04C348.036 234.293 347.89 233.64 347.596 233.08C347.316 232.52 346.916 232.087 346.396 231.78C345.89 231.46 345.303 231.3 344.636 231.3C343.983 231.3 343.396 231.46 342.876 231.78C342.37 232.087 341.97 232.52 341.676 233.08C341.396 233.64 341.256 234.293 341.256 235.04C341.256 235.787 341.396 236.44 341.676 237C341.97 237.56 342.37 238 342.876 238.32C343.396 238.627 343.983 238.78 344.636 238.78ZM356.535 240.24C355.601 240.24 354.761 240.027 354.015 239.6C353.268 239.173 352.675 238.573 352.235 237.8C351.808 237.013 351.595 236.093 351.595 235.04C351.595 233.987 351.815 233.073 352.255 232.3C352.695 231.513 353.288 230.907 354.035 230.48C354.795 230.053 355.641 229.84 356.575 229.84C357.508 229.84 358.348 230.053 359.095 230.48C359.841 230.907 360.428 231.513 360.855 232.3C361.295 233.073 361.515 233.987 361.515 235.04C361.515 236.093 361.295 237.013 360.855 237.8C360.415 238.573 359.815 239.173 359.055 239.6C358.308 240.027 357.468 240.24 356.535 240.24ZM356.535 238.8C357.108 238.8 357.641 238.66 358.135 238.38C358.628 238.1 359.028 237.68 359.335 237.12C359.641 236.56 359.795 235.867 359.795 235.04C359.795 234.213 359.641 233.52 359.335 232.96C359.041 232.4 358.648 231.98 358.155 231.7C357.661 231.42 357.135 231.28 356.575 231.28C356.001 231.28 355.468 231.42 354.975 231.7C354.481 231.98 354.081 232.4 353.775 232.96C353.468 233.52 353.315 234.213 353.315 235.04C353.315 235.867 353.468 236.56 353.775 237.12C354.081 237.68 354.475 238.1 354.955 238.38C355.448 238.66 355.975 238.8 356.535 238.8ZM368.651 240.24C367.837 240.24 367.111 240.073 366.471 239.74C365.844 239.407 365.364 238.94 365.031 238.34L364.871 240H363.351V225.6H365.031V231.72C365.351 231.24 365.804 230.807 366.391 230.42C366.991 230.033 367.751 229.84 368.671 229.84C369.657 229.84 370.517 230.067 371.251 230.52C371.984 230.973 372.551 231.593 372.951 232.38C373.364 233.167 373.571 234.06 373.571 235.06C373.571 236.06 373.364 236.953 372.951 237.74C372.551 238.513 371.977 239.127 371.231 239.58C370.497 240.02 369.637 240.24 368.651 240.24ZM368.471 238.78C369.137 238.78 369.724 238.627 370.231 238.32C370.737 238 371.137 237.56 371.431 237C371.724 236.44 371.871 235.787 371.871 235.04C371.871 234.293 371.724 233.64 371.431 233.08C371.137 232.52 370.737 232.087 370.231 231.78C369.724 231.46 369.137 231.3 368.471 231.3C367.804 231.3 367.217 231.46 366.711 231.78C366.204 232.087 365.804 232.52 365.511 233.08C365.217 233.64 365.071 234.293 365.071 235.04C365.071 235.787 365.217 236.44 365.511 237C365.804 237.56 366.204 238 366.711 238.32C367.217 238.627 367.804 238.78 368.471 238.78ZM379.869 240.24C378.923 240.24 378.083 240.027 377.349 239.6C376.616 239.16 376.036 238.553 375.609 237.78C375.196 237.007 374.989 236.093 374.989 235.04C374.989 234 375.196 233.093 375.609 232.32C376.023 231.533 376.596 230.927 377.329 230.5C378.076 230.06 378.936 229.84 379.909 229.84C380.869 229.84 381.696 230.06 382.389 230.5C383.096 230.927 383.636 231.493 384.009 232.2C384.383 232.907 384.569 233.667 384.569 234.48C384.569 234.627 384.563 234.773 384.549 234.92C384.549 235.067 384.549 235.233 384.549 235.42H376.649C376.689 236.18 376.863 236.813 377.169 237.32C377.489 237.813 377.883 238.187 378.349 238.44C378.829 238.693 379.336 238.82 379.869 238.82C380.563 238.82 381.143 238.66 381.609 238.34C382.076 238.02 382.416 237.587 382.629 237.04H384.289C384.023 237.96 383.509 238.727 382.749 239.34C382.003 239.94 381.043 240.24 379.869 240.24ZM379.869 231.26C379.069 231.26 378.356 231.507 377.729 232C377.116 232.48 376.763 233.187 376.669 234.12H382.909C382.869 233.227 382.563 232.527 381.989 232.02C381.416 231.513 380.709 231.26 379.869 231.26ZM391.189 240V226H395.789C396.882 226 397.782 226.18 398.489 226.54C399.196 226.9 399.716 227.387 400.049 228C400.396 228.613 400.569 229.307 400.569 230.08C400.569 230.84 400.402 231.527 400.069 232.14C399.736 232.753 399.216 233.247 398.509 233.62C397.802 233.98 396.896 234.16 395.789 234.16H392.869V240H391.189ZM392.869 232.74H395.749C396.869 232.74 397.662 232.507 398.129 232.04C398.609 231.56 398.849 230.907 398.849 230.08C398.849 229.24 398.609 228.587 398.129 228.12C397.662 227.64 396.869 227.4 395.749 227.4H392.869V232.74ZM402.171 240V225.6H403.851V231.78C404.184 231.167 404.658 230.693 405.271 230.36C405.884 230.013 406.551 229.84 407.271 229.84C408.418 229.84 409.338 230.2 410.031 230.92C410.724 231.627 411.071 232.72 411.071 234.2V240H409.411V234.38C409.411 232.313 408.578 231.28 406.911 231.28C406.044 231.28 405.318 231.593 404.731 232.22C404.144 232.833 403.851 233.713 403.851 234.86V240H402.171ZM417.636 240.24C416.703 240.24 415.863 240.027 415.116 239.6C414.37 239.173 413.776 238.573 413.336 237.8C412.91 237.013 412.696 236.093 412.696 235.04C412.696 233.987 412.916 233.073 413.356 232.3C413.796 231.513 414.39 230.907 415.136 230.48C415.896 230.053 416.743 229.84 417.676 229.84C418.61 229.84 419.45 230.053 420.196 230.48C420.943 230.907 421.53 231.513 421.956 232.3C422.396 233.073 422.616 233.987 422.616 235.04C422.616 236.093 422.396 237.013 421.956 237.8C421.516 238.573 420.916 239.173 420.156 239.6C419.41 240.027 418.57 240.24 417.636 240.24ZM417.636 238.8C418.21 238.8 418.743 238.66 419.236 238.38C419.73 238.1 420.13 237.68 420.436 237.12C420.743 236.56 420.896 235.867 420.896 235.04C420.896 234.213 420.743 233.52 420.436 232.96C420.143 232.4 419.75 231.98 419.256 231.7C418.763 231.42 418.236 231.28 417.676 231.28C417.103 231.28 416.57 231.42 416.076 231.7C415.583 231.98 415.183 232.4 414.876 232.96C414.57 233.52 414.416 234.213 414.416 235.04C414.416 235.867 414.57 236.56 414.876 237.12C415.183 237.68 415.576 238.1 416.056 238.38C416.55 238.66 417.076 238.8 417.636 238.8ZM427.982 240C427.075 240 426.362 239.78 425.842 239.34C425.322 238.9 425.062 238.107 425.062 236.96V231.5H423.342V230.08H425.062L425.282 227.7H426.742V230.08H429.662V231.5H426.742V236.96C426.742 237.587 426.868 238.013 427.122 238.24C427.375 238.453 427.822 238.56 428.462 238.56H429.502V240H427.982ZM435.543 240.24C434.609 240.24 433.769 240.027 433.023 239.6C432.276 239.173 431.683 238.573 431.243 237.8C430.816 237.013 430.603 236.093 430.603 235.04C430.603 233.987 430.823 233.073 431.263 232.3C431.703 231.513 432.296 230.907 433.043 230.48C433.803 230.053 434.649 229.84 435.583 229.84C436.516 229.84 437.356 230.053 438.103 230.48C438.849 230.907 439.436 231.513 439.863 232.3C440.303 233.073 440.523 233.987 440.523 235.04C440.523 236.093 440.303 237.013 439.863 237.8C439.423 238.573 438.823 239.173 438.063 239.6C437.316 240.027 436.476 240.24 435.543 240.24ZM435.543 238.8C436.116 238.8 436.649 238.66 437.143 238.38C437.636 238.1 438.036 237.68 438.343 237.12C438.649 236.56 438.803 235.867 438.803 235.04C438.803 234.213 438.649 233.52 438.343 232.96C438.049 232.4 437.656 231.98 437.163 231.7C436.669 231.42 436.143 231.28 435.583 231.28C435.009 231.28 434.476 231.42 433.983 231.7C433.489 231.98 433.089 232.4 432.783 232.96C432.476 233.52 432.323 234.213 432.323 235.04C432.323 235.867 432.476 236.56 432.783 237.12C433.089 237.68 433.483 238.1 433.963 238.38C434.456 238.66 434.983 238.8 435.543 238.8ZM446.159 240.24C444.972 240.24 443.985 239.94 443.199 239.34C442.412 238.74 441.952 237.927 441.819 236.9H443.539C443.645 237.42 443.919 237.873 444.359 238.26C444.812 238.633 445.419 238.82 446.179 238.82C446.885 238.82 447.405 238.673 447.739 238.38C448.072 238.073 448.239 237.713 448.239 237.3C448.239 236.7 448.019 236.3 447.579 236.1C447.152 235.9 446.545 235.72 445.759 235.56C445.225 235.453 444.692 235.3 444.159 235.1C443.625 234.9 443.179 234.62 442.819 234.26C442.459 233.887 442.279 233.4 442.279 232.8C442.279 231.933 442.599 231.227 443.239 230.68C443.892 230.12 444.772 229.84 445.879 229.84C446.932 229.84 447.792 230.107 448.459 230.64C449.139 231.16 449.532 231.907 449.639 232.88H447.979C447.912 232.373 447.692 231.98 447.319 231.7C446.959 231.407 446.472 231.26 445.859 231.26C445.259 231.26 444.792 231.387 444.459 231.64C444.139 231.893 443.979 232.227 443.979 232.64C443.979 233.04 444.185 233.353 444.599 233.58C445.025 233.807 445.599 234 446.319 234.16C446.932 234.293 447.512 234.46 448.059 234.66C448.619 234.847 449.072 235.133 449.419 235.52C449.779 235.893 449.959 236.44 449.959 237.16C449.972 238.053 449.632 238.793 448.939 239.38C448.259 239.953 447.332 240.24 446.159 240.24ZM451.859 240V225.6H453.539V231.78C453.872 231.167 454.345 230.693 454.959 230.36C455.572 230.013 456.239 229.84 456.959 229.84C458.105 229.84 459.025 230.2 459.719 230.92C460.412 231.627 460.759 232.72 460.759 234.2V240H459.099V234.38C459.099 232.313 458.265 231.28 456.599 231.28C455.732 231.28 455.005 231.593 454.419 232.22C453.832 232.833 453.539 233.713 453.539 234.86V240H451.859ZM467.324 240.24C466.39 240.24 465.55 240.027 464.804 239.6C464.057 239.173 463.464 238.573 463.024 237.8C462.597 237.013 462.384 236.093 462.384 235.04C462.384 233.987 462.604 233.073 463.044 232.3C463.484 231.513 464.077 230.907 464.824 230.48C465.584 230.053 466.43 229.84 467.364 229.84C468.297 229.84 469.137 230.053 469.884 230.48C470.63 230.907 471.217 231.513 471.644 232.3C472.084 233.073 472.304 233.987 472.304 235.04C472.304 236.093 472.084 237.013 471.644 237.8C471.204 238.573 470.604 239.173 469.844 239.6C469.097 240.027 468.257 240.24 467.324 240.24ZM467.324 238.8C467.897 238.8 468.43 238.66 468.924 238.38C469.417 238.1 469.817 237.68 470.124 237.12C470.43 236.56 470.584 235.867 470.584 235.04C470.584 234.213 470.43 233.52 470.124 232.96C469.83 232.4 469.437 231.98 468.944 231.7C468.45 231.42 467.924 231.28 467.364 231.28C466.79 231.28 466.257 231.42 465.764 231.7C465.27 231.98 464.87 232.4 464.564 232.96C464.257 233.52 464.104 234.213 464.104 235.04C464.104 235.867 464.257 236.56 464.564 237.12C464.87 237.68 465.264 238.1 465.744 238.38C466.237 238.66 466.764 238.8 467.324 238.8ZM474.14 244.4V230.08H475.66L475.82 231.72C476.14 231.24 476.593 230.807 477.18 230.42C477.78 230.033 478.54 229.84 479.46 229.84C480.446 229.84 481.306 230.067 482.04 230.52C482.773 230.973 483.34 231.593 483.74 232.38C484.153 233.167 484.36 234.06 484.36 235.06C484.36 236.06 484.153 236.953 483.74 237.74C483.34 238.513 482.766 239.127 482.02 239.58C481.286 240.02 480.426 240.24 479.44 240.24C478.626 240.24 477.9 240.073 477.26 239.74C476.633 239.407 476.153 238.94 475.82 238.34V244.4H474.14ZM479.26 238.78C479.926 238.78 480.513 238.627 481.02 238.32C481.526 238 481.926 237.56 482.22 237C482.513 236.44 482.66 235.787 482.66 235.04C482.66 234.293 482.513 233.64 482.22 233.08C481.926 232.52 481.526 232.087 481.02 231.78C480.513 231.46 479.926 231.3 479.26 231.3C478.593 231.3 478.006 231.46 477.5 231.78C476.993 232.087 476.593 232.52 476.3 233.08C476.006 233.64 475.86 234.293 475.86 235.04C475.86 235.787 476.006 236.44 476.3 237C476.593 237.56 476.993 238 477.5 238.32C478.006 238.627 478.593 238.78 479.26 238.78ZM484.858 242.38L486.018 237.96H487.758L486.018 242.38H484.858ZM213.606 270L218.766 256H220.546L225.686 270H223.906L222.626 266.4H216.666L215.366 270H213.606ZM217.166 265.04H222.126L219.646 258.12L217.166 265.04ZM231.12 270.24C230.134 270.24 229.267 270.013 228.52 269.56C227.787 269.107 227.214 268.487 226.8 267.7C226.4 266.913 226.2 266.02 226.2 265.02C226.2 264.02 226.407 263.133 226.82 262.36C227.234 261.573 227.807 260.96 228.54 260.52C229.274 260.067 230.14 259.84 231.14 259.84C231.954 259.84 232.674 260.007 233.3 260.34C233.927 260.673 234.414 261.14 234.76 261.74V255.6H236.44V270H234.92L234.76 268.36C234.44 268.84 233.98 269.273 233.38 269.66C232.78 270.047 232.027 270.24 231.12 270.24ZM231.3 268.78C231.967 268.78 232.554 268.627 233.06 268.32C233.58 268 233.98 267.56 234.26 267C234.554 266.44 234.7 265.787 234.7 265.04C234.7 264.293 234.554 263.64 234.26 263.08C233.98 262.52 233.58 262.087 233.06 261.78C232.554 261.46 231.967 261.3 231.3 261.3C230.647 261.3 230.06 261.46 229.54 261.78C229.034 262.087 228.634 262.52 228.34 263.08C228.06 263.64 227.92 264.293 227.92 265.04C227.92 265.787 228.06 266.44 228.34 267C228.634 267.56 229.034 268 229.54 268.32C230.06 268.627 230.647 268.78 231.3 268.78ZM243.199 270.24C242.265 270.24 241.425 270.027 240.679 269.6C239.932 269.173 239.339 268.573 238.899 267.8C238.472 267.013 238.259 266.093 238.259 265.04C238.259 263.987 238.479 263.073 238.919 262.3C239.359 261.513 239.952 260.907 240.699 260.48C241.459 260.053 242.305 259.84 243.239 259.84C244.172 259.84 245.012 260.053 245.759 260.48C246.505 260.907 247.092 261.513 247.519 262.3C247.959 263.073 248.179 263.987 248.179 265.04C248.179 266.093 247.959 267.013 247.519 267.8C247.079 268.573 246.479 269.173 245.719 269.6C244.972 270.027 244.132 270.24 243.199 270.24ZM243.199 268.8C243.772 268.8 244.305 268.66 244.799 268.38C245.292 268.1 245.692 267.68 245.999 267.12C246.305 266.56 246.459 265.867 246.459 265.04C246.459 264.213 246.305 263.52 245.999 262.96C245.705 262.4 245.312 261.98 244.819 261.7C244.325 261.42 243.799 261.28 243.239 261.28C242.665 261.28 242.132 261.42 241.639 261.7C241.145 261.98 240.745 262.4 240.439 262.96C240.132 263.52 239.979 264.213 239.979 265.04C239.979 265.867 240.132 266.56 240.439 267.12C240.745 267.68 241.139 268.1 241.619 268.38C242.112 268.66 242.639 268.8 243.199 268.8ZM255.315 270.24C254.501 270.24 253.775 270.073 253.135 269.74C252.508 269.407 252.028 268.94 251.695 268.34L251.535 270H250.015V255.6H251.695V261.72C252.015 261.24 252.468 260.807 253.055 260.42C253.655 260.033 254.415 259.84 255.335 259.84C256.321 259.84 257.181 260.067 257.915 260.52C258.648 260.973 259.215 261.593 259.615 262.38C260.028 263.167 260.235 264.06 260.235 265.06C260.235 266.06 260.028 266.953 259.615 267.74C259.215 268.513 258.641 269.127 257.895 269.58C257.161 270.02 256.301 270.24 255.315 270.24ZM255.135 268.78C255.801 268.78 256.388 268.627 256.895 268.32C257.401 268 257.801 267.56 258.095 267C258.388 266.44 258.535 265.787 258.535 265.04C258.535 264.293 258.388 263.64 258.095 263.08C257.801 262.52 257.401 262.087 256.895 261.78C256.388 261.46 255.801 261.3 255.135 261.3C254.468 261.3 253.881 261.46 253.375 261.78C252.868 262.087 252.468 262.52 252.175 263.08C251.881 263.64 251.735 264.293 251.735 265.04C251.735 265.787 251.881 266.44 252.175 267C252.468 267.56 252.868 268 253.375 268.32C253.881 268.627 254.468 268.78 255.135 268.78ZM266.533 270.24C265.587 270.24 264.747 270.027 264.013 269.6C263.28 269.16 262.7 268.553 262.273 267.78C261.86 267.007 261.653 266.093 261.653 265.04C261.653 264 261.86 263.093 262.273 262.32C262.687 261.533 263.26 260.927 263.993 260.5C264.74 260.06 265.6 259.84 266.573 259.84C267.533 259.84 268.36 260.06 269.053 260.5C269.76 260.927 270.3 261.493 270.673 262.2C271.047 262.907 271.233 263.667 271.233 264.48C271.233 264.627 271.227 264.773 271.213 264.92C271.213 265.067 271.213 265.233 271.213 265.42H263.313C263.353 266.18 263.527 266.813 263.833 267.32C264.153 267.813 264.547 268.187 265.013 268.44C265.493 268.693 266 268.82 266.533 268.82C267.227 268.82 267.807 268.66 268.273 268.34C268.74 268.02 269.08 267.587 269.293 267.04H270.953C270.687 267.96 270.173 268.727 269.413 269.34C268.667 269.94 267.707 270.24 266.533 270.24ZM266.533 261.26C265.733 261.26 265.02 261.507 264.393 262C263.78 262.48 263.427 263.187 263.333 264.12H269.573C269.533 263.227 269.227 262.527 268.653 262.02C268.08 261.513 267.373 261.26 266.533 261.26ZM277.853 270V256H279.533V270H277.853ZM281.901 270V255.6H283.581V270H281.901ZM285.835 270V255.6H287.515V270H285.835ZM293.389 270.24C292.215 270.24 291.282 269.887 290.589 269.18C289.895 268.46 289.549 267.36 289.549 265.88V260.08H291.229V265.7C291.229 267.767 292.075 268.8 293.769 268.8C294.635 268.8 295.349 268.493 295.909 267.88C296.482 267.253 296.769 266.367 296.769 265.22V260.08H298.449V270H296.929L296.809 268.22C296.502 268.847 296.042 269.34 295.429 269.7C294.829 270.06 294.149 270.24 293.389 270.24ZM304.514 270.24C303.327 270.24 302.341 269.94 301.554 269.34C300.767 268.74 300.307 267.927 300.174 266.9H301.894C302.001 267.42 302.274 267.873 302.714 268.26C303.167 268.633 303.774 268.82 304.534 268.82C305.241 268.82 305.761 268.673 306.094 268.38C306.427 268.073 306.594 267.713 306.594 267.3C306.594 266.7 306.374 266.3 305.934 266.1C305.507 265.9 304.901 265.72 304.114 265.56C303.581 265.453 303.047 265.3 302.514 265.1C301.981 264.9 301.534 264.62 301.174 264.26C300.814 263.887 300.634 263.4 300.634 262.8C300.634 261.933 300.954 261.227 301.594 260.68C302.247 260.12 303.127 259.84 304.234 259.84C305.287 259.84 306.147 260.107 306.814 260.64C307.494 261.16 307.887 261.907 307.994 262.88H306.334C306.267 262.373 306.047 261.98 305.674 261.7C305.314 261.407 304.827 261.26 304.214 261.26C303.614 261.26 303.147 261.387 302.814 261.64C302.494 261.893 302.334 262.227 302.334 262.64C302.334 263.04 302.541 263.353 302.954 263.58C303.381 263.807 303.954 264 304.674 264.16C305.287 264.293 305.867 264.46 306.414 264.66C306.974 264.847 307.427 265.133 307.774 265.52C308.134 265.893 308.314 266.44 308.314 267.16C308.327 268.053 307.987 268.793 307.294 269.38C306.614 269.953 305.687 270.24 304.514 270.24ZM313.685 270C312.778 270 312.065 269.78 311.545 269.34C311.025 268.9 310.765 268.107 310.765 266.96V261.5H309.045V260.08H310.765L310.985 257.7H312.445V260.08H315.365V261.5H312.445V266.96C312.445 267.587 312.571 268.013 312.825 268.24C313.078 268.453 313.525 268.56 314.165 268.56H315.205V270H313.685ZM316.999 270V260.08H318.519L318.659 261.98C318.966 261.327 319.432 260.807 320.059 260.42C320.686 260.033 321.459 259.84 322.379 259.84V261.6H321.919C321.332 261.6 320.792 261.707 320.299 261.92C319.806 262.12 319.412 262.467 319.119 262.96C318.826 263.453 318.679 264.133 318.679 265V270H316.999ZM327.065 270.24C326.238 270.24 325.551 270.1 325.005 269.82C324.458 269.54 324.051 269.167 323.785 268.7C323.518 268.233 323.385 267.727 323.385 267.18C323.385 266.167 323.771 265.387 324.545 264.84C325.318 264.293 326.371 264.02 327.705 264.02H330.385V263.9C330.385 263.033 330.158 262.38 329.705 261.94C329.251 261.487 328.645 261.26 327.885 261.26C327.231 261.26 326.665 261.427 326.185 261.76C325.718 262.08 325.425 262.553 325.305 263.18H323.585C323.651 262.46 323.891 261.853 324.305 261.36C324.731 260.867 325.258 260.493 325.885 260.24C326.511 259.973 327.178 259.84 327.885 259.84C329.271 259.84 330.311 260.213 331.005 260.96C331.711 261.693 332.065 262.673 332.065 263.9V270H330.565L330.465 268.22C330.185 268.78 329.771 269.26 329.225 269.66C328.691 270.047 327.971 270.24 327.065 270.24ZM327.325 268.82C327.965 268.82 328.511 268.653 328.965 268.32C329.431 267.987 329.785 267.553 330.025 267.02C330.265 266.487 330.385 265.927 330.385 265.34V265.32H327.845C326.858 265.32 326.158 265.493 325.745 265.84C325.345 266.173 325.145 266.593 325.145 267.1C325.145 267.62 325.331 268.04 325.705 268.36C326.091 268.667 326.631 268.82 327.325 268.82ZM337.732 270C336.825 270 336.112 269.78 335.592 269.34C335.072 268.9 334.812 268.107 334.812 266.96V261.5H333.092V260.08H334.812L335.032 257.7H336.492V260.08H339.412V261.5H336.492V266.96C336.492 267.587 336.618 268.013 336.872 268.24C337.125 268.453 337.572 268.56 338.212 268.56H339.252V270H337.732ZM345.293 270.24C344.359 270.24 343.519 270.027 342.773 269.6C342.026 269.173 341.433 268.573 340.993 267.8C340.566 267.013 340.353 266.093 340.353 265.04C340.353 263.987 340.573 263.073 341.013 262.3C341.453 261.513 342.046 260.907 342.793 260.48C343.553 260.053 344.399 259.84 345.333 259.84C346.266 259.84 347.106 260.053 347.853 260.48C348.599 260.907 349.186 261.513 349.613 262.3C350.053 263.073 350.273 263.987 350.273 265.04C350.273 266.093 350.053 267.013 349.613 267.8C349.173 268.573 348.573 269.173 347.813 269.6C347.066 270.027 346.226 270.24 345.293 270.24ZM345.293 268.8C345.866 268.8 346.399 268.66 346.893 268.38C347.386 268.1 347.786 267.68 348.093 267.12C348.399 266.56 348.553 265.867 348.553 265.04C348.553 264.213 348.399 263.52 348.093 262.96C347.799 262.4 347.406 261.98 346.913 261.7C346.419 261.42 345.893 261.28 345.333 261.28C344.759 261.28 344.226 261.42 343.733 261.7C343.239 261.98 342.839 262.4 342.533 262.96C342.226 263.52 342.073 264.213 342.073 265.04C342.073 265.867 342.226 266.56 342.533 267.12C342.839 267.68 343.233 268.1 343.713 268.38C344.206 268.66 344.733 268.8 345.293 268.8ZM352.109 270V260.08H353.629L353.769 261.98C354.075 261.327 354.542 260.807 355.169 260.42C355.795 260.033 356.569 259.84 357.489 259.84V261.6H357.029C356.442 261.6 355.902 261.707 355.409 261.92C354.915 262.12 354.522 262.467 354.229 262.96C353.935 263.453 353.789 264.133 353.789 265V270H352.109Z" fill="#171718"/>
<path d="M208.192 143V108H220.142C224.242 108 227.609 108.733 230.242 110.2C232.909 111.633 234.875 113.667 236.142 116.3C237.442 118.9 238.092 121.967 238.092 125.5C238.092 129.033 237.442 132.117 236.142 134.75C234.875 137.35 232.909 139.383 230.242 140.85C227.609 142.283 224.242 143 220.142 143H208.192ZM214.592 137.5H219.842C222.775 137.5 225.092 137.033 226.792 136.1C228.492 135.133 229.709 133.767 230.442 132C231.175 130.2 231.542 128.033 231.542 125.5C231.542 123 231.175 120.85 230.442 119.05C229.709 117.25 228.492 115.867 226.792 114.9C225.092 113.933 222.775 113.45 219.842 113.45H214.592V137.5ZM255.139 143.6C252.639 143.6 250.422 143.067 248.489 142C246.556 140.933 245.039 139.433 243.939 137.5C242.839 135.567 242.289 133.333 242.289 130.8C242.289 128.233 242.822 125.95 243.889 123.95C244.989 121.95 246.489 120.4 248.389 119.3C250.322 118.167 252.589 117.6 255.189 117.6C257.622 117.6 259.772 118.133 261.639 119.2C263.506 120.267 264.956 121.733 265.989 123.6C267.056 125.433 267.589 127.483 267.589 129.75C267.589 130.117 267.572 130.5 267.539 130.9C267.539 131.3 267.522 131.717 267.489 132.15H248.639C248.772 134.083 249.439 135.6 250.639 136.7C251.872 137.8 253.356 138.35 255.089 138.35C256.389 138.35 257.472 138.067 258.339 137.5C259.239 136.9 259.906 136.133 260.339 135.2H266.839C266.372 136.767 265.589 138.2 264.489 139.5C263.422 140.767 262.089 141.767 260.489 142.5C258.922 143.233 257.139 143.6 255.139 143.6ZM255.189 122.8C253.622 122.8 252.239 123.25 251.039 124.15C249.839 125.017 249.072 126.35 248.739 128.15H261.089C260.989 126.517 260.389 125.217 259.289 124.25C258.189 123.283 256.822 122.8 255.189 122.8ZM282.722 143.6C280.522 143.6 278.588 143.25 276.922 142.55C275.255 141.817 273.922 140.817 272.922 139.55C271.922 138.283 271.322 136.817 271.122 135.15H277.572C277.772 136.117 278.305 136.95 279.172 137.65C280.072 138.317 281.222 138.65 282.622 138.65C284.022 138.65 285.038 138.367 285.672 137.8C286.338 137.233 286.672 136.583 286.672 135.85C286.672 134.783 286.205 134.067 285.272 133.7C284.338 133.3 283.038 132.917 281.372 132.55C280.305 132.317 279.222 132.033 278.122 131.7C277.022 131.367 276.005 130.95 275.072 130.45C274.172 129.917 273.438 129.25 272.872 128.45C272.305 127.617 272.022 126.6 272.022 125.4C272.022 123.2 272.888 121.35 274.622 119.85C276.388 118.35 278.855 117.6 282.022 117.6C284.955 117.6 287.288 118.283 289.022 119.65C290.788 121.017 291.838 122.9 292.172 125.3H286.122C285.755 123.467 284.372 122.55 281.972 122.55C280.772 122.55 279.838 122.783 279.172 123.25C278.538 123.717 278.222 124.3 278.222 125C278.222 125.733 278.705 126.317 279.672 126.75C280.638 127.183 281.922 127.583 283.522 127.95C285.255 128.35 286.838 128.8 288.272 129.3C289.738 129.767 290.905 130.483 291.772 131.45C292.638 132.383 293.072 133.733 293.072 135.5C293.105 137.033 292.705 138.417 291.872 139.65C291.038 140.883 289.838 141.85 288.272 142.55C286.705 143.25 284.855 143.6 282.722 143.6ZM301.691 114.35C300.525 114.35 299.558 114 298.791 113.3C298.058 112.6 297.691 111.717 297.691 110.65C297.691 109.583 298.058 108.717 298.791 108.05C299.558 107.35 300.525 107 301.691 107C302.858 107 303.808 107.35 304.541 108.05C305.308 108.717 305.691 109.583 305.691 110.65C305.691 111.717 305.308 112.6 304.541 113.3C303.808 114 302.858 114.35 301.691 114.35ZM298.491 143V118.2H304.891V143H298.491ZM321.571 135.6C320.371 135.6 319.255 135.467 318.221 135.2L316.371 137.05C316.938 137.35 317.705 137.6 318.671 137.8C319.638 138 321.205 138.2 323.371 138.4C326.671 138.7 329.071 139.483 330.571 140.75C332.071 142.017 332.821 143.767 332.821 146C332.821 147.467 332.421 148.85 331.621 150.15C330.821 151.483 329.588 152.55 327.921 153.35C326.255 154.183 324.121 154.6 321.521 154.6C317.988 154.6 315.138 153.933 312.971 152.6C310.805 151.3 309.721 149.333 309.721 146.7C309.721 144.467 310.805 142.533 312.971 140.9C312.305 140.6 311.721 140.283 311.221 139.95C310.755 139.617 310.338 139.267 309.971 138.9V137.75L314.321 133.15C312.388 131.45 311.421 129.267 311.421 126.6C311.421 124.933 311.821 123.417 312.621 122.05C313.455 120.683 314.621 119.6 316.121 118.8C317.621 118 319.438 117.6 321.571 117.6C322.971 117.6 324.271 117.8 325.471 118.2H334.871V122.1L330.621 122.4C331.288 123.667 331.621 125.067 331.621 126.6C331.621 128.267 331.221 129.783 330.421 131.15C329.621 132.517 328.455 133.6 326.921 134.4C325.421 135.2 323.638 135.6 321.571 135.6ZM321.571 130.7C322.871 130.7 323.938 130.35 324.771 129.65C325.638 128.95 326.071 127.95 326.071 126.65C326.071 125.35 325.638 124.35 324.771 123.65C323.938 122.95 322.871 122.6 321.571 122.6C320.205 122.6 319.105 122.95 318.271 123.65C317.438 124.35 317.021 125.35 317.021 126.65C317.021 127.95 317.438 128.95 318.271 129.65C319.105 130.35 320.205 130.7 321.571 130.7ZM315.571 146.05C315.571 147.283 316.138 148.2 317.271 148.8C318.438 149.433 319.855 149.75 321.521 149.75C323.121 149.75 324.421 149.417 325.421 148.75C326.421 148.117 326.921 147.25 326.921 146.15C326.921 145.25 326.588 144.5 325.921 143.9C325.288 143.3 324.005 142.933 322.071 142.8C320.705 142.7 319.438 142.55 318.271 142.35C317.305 142.883 316.605 143.467 316.171 144.1C315.771 144.733 315.571 145.383 315.571 146.05ZM339.038 143V118.2H344.688L345.188 122.4C345.955 120.933 347.055 119.767 348.488 118.9C349.955 118.033 351.671 117.6 353.638 117.6C356.705 117.6 359.088 118.567 360.788 120.5C362.488 122.433 363.338 125.267 363.338 129V143H356.938V129.6C356.938 127.467 356.505 125.833 355.638 124.7C354.771 123.567 353.421 123 351.588 123C349.788 123 348.305 123.633 347.138 124.9C346.005 126.167 345.438 127.933 345.438 130.2V143H339.038Z" fill="#171718"/>
</svg>
