<svg width="571" height="371" viewBox="0 0 571 371" fill="none" xmlns="http://www.w3.org/2000/svg">
<rect width="571" height="371" rx="10" fill="#FD84FF" fill-opacity="0.4"/>
<path d="M95.5966 210.24C94.2232 210.24 93.0366 209.94 92.0366 209.34C91.0499 208.727 90.2832 207.88 89.7366 206.8C89.1899 205.707 88.9166 204.44 88.9166 203C88.9166 201.573 89.1899 200.32 89.7366 199.24C90.2832 198.147 91.0499 197.293 92.0366 196.68C93.0366 196.067 94.2232 195.76 95.5966 195.76C97.1966 195.76 98.4966 196.147 99.4966 196.92C100.51 197.68 101.157 198.747 101.437 200.12H99.5766C99.3632 199.253 98.9232 198.56 98.2566 198.04C97.6032 197.507 96.7166 197.24 95.5966 197.24C94.5966 197.24 93.7232 197.473 92.9766 197.94C92.2299 198.393 91.6499 199.053 91.2366 199.92C90.8366 200.773 90.6366 201.8 90.6366 203C90.6366 204.2 90.8366 205.233 91.2366 206.1C91.6499 206.953 92.2299 207.613 92.9766 208.08C93.7232 208.533 94.5966 208.76 95.5966 208.76C96.7166 208.76 97.6032 208.507 98.2566 208C98.9232 207.48 99.3632 206.793 99.5766 205.94H101.437C101.157 207.287 100.51 208.34 99.4966 209.1C98.4966 209.86 97.1966 210.24 95.5966 210.24ZM107.771 210.24C106.838 210.24 105.998 210.027 105.251 209.6C104.504 209.173 103.911 208.573 103.471 207.8C103.044 207.013 102.831 206.093 102.831 205.04C102.831 203.987 103.051 203.073 103.491 202.3C103.931 201.513 104.524 200.907 105.271 200.48C106.031 200.053 106.878 199.84 107.811 199.84C108.744 199.84 109.584 200.053 110.331 200.48C111.078 200.907 111.664 201.513 112.091 202.3C112.531 203.073 112.751 203.987 112.751 205.04C112.751 206.093 112.531 207.013 112.091 207.8C111.651 208.573 111.051 209.173 110.291 209.6C109.544 210.027 108.704 210.24 107.771 210.24ZM107.771 208.8C108.344 208.8 108.878 208.66 109.371 208.38C109.864 208.1 110.264 207.68 110.571 207.12C110.878 206.56 111.031 205.867 111.031 205.04C111.031 204.213 110.878 203.52 110.571 202.96C110.278 202.4 109.884 201.98 109.391 201.7C108.898 201.42 108.371 201.28 107.811 201.28C107.238 201.28 106.704 201.42 106.211 201.7C105.718 201.98 105.318 202.4 105.011 202.96C104.704 203.52 104.551 204.213 104.551 205.04C104.551 205.867 104.704 206.56 105.011 207.12C105.318 207.68 105.711 208.1 106.191 208.38C106.684 208.66 107.211 208.8 107.771 208.8ZM114.587 210V200.08H116.107L116.207 201.86C116.527 201.233 116.987 200.74 117.587 200.38C118.187 200.02 118.867 199.84 119.627 199.84C120.8 199.84 121.734 200.2 122.427 200.92C123.134 201.627 123.487 202.72 123.487 204.2V210H121.807V204.38C121.807 202.313 120.954 201.28 119.247 201.28C118.394 201.28 117.68 201.593 117.107 202.22C116.547 202.833 116.267 203.713 116.267 204.86V210H114.587ZM130.032 210.24C129.046 210.24 128.179 210.013 127.432 209.56C126.699 209.107 126.126 208.487 125.712 207.7C125.312 206.913 125.112 206.02 125.112 205.02C125.112 204.02 125.319 203.133 125.732 202.36C126.146 201.573 126.719 200.96 127.452 200.52C128.186 200.067 129.052 199.84 130.052 199.84C130.866 199.84 131.586 200.007 132.212 200.34C132.839 200.673 133.326 201.14 133.672 201.74V195.6H135.352V210H133.832L133.672 208.36C133.352 208.84 132.892 209.273 132.292 209.66C131.692 210.047 130.939 210.24 130.032 210.24ZM130.212 208.78C130.879 208.78 131.466 208.627 131.972 208.32C132.492 208 132.892 207.56 133.172 207C133.466 206.44 133.612 205.787 133.612 205.04C133.612 204.293 133.466 203.64 133.172 203.08C132.892 202.52 132.492 202.087 131.972 201.78C131.466 201.46 130.879 201.3 130.212 201.3C129.559 201.3 128.972 201.46 128.452 201.78C127.946 202.087 127.546 202.52 127.252 203.08C126.972 203.64 126.832 204.293 126.832 205.04C126.832 205.787 126.972 206.44 127.252 207C127.546 207.56 127.946 208 128.452 208.32C128.972 208.627 129.559 208.78 130.212 208.78ZM141.211 210.24C140.038 210.24 139.104 209.887 138.411 209.18C137.718 208.46 137.371 207.36 137.371 205.88V200.08H139.051V205.7C139.051 207.767 139.898 208.8 141.591 208.8C142.458 208.8 143.171 208.493 143.731 207.88C144.304 207.253 144.591 206.367 144.591 205.22V200.08H146.271V210H144.751L144.631 208.22C144.324 208.847 143.864 209.34 143.251 209.7C142.651 210.06 141.971 210.24 141.211 210.24ZM153.096 210.24C152.15 210.24 151.296 210.027 150.536 209.6C149.79 209.16 149.196 208.553 148.756 207.78C148.33 206.993 148.116 206.08 148.116 205.04C148.116 204 148.33 203.093 148.756 202.32C149.196 201.533 149.79 200.927 150.536 200.5C151.296 200.06 152.15 199.84 153.096 199.84C154.27 199.84 155.256 200.147 156.056 200.76C156.87 201.373 157.383 202.193 157.596 203.22H155.876C155.743 202.607 155.416 202.133 154.896 201.8C154.376 201.453 153.77 201.28 153.076 201.28C152.516 201.28 151.99 201.42 151.496 201.7C151.003 201.98 150.603 202.4 150.296 202.96C149.99 203.52 149.836 204.213 149.836 205.04C149.836 205.867 149.99 206.56 150.296 207.12C150.603 207.68 151.003 208.107 151.496 208.4C151.99 208.68 152.516 208.82 153.076 208.82C153.77 208.82 154.376 208.653 154.896 208.32C155.416 207.973 155.743 207.487 155.876 206.86H157.596C157.396 207.86 156.89 208.673 156.076 209.3C155.263 209.927 154.27 210.24 153.096 210.24ZM163.089 210C162.182 210 161.469 209.78 160.949 209.34C160.429 208.9 160.169 208.107 160.169 206.96V201.5H158.449V200.08H160.169L160.389 197.7H161.849V200.08H164.769V201.5H161.849V206.96C161.849 207.587 161.976 208.013 162.229 208.24C162.482 208.453 162.929 208.56 163.569 208.56H164.609V210H163.089ZM167.423 197.88C167.09 197.88 166.81 197.773 166.583 197.56C166.37 197.333 166.263 197.053 166.263 196.72C166.263 196.4 166.37 196.133 166.583 195.92C166.81 195.707 167.09 195.6 167.423 195.6C167.743 195.6 168.017 195.707 168.243 195.92C168.47 196.133 168.583 196.4 168.583 196.72C168.583 197.053 168.47 197.333 168.243 197.56C168.017 197.773 167.743 197.88 167.423 197.88ZM166.583 210V200.08H168.263V210H166.583ZM170.689 210V200.08H172.209L172.309 201.86C172.629 201.233 173.089 200.74 173.689 200.38C174.289 200.02 174.969 199.84 175.729 199.84C176.902 199.84 177.835 200.2 178.529 200.92C179.235 201.627 179.589 202.72 179.589 204.2V210H177.909V204.38C177.909 202.313 177.055 201.28 175.349 201.28C174.495 201.28 173.782 201.593 173.209 202.22C172.649 202.833 172.369 203.713 172.369 204.86V210H170.689ZM185.554 206.88C184.994 206.88 184.481 206.807 184.014 206.66L183.014 207.6C183.161 207.707 183.341 207.8 183.554 207.88C183.781 207.947 184.101 208.013 184.514 208.08C184.927 208.133 185.507 208.193 186.254 208.26C187.587 208.353 188.541 208.66 189.114 209.18C189.687 209.7 189.974 210.38 189.974 211.22C189.974 211.793 189.814 212.34 189.494 212.86C189.187 213.38 188.707 213.807 188.054 214.14C187.414 214.473 186.587 214.64 185.574 214.64C184.681 214.64 183.887 214.52 183.194 214.28C182.501 214.053 181.961 213.7 181.574 213.22C181.187 212.753 180.994 212.16 180.994 211.44C180.994 211.067 181.094 210.66 181.294 210.22C181.494 209.793 181.867 209.387 182.414 209C182.121 208.88 181.867 208.753 181.654 208.62C181.454 208.473 181.267 208.313 181.094 208.14V207.68L182.794 206C182.007 205.333 181.614 204.453 181.614 203.36C181.614 202.707 181.767 202.113 182.074 201.58C182.381 201.047 182.827 200.627 183.414 200.32C184.001 200 184.714 199.84 185.554 199.84C186.127 199.84 186.647 199.92 187.114 200.08H190.774V201.34L188.914 201.42C189.301 201.98 189.494 202.627 189.494 203.36C189.494 204.013 189.334 204.607 189.014 205.14C188.707 205.673 188.261 206.1 187.674 206.42C187.101 206.727 186.394 206.88 185.554 206.88ZM185.554 205.5C186.261 205.5 186.821 205.32 187.234 204.96C187.661 204.587 187.874 204.053 187.874 203.36C187.874 202.68 187.661 202.16 187.234 201.8C186.821 201.427 186.261 201.24 185.554 201.24C184.834 201.24 184.261 201.427 183.834 201.8C183.421 202.16 183.214 202.68 183.214 203.36C183.214 204.053 183.421 204.587 183.834 204.96C184.261 205.32 184.834 205.5 185.554 205.5ZM182.634 211.28C182.634 211.947 182.914 212.44 183.474 212.76C184.034 213.093 184.734 213.26 185.574 213.26C186.401 213.26 187.061 213.08 187.554 212.72C188.061 212.36 188.314 211.88 188.314 211.28C188.314 210.853 188.141 210.48 187.794 210.16C187.447 209.853 186.807 209.673 185.874 209.62C185.141 209.567 184.507 209.5 183.974 209.42C183.427 209.713 183.067 210.027 182.894 210.36C182.721 210.707 182.634 211.013 182.634 211.28ZM200.262 210.24C199.435 210.24 198.749 210.1 198.202 209.82C197.655 209.54 197.249 209.167 196.982 208.7C196.715 208.233 196.582 207.727 196.582 207.18C196.582 206.167 196.969 205.387 197.742 204.84C198.515 204.293 199.569 204.02 200.902 204.02H203.582V203.9C203.582 203.033 203.355 202.38 202.902 201.94C202.449 201.487 201.842 201.26 201.082 201.26C200.429 201.26 199.862 201.427 199.382 201.76C198.915 202.08 198.622 202.553 198.502 203.18H196.782C196.849 202.46 197.089 201.853 197.502 201.36C197.929 200.867 198.455 200.493 199.082 200.24C199.709 199.973 200.375 199.84 201.082 199.84C202.469 199.84 203.509 200.213 204.202 200.96C204.909 201.693 205.262 202.673 205.262 203.9V210H203.762L203.662 208.22C203.382 208.78 202.969 209.26 202.422 209.66C201.889 210.047 201.169 210.24 200.262 210.24ZM200.522 208.82C201.162 208.82 201.709 208.653 202.162 208.32C202.629 207.987 202.982 207.553 203.222 207.02C203.462 206.487 203.582 205.927 203.582 205.34V205.32H201.042C200.055 205.32 199.355 205.493 198.942 205.84C198.542 206.173 198.342 206.593 198.342 207.1C198.342 207.62 198.529 208.04 198.902 208.36C199.289 208.667 199.829 208.82 200.522 208.82ZM212.075 214.4V200.08H213.595L213.755 201.72C214.075 201.24 214.529 200.807 215.115 200.42C215.715 200.033 216.475 199.84 217.395 199.84C218.382 199.84 219.242 200.067 219.975 200.52C220.709 200.973 221.275 201.593 221.675 202.38C222.089 203.167 222.295 204.06 222.295 205.06C222.295 206.06 222.089 206.953 221.675 207.74C221.275 208.513 220.702 209.127 219.955 209.58C219.222 210.02 218.362 210.24 217.375 210.24C216.562 210.24 215.835 210.073 215.195 209.74C214.569 209.407 214.089 208.94 213.755 208.34V214.4H212.075ZM217.195 208.78C217.862 208.78 218.449 208.627 218.955 208.32C219.462 208 219.862 207.56 220.155 207C220.449 206.44 220.595 205.787 220.595 205.04C220.595 204.293 220.449 203.64 220.155 203.08C219.862 202.52 219.462 202.087 218.955 201.78C218.449 201.46 217.862 201.3 217.195 201.3C216.529 201.3 215.942 201.46 215.435 201.78C214.929 202.087 214.529 202.52 214.235 203.08C213.942 203.64 213.795 204.293 213.795 205.04C213.795 205.787 213.942 206.44 214.235 207C214.529 207.56 214.929 208 215.435 208.32C215.942 208.627 216.529 208.78 217.195 208.78ZM224.134 210V195.6H225.814V201.78C226.147 201.167 226.621 200.693 227.234 200.36C227.847 200.013 228.514 199.84 229.234 199.84C230.381 199.84 231.301 200.2 231.994 200.92C232.687 201.627 233.034 202.72 233.034 204.2V210H231.374V204.38C231.374 202.313 230.541 201.28 228.874 201.28C228.007 201.28 227.281 201.593 226.694 202.22C226.107 202.833 225.814 203.713 225.814 204.86V210H224.134ZM239.599 210.24C238.666 210.24 237.826 210.027 237.079 209.6C236.333 209.173 235.739 208.573 235.299 207.8C234.873 207.013 234.659 206.093 234.659 205.04C234.659 203.987 234.879 203.073 235.319 202.3C235.759 201.513 236.353 200.907 237.099 200.48C237.859 200.053 238.706 199.84 239.639 199.84C240.573 199.84 241.413 200.053 242.159 200.48C242.906 200.907 243.493 201.513 243.919 202.3C244.359 203.073 244.579 203.987 244.579 205.04C244.579 206.093 244.359 207.013 243.919 207.8C243.479 208.573 242.879 209.173 242.119 209.6C241.373 210.027 240.533 210.24 239.599 210.24ZM239.599 208.8C240.173 208.8 240.706 208.66 241.199 208.38C241.693 208.1 242.093 207.68 242.399 207.12C242.706 206.56 242.859 205.867 242.859 205.04C242.859 204.213 242.706 203.52 242.399 202.96C242.106 202.4 241.713 201.98 241.219 201.7C240.726 201.42 240.199 201.28 239.639 201.28C239.066 201.28 238.533 201.42 238.039 201.7C237.546 201.98 237.146 202.4 236.839 202.96C236.533 203.52 236.379 204.213 236.379 205.04C236.379 205.867 236.533 206.56 236.839 207.12C237.146 207.68 237.539 208.1 238.019 208.38C238.513 208.66 239.039 208.8 239.599 208.8ZM249.945 210C249.038 210 248.325 209.78 247.805 209.34C247.285 208.9 247.025 208.107 247.025 206.96V201.5H245.305V200.08H247.025L247.245 197.7H248.705V200.08H251.625V201.5H248.705V206.96C248.705 207.587 248.831 208.013 249.085 208.24C249.338 208.453 249.785 208.56 250.425 208.56H251.465V210H249.945ZM257.505 210.24C256.572 210.24 255.732 210.027 254.985 209.6C254.239 209.173 253.645 208.573 253.205 207.8C252.779 207.013 252.565 206.093 252.565 205.04C252.565 203.987 252.785 203.073 253.225 202.3C253.665 201.513 254.259 200.907 255.005 200.48C255.765 200.053 256.612 199.84 257.545 199.84C258.479 199.84 259.319 200.053 260.065 200.48C260.812 200.907 261.399 201.513 261.825 202.3C262.265 203.073 262.485 203.987 262.485 205.04C262.485 206.093 262.265 207.013 261.825 207.8C261.385 208.573 260.785 209.173 260.025 209.6C259.279 210.027 258.439 210.24 257.505 210.24ZM257.505 208.8C258.079 208.8 258.612 208.66 259.105 208.38C259.599 208.1 259.999 207.68 260.305 207.12C260.612 206.56 260.765 205.867 260.765 205.04C260.765 204.213 260.612 203.52 260.305 202.96C260.012 202.4 259.619 201.98 259.125 201.7C258.632 201.42 258.105 201.28 257.545 201.28C256.972 201.28 256.439 201.42 255.945 201.7C255.452 201.98 255.052 202.4 254.745 202.96C254.439 203.52 254.285 204.213 254.285 205.04C254.285 205.867 254.439 206.56 254.745 207.12C255.052 207.68 255.445 208.1 255.925 208.38C256.419 208.66 256.945 208.8 257.505 208.8ZM268.121 210.24C266.935 210.24 265.948 209.94 265.161 209.34C264.375 208.74 263.915 207.927 263.781 206.9H265.501C265.608 207.42 265.881 207.873 266.321 208.26C266.775 208.633 267.381 208.82 268.141 208.82C268.848 208.82 269.368 208.673 269.701 208.38C270.035 208.073 270.201 207.713 270.201 207.3C270.201 206.7 269.981 206.3 269.541 206.1C269.115 205.9 268.508 205.72 267.721 205.56C267.188 205.453 266.655 205.3 266.121 205.1C265.588 204.9 265.141 204.62 264.781 204.26C264.421 203.887 264.241 203.4 264.241 202.8C264.241 201.933 264.561 201.227 265.201 200.68C265.855 200.12 266.735 199.84 267.841 199.84C268.895 199.84 269.755 200.107 270.421 200.64C271.101 201.16 271.495 201.907 271.601 202.88H269.941C269.875 202.373 269.655 201.98 269.281 201.7C268.921 201.407 268.435 201.26 267.821 201.26C267.221 201.26 266.755 201.387 266.421 201.64C266.101 201.893 265.941 202.227 265.941 202.64C265.941 203.04 266.148 203.353 266.561 203.58C266.988 203.807 267.561 204 268.281 204.16C268.895 204.293 269.475 204.46 270.021 204.66C270.581 204.847 271.035 205.133 271.381 205.52C271.741 205.893 271.921 206.44 271.921 207.16C271.935 208.053 271.595 208.793 270.901 209.38C270.221 209.953 269.295 210.24 268.121 210.24ZM273.821 210V195.6H275.501V201.78C275.835 201.167 276.308 200.693 276.921 200.36C277.535 200.013 278.201 199.84 278.921 199.84C280.068 199.84 280.988 200.2 281.681 200.92C282.375 201.627 282.721 202.72 282.721 204.2V210H281.061V204.38C281.061 202.313 280.228 201.28 278.561 201.28C277.695 201.28 276.968 201.593 276.381 202.22C275.795 202.833 275.501 203.713 275.501 204.86V210H273.821ZM289.287 210.24C288.353 210.24 287.513 210.027 286.767 209.6C286.02 209.173 285.427 208.573 284.987 207.8C284.56 207.013 284.347 206.093 284.347 205.04C284.347 203.987 284.567 203.073 285.007 202.3C285.447 201.513 286.04 200.907 286.787 200.48C287.547 200.053 288.393 199.84 289.327 199.84C290.26 199.84 291.1 200.053 291.847 200.48C292.593 200.907 293.18 201.513 293.607 202.3C294.047 203.073 294.267 203.987 294.267 205.04C294.267 206.093 294.047 207.013 293.607 207.8C293.167 208.573 292.567 209.173 291.807 209.6C291.06 210.027 290.22 210.24 289.287 210.24ZM289.287 208.8C289.86 208.8 290.393 208.66 290.887 208.38C291.38 208.1 291.78 207.68 292.087 207.12C292.393 206.56 292.547 205.867 292.547 205.04C292.547 204.213 292.393 203.52 292.087 202.96C291.793 202.4 291.4 201.98 290.907 201.7C290.413 201.42 289.887 201.28 289.327 201.28C288.753 201.28 288.22 201.42 287.727 201.7C287.233 201.98 286.833 202.4 286.527 202.96C286.22 203.52 286.067 204.213 286.067 205.04C286.067 205.867 286.22 206.56 286.527 207.12C286.833 207.68 287.227 208.1 287.707 208.38C288.2 208.66 288.727 208.8 289.287 208.8ZM300.623 210.24C299.689 210.24 298.849 210.027 298.103 209.6C297.356 209.173 296.763 208.573 296.323 207.8C295.896 207.013 295.683 206.093 295.683 205.04C295.683 203.987 295.903 203.073 296.343 202.3C296.783 201.513 297.376 200.907 298.123 200.48C298.883 200.053 299.729 199.84 300.663 199.84C301.596 199.84 302.436 200.053 303.183 200.48C303.929 200.907 304.516 201.513 304.943 202.3C305.383 203.073 305.603 203.987 305.603 205.04C305.603 206.093 305.383 207.013 304.943 207.8C304.503 208.573 303.903 209.173 303.143 209.6C302.396 210.027 301.556 210.24 300.623 210.24ZM300.623 208.8C301.196 208.8 301.729 208.66 302.223 208.38C302.716 208.1 303.116 207.68 303.423 207.12C303.729 206.56 303.883 205.867 303.883 205.04C303.883 204.213 303.729 203.52 303.423 202.96C303.129 202.4 302.736 201.98 302.243 201.7C301.749 201.42 301.223 201.28 300.663 201.28C300.089 201.28 299.556 201.42 299.063 201.7C298.569 201.98 298.169 202.4 297.863 202.96C297.556 203.52 297.403 204.213 297.403 205.04C297.403 205.867 297.556 206.56 297.863 207.12C298.169 207.68 298.563 208.1 299.043 208.38C299.536 208.66 300.063 208.8 300.623 208.8ZM310.968 210C310.061 210 309.348 209.78 308.828 209.34C308.308 208.9 308.048 208.107 308.048 206.96V201.5H306.328V200.08H308.048L308.268 197.7H309.728V200.08H312.648V201.5H309.728V206.96C309.728 207.587 309.855 208.013 310.108 208.24C310.361 208.453 310.808 208.56 311.448 208.56H312.488V210H310.968ZM319.615 210V201.5H318.115V200.08H319.615V198.36C319.615 197.4 319.855 196.7 320.335 196.26C320.815 195.82 321.515 195.6 322.435 195.6H323.435V197.04H322.695C322.189 197.04 321.829 197.147 321.615 197.36C321.402 197.56 321.295 197.907 321.295 198.4V200.08H323.735V201.5H321.295V210H319.615ZM329.365 210.24C328.432 210.24 327.592 210.027 326.845 209.6C326.098 209.173 325.505 208.573 325.065 207.8C324.638 207.013 324.425 206.093 324.425 205.04C324.425 203.987 324.645 203.073 325.085 202.3C325.525 201.513 326.118 200.907 326.865 200.48C327.625 200.053 328.472 199.84 329.405 199.84C330.338 199.84 331.178 200.053 331.925 200.48C332.672 200.907 333.258 201.513 333.685 202.3C334.125 203.073 334.345 203.987 334.345 205.04C334.345 206.093 334.125 207.013 333.685 207.8C333.245 208.573 332.645 209.173 331.885 209.6C331.138 210.027 330.298 210.24 329.365 210.24ZM329.365 208.8C329.938 208.8 330.472 208.66 330.965 208.38C331.458 208.1 331.858 207.68 332.165 207.12C332.472 206.56 332.625 205.867 332.625 205.04C332.625 204.213 332.472 203.52 332.165 202.96C331.872 202.4 331.478 201.98 330.985 201.7C330.492 201.42 329.965 201.28 329.405 201.28C328.832 201.28 328.298 201.42 327.805 201.7C327.312 201.98 326.912 202.4 326.605 202.96C326.298 203.52 326.145 204.213 326.145 205.04C326.145 205.867 326.298 206.56 326.605 207.12C326.912 207.68 327.305 208.1 327.785 208.38C328.278 208.66 328.805 208.8 329.365 208.8ZM336.181 210V200.08H337.701L337.841 201.98C338.147 201.327 338.614 200.807 339.241 200.42C339.867 200.033 340.641 199.84 341.561 199.84V201.6H341.101C340.514 201.6 339.974 201.707 339.481 201.92C338.987 202.12 338.594 202.467 338.301 202.96C338.007 203.453 337.861 204.133 337.861 205V210H336.181ZM351.539 210.24C350.353 210.24 349.366 209.94 348.579 209.34C347.793 208.74 347.333 207.927 347.199 206.9H348.919C349.026 207.42 349.299 207.873 349.739 208.26C350.193 208.633 350.799 208.82 351.559 208.82C352.266 208.82 352.786 208.673 353.119 208.38C353.453 208.073 353.619 207.713 353.619 207.3C353.619 206.7 353.399 206.3 352.959 206.1C352.533 205.9 351.926 205.72 351.139 205.56C350.606 205.453 350.073 205.3 349.539 205.1C349.006 204.9 348.559 204.62 348.199 204.26C347.839 203.887 347.659 203.4 347.659 202.8C347.659 201.933 347.979 201.227 348.619 200.68C349.273 200.12 350.153 199.84 351.259 199.84C352.313 199.84 353.173 200.107 353.839 200.64C354.519 201.16 354.913 201.907 355.019 202.88H353.359C353.293 202.373 353.073 201.98 352.699 201.7C352.339 201.407 351.853 201.26 351.239 201.26C350.639 201.26 350.173 201.387 349.839 201.64C349.519 201.893 349.359 202.227 349.359 202.64C349.359 203.04 349.566 203.353 349.979 203.58C350.406 203.807 350.979 204 351.699 204.16C352.313 204.293 352.893 204.46 353.439 204.66C353.999 204.847 354.453 205.133 354.799 205.52C355.159 205.893 355.339 206.44 355.339 207.16C355.353 208.053 355.013 208.793 354.319 209.38C353.639 209.953 352.713 210.24 351.539 210.24ZM361.759 210.24C360.826 210.24 359.986 210.027 359.239 209.6C358.493 209.173 357.899 208.573 357.459 207.8C357.033 207.013 356.819 206.093 356.819 205.04C356.819 203.987 357.039 203.073 357.479 202.3C357.919 201.513 358.513 200.907 359.259 200.48C360.019 200.053 360.866 199.84 361.799 199.84C362.733 199.84 363.573 200.053 364.319 200.48C365.066 200.907 365.653 201.513 366.079 202.3C366.519 203.073 366.739 203.987 366.739 205.04C366.739 206.093 366.519 207.013 366.079 207.8C365.639 208.573 365.039 209.173 364.279 209.6C363.533 210.027 362.693 210.24 361.759 210.24ZM361.759 208.8C362.333 208.8 362.866 208.66 363.359 208.38C363.853 208.1 364.253 207.68 364.559 207.12C364.866 206.56 365.019 205.867 365.019 205.04C365.019 204.213 364.866 203.52 364.559 202.96C364.266 202.4 363.873 201.98 363.379 201.7C362.886 201.42 362.359 201.28 361.799 201.28C361.226 201.28 360.693 201.42 360.199 201.7C359.706 201.98 359.306 202.4 358.999 202.96C358.693 203.52 358.539 204.213 358.539 205.04C358.539 205.867 358.693 206.56 358.999 207.12C359.306 207.68 359.699 208.1 360.179 208.38C360.673 208.66 361.199 208.8 361.759 208.8ZM373.135 210.24C372.189 210.24 371.335 210.027 370.575 209.6C369.829 209.16 369.235 208.553 368.795 207.78C368.369 206.993 368.155 206.08 368.155 205.04C368.155 204 368.369 203.093 368.795 202.32C369.235 201.533 369.829 200.927 370.575 200.5C371.335 200.06 372.189 199.84 373.135 199.84C374.309 199.84 375.295 200.147 376.095 200.76C376.909 201.373 377.422 202.193 377.635 203.22H375.915C375.782 202.607 375.455 202.133 374.935 201.8C374.415 201.453 373.809 201.28 373.115 201.28C372.555 201.28 372.029 201.42 371.535 201.7C371.042 201.98 370.642 202.4 370.335 202.96C370.029 203.52 369.875 204.213 369.875 205.04C369.875 205.867 370.029 206.56 370.335 207.12C370.642 207.68 371.042 208.107 371.535 208.4C372.029 208.68 372.555 208.82 373.115 208.82C373.809 208.82 374.415 208.653 374.935 208.32C375.455 207.973 375.782 207.487 375.915 206.86H377.635C377.435 207.86 376.929 208.673 376.115 209.3C375.302 209.927 374.309 210.24 373.135 210.24ZM380.502 197.88C380.168 197.88 379.888 197.773 379.662 197.56C379.448 197.333 379.342 197.053 379.342 196.72C379.342 196.4 379.448 196.133 379.662 195.92C379.888 195.707 380.168 195.6 380.502 195.6C380.822 195.6 381.095 195.707 381.322 195.92C381.548 196.133 381.662 196.4 381.662 196.72C381.662 197.053 381.548 197.333 381.322 197.56C381.095 197.773 380.822 197.88 380.502 197.88ZM379.662 210V200.08H381.342V210H379.662ZM387.067 210.24C386.24 210.24 385.553 210.1 385.007 209.82C384.46 209.54 384.053 209.167 383.787 208.7C383.52 208.233 383.387 207.727 383.387 207.18C383.387 206.167 383.773 205.387 384.547 204.84C385.32 204.293 386.373 204.02 387.707 204.02H390.387V203.9C390.387 203.033 390.16 202.38 389.707 201.94C389.253 201.487 388.647 201.26 387.887 201.26C387.233 201.26 386.667 201.427 386.187 201.76C385.72 202.08 385.427 202.553 385.307 203.18H383.587C383.653 202.46 383.893 201.853 384.307 201.36C384.733 200.867 385.26 200.493 385.887 200.24C386.513 199.973 387.18 199.84 387.887 199.84C389.273 199.84 390.313 200.213 391.007 200.96C391.713 201.693 392.067 202.673 392.067 203.9V210H390.567L390.467 208.22C390.187 208.78 389.773 209.26 389.227 209.66C388.693 210.047 387.973 210.24 387.067 210.24ZM387.327 208.82C387.967 208.82 388.513 208.653 388.967 208.32C389.433 207.987 389.787 207.553 390.027 207.02C390.267 206.487 390.387 205.927 390.387 205.34V205.32H387.847C386.86 205.32 386.16 205.493 385.747 205.84C385.347 206.173 385.147 206.593 385.147 207.1C385.147 207.62 385.333 208.04 385.707 208.36C386.093 208.667 386.633 208.82 387.327 208.82ZM394.087 210V195.6H395.767V210H394.087ZM402.814 210V200.08H404.334L404.434 201.86C404.754 201.233 405.214 200.74 405.814 200.38C406.414 200.02 407.094 199.84 407.854 199.84C409.027 199.84 409.96 200.2 410.654 200.92C411.36 201.627 411.714 202.72 411.714 204.2V210H410.034V204.38C410.034 202.313 409.18 201.28 407.474 201.28C406.62 201.28 405.907 201.593 405.334 202.22C404.774 202.833 404.494 203.713 404.494 204.86V210H402.814ZM418.219 210.24C417.272 210.24 416.432 210.027 415.699 209.6C414.966 209.16 414.386 208.553 413.959 207.78C413.546 207.007 413.339 206.093 413.339 205.04C413.339 204 413.546 203.093 413.959 202.32C414.372 201.533 414.946 200.927 415.679 200.5C416.426 200.06 417.286 199.84 418.259 199.84C419.219 199.84 420.046 200.06 420.739 200.5C421.446 200.927 421.986 201.493 422.359 202.2C422.732 202.907 422.919 203.667 422.919 204.48C422.919 204.627 422.912 204.773 422.899 204.92C422.899 205.067 422.899 205.233 422.899 205.42H414.999C415.039 206.18 415.212 206.813 415.519 207.32C415.839 207.813 416.232 208.187 416.699 208.44C417.179 208.693 417.686 208.82 418.219 208.82C418.912 208.82 419.492 208.66 419.959 208.34C420.426 208.02 420.766 207.587 420.979 207.04H422.639C422.372 207.96 421.859 208.727 421.099 209.34C420.352 209.94 419.392 210.24 418.219 210.24ZM418.219 201.26C417.419 201.26 416.706 201.507 416.079 202C415.466 202.48 415.112 203.187 415.019 204.12H421.259C421.219 203.227 420.912 202.527 420.339 202.02C419.766 201.513 419.059 201.26 418.219 201.26ZM428.234 210C427.327 210 426.614 209.78 426.094 209.34C425.574 208.9 425.314 208.107 425.314 206.96V201.5H423.594V200.08H425.314L425.534 197.7H426.994V200.08H429.914V201.5H426.994V206.96C426.994 207.587 427.12 208.013 427.374 208.24C427.627 208.453 428.074 208.56 428.714 208.56H429.754V210H428.234ZM433.548 210L430.648 200.08H432.328L434.428 207.86L436.748 200.08H438.648L440.988 207.86L443.068 200.08H444.768L441.868 210H440.148L437.708 201.82L435.268 210H433.548ZM450.275 210.24C449.342 210.24 448.502 210.027 447.755 209.6C447.008 209.173 446.415 208.573 445.975 207.8C445.548 207.013 445.335 206.093 445.335 205.04C445.335 203.987 445.555 203.073 445.995 202.3C446.435 201.513 447.028 200.907 447.775 200.48C448.535 200.053 449.382 199.84 450.315 199.84C451.248 199.84 452.088 200.053 452.835 200.48C453.582 200.907 454.168 201.513 454.595 202.3C455.035 203.073 455.255 203.987 455.255 205.04C455.255 206.093 455.035 207.013 454.595 207.8C454.155 208.573 453.555 209.173 452.795 209.6C452.048 210.027 451.208 210.24 450.275 210.24ZM450.275 208.8C450.848 208.8 451.382 208.66 451.875 208.38C452.368 208.1 452.768 207.68 453.075 207.12C453.382 206.56 453.535 205.867 453.535 205.04C453.535 204.213 453.382 203.52 453.075 202.96C452.782 202.4 452.388 201.98 451.895 201.7C451.402 201.42 450.875 201.28 450.315 201.28C449.742 201.28 449.208 201.42 448.715 201.7C448.222 201.98 447.822 202.4 447.515 202.96C447.208 203.52 447.055 204.213 447.055 205.04C447.055 205.867 447.208 206.56 447.515 207.12C447.822 207.68 448.215 208.1 448.695 208.38C449.188 208.66 449.715 208.8 450.275 208.8ZM457.091 210V200.08H458.611L458.751 201.98C459.058 201.327 459.524 200.807 460.151 200.42C460.778 200.033 461.551 199.84 462.471 199.84V201.6H462.011C461.424 201.6 460.884 201.707 460.391 201.92C459.898 202.12 459.504 202.467 459.211 202.96C458.918 203.453 458.771 204.133 458.771 205V210H457.091ZM463.857 210V195.6H465.537V204.26L469.597 200.08H471.657L467.257 204.56L472.217 210H470.077L465.537 204.86V210H463.857ZM476.649 210.24C475.462 210.24 474.475 209.94 473.689 209.34C472.902 208.74 472.442 207.927 472.309 206.9H474.029C474.135 207.42 474.409 207.873 474.849 208.26C475.302 208.633 475.909 208.82 476.669 208.82C477.375 208.82 477.895 208.673 478.229 208.38C478.562 208.073 478.729 207.713 478.729 207.3C478.729 206.7 478.509 206.3 478.069 206.1C477.642 205.9 477.035 205.72 476.249 205.56C475.715 205.453 475.182 205.3 474.649 205.1C474.115 204.9 473.669 204.62 473.309 204.26C472.949 203.887 472.769 203.4 472.769 202.8C472.769 201.933 473.089 201.227 473.729 200.68C474.382 200.12 475.262 199.84 476.369 199.84C477.422 199.84 478.282 200.107 478.949 200.64C479.629 201.16 480.022 201.907 480.129 202.88H478.469C478.402 202.373 478.182 201.98 477.809 201.7C477.449 201.407 476.962 201.26 476.349 201.26C475.749 201.26 475.282 201.387 474.949 201.64C474.629 201.893 474.469 202.227 474.469 202.64C474.469 203.04 474.675 203.353 475.089 203.58C475.515 203.807 476.089 204 476.809 204.16C477.422 204.293 478.002 204.46 478.549 204.66C479.109 204.847 479.562 205.133 479.909 205.52C480.269 205.893 480.449 206.44 480.449 207.16C480.462 208.053 480.122 208.793 479.429 209.38C478.749 209.953 477.822 210.24 476.649 210.24ZM481.009 212.38L482.169 207.96H483.909L482.169 212.38H481.009ZM106.163 240V230.08H107.683L107.823 231.98C108.13 231.327 108.597 230.807 109.223 230.42C109.85 230.033 110.623 229.84 111.543 229.84V231.6H111.083C110.497 231.6 109.957 231.707 109.463 231.92C108.97 232.12 108.577 232.467 108.283 232.96C107.99 233.453 107.843 234.133 107.843 235V240H106.163ZM117.018 240.24C116.071 240.24 115.231 240.027 114.498 239.6C113.764 239.16 113.184 238.553 112.758 237.78C112.344 237.007 112.138 236.093 112.138 235.04C112.138 234 112.344 233.093 112.758 232.32C113.171 231.533 113.744 230.927 114.478 230.5C115.224 230.06 116.084 229.84 117.058 229.84C118.018 229.84 118.844 230.06 119.538 230.5C120.244 230.927 120.784 231.493 121.158 232.2C121.531 232.907 121.718 233.667 121.718 234.48C121.718 234.627 121.711 234.773 121.698 234.92C121.698 235.067 121.698 235.233 121.698 235.42H113.798C113.838 236.18 114.011 236.813 114.318 237.32C114.638 237.813 115.031 238.187 115.498 238.44C115.978 238.693 116.484 238.82 117.018 238.82C117.711 238.82 118.291 238.66 118.758 238.34C119.224 238.02 119.564 237.587 119.778 237.04H121.438C121.171 237.96 120.658 238.727 119.898 239.34C119.151 239.94 118.191 240.24 117.018 240.24ZM117.018 231.26C116.218 231.26 115.504 231.507 114.878 232C114.264 232.48 113.911 233.187 113.818 234.12H120.058C120.018 233.227 119.711 232.527 119.138 232.02C118.564 231.513 117.858 231.26 117.018 231.26ZM123.444 240V230.08H124.964L125.064 231.86C125.384 231.233 125.844 230.74 126.444 230.38C127.044 230.02 127.724 229.84 128.484 229.84C129.658 229.84 130.591 230.2 131.284 230.92C131.991 231.627 132.344 232.72 132.344 234.2V240H130.664V234.38C130.664 232.313 129.811 231.28 128.104 231.28C127.251 231.28 126.538 231.593 125.964 232.22C125.404 232.833 125.124 233.713 125.124 234.86V240H123.444ZM138.31 240C137.403 240 136.69 239.78 136.17 239.34C135.65 238.9 135.39 238.107 135.39 236.96V231.5H133.67V230.08H135.39L135.61 227.7H137.07V230.08H139.99V231.5H137.07V236.96C137.07 237.587 137.196 238.013 137.45 238.24C137.703 238.453 138.15 238.56 138.79 238.56H139.83V240H138.31ZM142.644 227.88C142.311 227.88 142.031 227.773 141.804 227.56C141.591 227.333 141.484 227.053 141.484 226.72C141.484 226.4 141.591 226.133 141.804 225.92C142.031 225.707 142.311 225.6 142.644 225.6C142.964 225.6 143.237 225.707 143.464 225.92C143.691 226.133 143.804 226.4 143.804 226.72C143.804 227.053 143.691 227.333 143.464 227.56C143.237 227.773 142.964 227.88 142.644 227.88ZM141.804 240V230.08H143.484V240H141.804ZM145.909 240V230.08H147.429L147.529 231.86C147.849 231.233 148.309 230.74 148.909 230.38C149.509 230.02 150.189 229.84 150.949 229.84C152.123 229.84 153.056 230.2 153.749 230.92C154.456 231.627 154.809 232.72 154.809 234.2V240H153.129V234.38C153.129 232.313 152.276 231.28 150.569 231.28C149.716 231.28 149.003 231.593 148.429 232.22C147.869 232.833 147.589 233.713 147.589 234.86V240H145.909ZM160.775 236.88C160.215 236.88 159.701 236.807 159.235 236.66L158.235 237.6C158.381 237.707 158.561 237.8 158.775 237.88C159.001 237.947 159.321 238.013 159.735 238.08C160.148 238.133 160.728 238.193 161.475 238.26C162.808 238.353 163.761 238.66 164.335 239.18C164.908 239.7 165.195 240.38 165.195 241.22C165.195 241.793 165.035 242.34 164.715 242.86C164.408 243.38 163.928 243.807 163.275 244.14C162.635 244.473 161.808 244.64 160.795 244.64C159.901 244.64 159.108 244.52 158.415 244.28C157.721 244.053 157.181 243.7 156.795 243.22C156.408 242.753 156.215 242.16 156.215 241.44C156.215 241.067 156.315 240.66 156.515 240.22C156.715 239.793 157.088 239.387 157.635 239C157.341 238.88 157.088 238.753 156.875 238.62C156.675 238.473 156.488 238.313 156.315 238.14V237.68L158.015 236C157.228 235.333 156.835 234.453 156.835 233.36C156.835 232.707 156.988 232.113 157.295 231.58C157.601 231.047 158.048 230.627 158.635 230.32C159.221 230 159.935 229.84 160.775 229.84C161.348 229.84 161.868 229.92 162.335 230.08H165.995V231.34L164.135 231.42C164.521 231.98 164.715 232.627 164.715 233.36C164.715 234.013 164.555 234.607 164.235 235.14C163.928 235.673 163.481 236.1 162.895 236.42C162.321 236.727 161.615 236.88 160.775 236.88ZM160.775 235.5C161.481 235.5 162.041 235.32 162.455 234.96C162.881 234.587 163.095 234.053 163.095 233.36C163.095 232.68 162.881 232.16 162.455 231.8C162.041 231.427 161.481 231.24 160.775 231.24C160.055 231.24 159.481 231.427 159.055 231.8C158.641 232.16 158.435 232.68 158.435 233.36C158.435 234.053 158.641 234.587 159.055 234.96C159.481 235.32 160.055 235.5 160.775 235.5ZM157.855 241.28C157.855 241.947 158.135 242.44 158.695 242.76C159.255 243.093 159.955 243.26 160.795 243.26C161.621 243.26 162.281 243.08 162.775 242.72C163.281 242.36 163.535 241.88 163.535 241.28C163.535 240.853 163.361 240.48 163.015 240.16C162.668 239.853 162.028 239.673 161.095 239.62C160.361 239.567 159.728 239.5 159.195 239.42C158.648 239.713 158.288 240.027 158.115 240.36C157.941 240.707 157.855 241.013 157.855 241.28ZM175.483 240.24C174.656 240.24 173.969 240.1 173.423 239.82C172.876 239.54 172.469 239.167 172.203 238.7C171.936 238.233 171.803 237.727 171.803 237.18C171.803 236.167 172.189 235.387 172.963 234.84C173.736 234.293 174.789 234.02 176.123 234.02H178.803V233.9C178.803 233.033 178.576 232.38 178.123 231.94C177.669 231.487 177.063 231.26 176.303 231.26C175.649 231.26 175.083 231.427 174.603 231.76C174.136 232.08 173.843 232.553 173.723 233.18H172.003C172.069 232.46 172.309 231.853 172.723 231.36C173.149 230.867 173.676 230.493 174.303 230.24C174.929 229.973 175.596 229.84 176.303 229.84C177.689 229.84 178.729 230.213 179.423 230.96C180.129 231.693 180.483 232.673 180.483 233.9V240H178.983L178.883 238.22C178.603 238.78 178.189 239.26 177.643 239.66C177.109 240.047 176.389 240.24 175.483 240.24ZM175.743 238.82C176.383 238.82 176.929 238.653 177.383 238.32C177.849 237.987 178.203 237.553 178.443 237.02C178.683 236.487 178.803 235.927 178.803 235.34V235.32H176.263C175.276 235.32 174.576 235.493 174.163 235.84C173.763 236.173 173.563 236.593 173.563 237.1C173.563 237.62 173.749 238.04 174.123 238.36C174.509 238.667 175.049 238.82 175.743 238.82ZM191.096 240.24C189.909 240.24 188.923 239.94 188.136 239.34C187.349 238.74 186.889 237.927 186.756 236.9H188.476C188.583 237.42 188.856 237.873 189.296 238.26C189.749 238.633 190.356 238.82 191.116 238.82C191.823 238.82 192.343 238.673 192.676 238.38C193.009 238.073 193.176 237.713 193.176 237.3C193.176 236.7 192.956 236.3 192.516 236.1C192.089 235.9 191.483 235.72 190.696 235.56C190.163 235.453 189.629 235.3 189.096 235.1C188.563 234.9 188.116 234.62 187.756 234.26C187.396 233.887 187.216 233.4 187.216 232.8C187.216 231.933 187.536 231.227 188.176 230.68C188.829 230.12 189.709 229.84 190.816 229.84C191.869 229.84 192.729 230.107 193.396 230.64C194.076 231.16 194.469 231.907 194.576 232.88H192.916C192.849 232.373 192.629 231.98 192.256 231.7C191.896 231.407 191.409 231.26 190.796 231.26C190.196 231.26 189.729 231.387 189.396 231.64C189.076 231.893 188.916 232.227 188.916 232.64C188.916 233.04 189.123 233.353 189.536 233.58C189.963 233.807 190.536 234 191.256 234.16C191.869 234.293 192.449 234.46 192.996 234.66C193.556 234.847 194.009 235.133 194.356 235.52C194.716 235.893 194.896 236.44 194.896 237.16C194.909 238.053 194.569 238.793 193.876 239.38C193.196 239.953 192.269 240.24 191.096 240.24ZM200.267 240C199.36 240 198.647 239.78 198.127 239.34C197.607 238.9 197.347 238.107 197.347 236.96V231.5H195.627V230.08H197.347L197.567 227.7H199.027V230.08H201.947V231.5H199.027V236.96C199.027 237.587 199.153 238.013 199.407 238.24C199.66 238.453 200.107 238.56 200.747 238.56H201.787V240H200.267ZM207.201 240.24C206.028 240.24 205.095 239.887 204.401 239.18C203.708 238.46 203.361 237.36 203.361 235.88V230.08H205.041V235.7C205.041 237.767 205.888 238.8 207.581 238.8C208.448 238.8 209.161 238.493 209.721 237.88C210.295 237.253 210.581 236.367 210.581 235.22V230.08H212.261V240H210.741L210.621 238.22C210.315 238.847 209.855 239.34 209.241 239.7C208.641 240.06 207.961 240.24 207.201 240.24ZM219.026 240.24C218.04 240.24 217.173 240.013 216.426 239.56C215.693 239.107 215.12 238.487 214.706 237.7C214.306 236.913 214.106 236.02 214.106 235.02C214.106 234.02 214.313 233.133 214.726 232.36C215.14 231.573 215.713 230.96 216.446 230.52C217.18 230.067 218.046 229.84 219.046 229.84C219.86 229.84 220.58 230.007 221.206 230.34C221.833 230.673 222.32 231.14 222.666 231.74V225.6H224.346V240H222.826L222.666 238.36C222.346 238.84 221.886 239.273 221.286 239.66C220.686 240.047 219.933 240.24 219.026 240.24ZM219.206 238.78C219.873 238.78 220.46 238.627 220.966 238.32C221.486 238 221.886 237.56 222.166 237C222.46 236.44 222.606 235.787 222.606 235.04C222.606 234.293 222.46 233.64 222.166 233.08C221.886 232.52 221.486 232.087 220.966 231.78C220.46 231.46 219.873 231.3 219.206 231.3C218.553 231.3 217.966 231.46 217.446 231.78C216.94 232.087 216.54 232.52 216.246 233.08C215.966 233.64 215.826 234.293 215.826 235.04C215.826 235.787 215.966 236.44 216.246 237C216.54 237.56 216.94 238 217.446 238.32C217.966 238.627 218.553 238.78 219.206 238.78ZM227.605 227.88C227.272 227.88 226.992 227.773 226.765 227.56C226.552 227.333 226.445 227.053 226.445 226.72C226.445 226.4 226.552 226.133 226.765 225.92C226.992 225.707 227.272 225.6 227.605 225.6C227.925 225.6 228.198 225.707 228.425 225.92C228.652 226.133 228.765 226.4 228.765 226.72C228.765 227.053 228.652 227.333 228.425 227.56C228.198 227.773 227.925 227.88 227.605 227.88ZM226.765 240V230.08H228.445V240H226.765ZM235.39 240.24C234.457 240.24 233.617 240.027 232.87 239.6C232.124 239.173 231.53 238.573 231.09 237.8C230.664 237.013 230.45 236.093 230.45 235.04C230.45 233.987 230.67 233.073 231.11 232.3C231.55 231.513 232.144 230.907 232.89 230.48C233.65 230.053 234.497 229.84 235.43 229.84C236.364 229.84 237.204 230.053 237.95 230.48C238.697 230.907 239.284 231.513 239.71 232.3C240.15 233.073 240.37 233.987 240.37 235.04C240.37 236.093 240.15 237.013 239.71 237.8C239.27 238.573 238.67 239.173 237.91 239.6C237.164 240.027 236.324 240.24 235.39 240.24ZM235.39 238.8C235.964 238.8 236.497 238.66 236.99 238.38C237.484 238.1 237.884 237.68 238.19 237.12C238.497 236.56 238.65 235.867 238.65 235.04C238.65 234.213 238.497 233.52 238.19 232.96C237.897 232.4 237.504 231.98 237.01 231.7C236.517 231.42 235.99 231.28 235.43 231.28C234.857 231.28 234.324 231.42 233.83 231.7C233.337 231.98 232.937 232.4 232.63 232.96C232.324 233.52 232.17 234.213 232.17 235.04C232.17 235.867 232.324 236.56 232.63 237.12C232.937 237.68 233.33 238.1 233.81 238.38C234.304 238.66 234.83 238.8 235.39 238.8ZM240.866 242.38L242.026 237.96H243.766L242.026 242.38H240.866ZM250.054 240V230.08H251.574L251.694 231.52C252.014 230.987 252.44 230.573 252.974 230.28C253.507 229.987 254.107 229.84 254.774 229.84C255.56 229.84 256.234 230 256.794 230.32C257.367 230.64 257.807 231.127 258.114 231.78C258.46 231.18 258.934 230.707 259.534 230.36C260.147 230.013 260.807 229.84 261.514 229.84C262.7 229.84 263.647 230.2 264.354 230.92C265.06 231.627 265.414 232.72 265.414 234.2V240H263.754V234.38C263.754 233.353 263.547 232.58 263.134 232.06C262.72 231.54 262.127 231.28 261.354 231.28C260.554 231.28 259.887 231.593 259.354 232.22C258.834 232.833 258.574 233.713 258.574 234.86V240H256.894V234.38C256.894 233.353 256.687 232.58 256.274 232.06C255.86 231.54 255.267 231.28 254.494 231.28C253.707 231.28 253.047 231.593 252.514 232.22C251.994 232.833 251.734 233.713 251.734 234.86V240H250.054ZM270.744 240.24C269.918 240.24 269.231 240.1 268.684 239.82C268.138 239.54 267.731 239.167 267.464 238.7C267.198 238.233 267.064 237.727 267.064 237.18C267.064 236.167 267.451 235.387 268.224 234.84C268.998 234.293 270.051 234.02 271.384 234.02H274.064V233.9C274.064 233.033 273.838 232.38 273.384 231.94C272.931 231.487 272.324 231.26 271.564 231.26C270.911 231.26 270.344 231.427 269.864 231.76C269.398 232.08 269.104 232.553 268.984 233.18H267.264C267.331 232.46 267.571 231.853 267.984 231.36C268.411 230.867 268.938 230.493 269.564 230.24C270.191 229.973 270.858 229.84 271.564 229.84C272.951 229.84 273.991 230.213 274.684 230.96C275.391 231.693 275.744 232.673 275.744 233.9V240H274.244L274.144 238.22C273.864 238.78 273.451 239.26 272.904 239.66C272.371 240.047 271.651 240.24 270.744 240.24ZM271.004 238.82C271.644 238.82 272.191 238.653 272.644 238.32C273.111 237.987 273.464 237.553 273.704 237.02C273.944 236.487 274.064 235.927 274.064 235.34V235.32H271.524C270.538 235.32 269.838 235.493 269.424 235.84C269.024 236.173 268.824 236.593 268.824 237.1C268.824 237.62 269.011 238.04 269.384 238.36C269.771 238.667 270.311 238.82 271.004 238.82ZM277.765 240V225.6H279.445V234.26L283.505 230.08H285.565L281.165 234.56L286.125 240H283.985L279.445 234.86V240H277.765ZM291.08 240.24C290.134 240.24 289.294 240.027 288.56 239.6C287.827 239.16 287.247 238.553 286.82 237.78C286.407 237.007 286.2 236.093 286.2 235.04C286.2 234 286.407 233.093 286.82 232.32C287.234 231.533 287.807 230.927 288.54 230.5C289.287 230.06 290.147 229.84 291.12 229.84C292.08 229.84 292.907 230.06 293.6 230.5C294.307 230.927 294.847 231.493 295.22 232.2C295.594 232.907 295.78 233.667 295.78 234.48C295.78 234.627 295.774 234.773 295.76 234.92C295.76 235.067 295.76 235.233 295.76 235.42H287.86C287.9 236.18 288.074 236.813 288.38 237.32C288.7 237.813 289.094 238.187 289.56 238.44C290.04 238.693 290.547 238.82 291.08 238.82C291.774 238.82 292.354 238.66 292.82 238.34C293.287 238.02 293.627 237.587 293.84 237.04H295.5C295.234 237.96 294.72 238.727 293.96 239.34C293.214 239.94 292.254 240.24 291.08 240.24ZM291.08 231.26C290.28 231.26 289.567 231.507 288.94 232C288.327 232.48 287.974 233.187 287.88 234.12H294.12C294.08 233.227 293.774 232.527 293.2 232.02C292.627 231.513 291.92 231.26 291.08 231.26ZM301.127 240.24C299.954 240.24 299.02 239.887 298.327 239.18C297.634 238.46 297.287 237.36 297.287 235.88V230.08H298.967V235.7C298.967 237.767 299.814 238.8 301.507 238.8C302.374 238.8 303.087 238.493 303.647 237.88C304.22 237.253 304.507 236.367 304.507 235.22V230.08H306.187V240H304.667L304.547 238.22C304.24 238.847 303.78 239.34 303.167 239.7C302.567 240.06 301.887 240.24 301.127 240.24ZM308.452 244.4V230.08H309.972L310.132 231.72C310.452 231.24 310.906 230.807 311.492 230.42C312.092 230.033 312.852 229.84 313.772 229.84C314.759 229.84 315.619 230.067 316.352 230.52C317.086 230.973 317.652 231.593 318.052 232.38C318.466 233.167 318.672 234.06 318.672 235.06C318.672 236.06 318.466 236.953 318.052 237.74C317.652 238.513 317.079 239.127 316.332 239.58C315.599 240.02 314.739 240.24 313.752 240.24C312.939 240.24 312.212 240.073 311.572 239.74C310.946 239.407 310.466 238.94 310.132 238.34V244.4H308.452ZM313.572 238.78C314.239 238.78 314.826 238.627 315.332 238.32C315.839 238 316.239 237.56 316.532 237C316.826 236.44 316.972 235.787 316.972 235.04C316.972 234.293 316.826 233.64 316.532 233.08C316.239 232.52 315.839 232.087 315.332 231.78C314.826 231.46 314.239 231.3 313.572 231.3C312.906 231.3 312.319 231.46 311.812 231.78C311.306 232.087 310.906 232.52 310.612 233.08C310.319 233.64 310.172 234.293 310.172 235.04C310.172 235.787 310.319 236.44 310.612 237C310.906 237.56 311.306 238 311.812 238.32C312.319 238.627 312.906 238.78 313.572 238.78ZM328.604 240.24C327.777 240.24 327.09 240.1 326.544 239.82C325.997 239.54 325.59 239.167 325.324 238.7C325.057 238.233 324.924 237.727 324.924 237.18C324.924 236.167 325.31 235.387 326.084 234.84C326.857 234.293 327.91 234.02 329.244 234.02H331.924V233.9C331.924 233.033 331.697 232.38 331.244 231.94C330.79 231.487 330.184 231.26 329.424 231.26C328.77 231.26 328.204 231.427 327.724 231.76C327.257 232.08 326.964 232.553 326.844 233.18H325.124C325.19 232.46 325.43 231.853 325.844 231.36C326.27 230.867 326.797 230.493 327.424 230.24C328.05 229.973 328.717 229.84 329.424 229.84C330.81 229.84 331.85 230.213 332.544 230.96C333.25 231.693 333.604 232.673 333.604 233.9V240H332.104L332.004 238.22C331.724 238.78 331.31 239.26 330.764 239.66C330.23 240.047 329.51 240.24 328.604 240.24ZM328.864 238.82C329.504 238.82 330.05 238.653 330.504 238.32C330.97 237.987 331.324 237.553 331.564 237.02C331.804 236.487 331.924 235.927 331.924 235.34V235.32H329.384C328.397 235.32 327.697 235.493 327.284 235.84C326.884 236.173 326.684 236.593 326.684 237.1C326.684 237.62 326.87 238.04 327.244 238.36C327.63 238.667 328.17 238.82 328.864 238.82ZM335.624 240V230.08H337.144L337.284 231.98C337.591 231.327 338.057 230.807 338.684 230.42C339.311 230.033 340.084 229.84 341.004 229.84V231.6H340.544C339.957 231.6 339.417 231.707 338.924 231.92C338.431 232.12 338.037 232.467 337.744 232.96C337.451 233.453 337.304 234.133 337.304 235V240H335.624ZM346.31 240C345.403 240 344.69 239.78 344.17 239.34C343.65 238.9 343.39 238.107 343.39 236.96V231.5H341.67V230.08H343.39L343.61 227.7H345.07V230.08H347.99V231.5H345.07V236.96C345.07 237.587 345.196 238.013 345.45 238.24C345.703 238.453 346.15 238.56 346.79 238.56H347.83V240H346.31ZM350.644 227.88C350.311 227.88 350.031 227.773 349.804 227.56C349.591 227.333 349.484 227.053 349.484 226.72C349.484 226.4 349.591 226.133 349.804 225.92C350.031 225.707 350.311 225.6 350.644 225.6C350.964 225.6 351.237 225.707 351.464 225.92C351.691 226.133 351.804 226.4 351.804 226.72C351.804 227.053 351.691 227.333 351.464 227.56C351.237 227.773 350.964 227.88 350.644 227.88ZM349.804 240V230.08H351.484V240H349.804ZM357.709 240.24C356.523 240.24 355.536 239.94 354.749 239.34C353.963 238.74 353.503 237.927 353.369 236.9H355.089C355.196 237.42 355.469 237.873 355.909 238.26C356.363 238.633 356.969 238.82 357.729 238.82C358.436 238.82 358.956 238.673 359.289 238.38C359.623 238.073 359.789 237.713 359.789 237.3C359.789 236.7 359.569 236.3 359.129 236.1C358.703 235.9 358.096 235.72 357.309 235.56C356.776 235.453 356.243 235.3 355.709 235.1C355.176 234.9 354.729 234.62 354.369 234.26C354.009 233.887 353.829 233.4 353.829 232.8C353.829 231.933 354.149 231.227 354.789 230.68C355.443 230.12 356.323 229.84 357.429 229.84C358.483 229.84 359.343 230.107 360.009 230.64C360.689 231.16 361.083 231.907 361.189 232.88H359.529C359.463 232.373 359.243 231.98 358.869 231.7C358.509 231.407 358.023 231.26 357.409 231.26C356.809 231.26 356.343 231.387 356.009 231.64C355.689 231.893 355.529 232.227 355.529 232.64C355.529 233.04 355.736 233.353 356.149 233.58C356.576 233.807 357.149 234 357.869 234.16C358.483 234.293 359.063 234.46 359.609 234.66C360.169 234.847 360.623 235.133 360.969 235.52C361.329 235.893 361.509 236.44 361.509 237.16C361.523 238.053 361.183 238.793 360.489 239.38C359.809 239.953 358.883 240.24 357.709 240.24ZM366.88 240C365.973 240 365.26 239.78 364.74 239.34C364.22 238.9 363.96 238.107 363.96 236.96V231.5H362.24V230.08H363.96L364.18 227.7H365.64V230.08H368.56V231.5H365.64V236.96C365.64 237.587 365.767 238.013 366.02 238.24C366.273 238.453 366.72 238.56 367.36 238.56H368.4V240H366.88ZM378.287 240.24C377.461 240.24 376.774 240.1 376.227 239.82C375.681 239.54 375.274 239.167 375.007 238.7C374.741 238.233 374.607 237.727 374.607 237.18C374.607 236.167 374.994 235.387 375.767 234.84C376.541 234.293 377.594 234.02 378.927 234.02H381.607V233.9C381.607 233.033 381.381 232.38 380.927 231.94C380.474 231.487 379.867 231.26 379.107 231.26C378.454 231.26 377.887 231.427 377.407 231.76C376.941 232.08 376.647 232.553 376.527 233.18H374.807C374.874 232.46 375.114 231.853 375.527 231.36C375.954 230.867 376.481 230.493 377.107 230.24C377.734 229.973 378.401 229.84 379.107 229.84C380.494 229.84 381.534 230.213 382.227 230.96C382.934 231.693 383.287 232.673 383.287 233.9V240H381.787L381.687 238.22C381.407 238.78 380.994 239.26 380.447 239.66C379.914 240.047 379.194 240.24 378.287 240.24ZM378.547 238.82C379.187 238.82 379.734 238.653 380.187 238.32C380.654 237.987 381.007 237.553 381.247 237.02C381.487 236.487 381.607 235.927 381.607 235.34V235.32H379.067C378.081 235.32 377.381 235.493 376.967 235.84C376.567 236.173 376.367 236.593 376.367 237.1C376.367 237.62 376.554 238.04 376.927 238.36C377.314 238.667 377.854 238.82 378.547 238.82ZM385.308 240V230.08H386.828L386.928 231.86C387.248 231.233 387.708 230.74 388.308 230.38C388.908 230.02 389.588 229.84 390.348 229.84C391.521 229.84 392.454 230.2 393.148 230.92C393.854 231.627 394.208 232.72 394.208 234.2V240H392.528V234.38C392.528 232.313 391.674 231.28 389.968 231.28C389.114 231.28 388.401 231.593 387.828 232.22C387.268 232.833 386.988 233.713 386.988 234.86V240H385.308ZM400.753 240.24C399.766 240.24 398.9 240.013 398.153 239.56C397.42 239.107 396.846 238.487 396.433 237.7C396.033 236.913 395.833 236.02 395.833 235.02C395.833 234.02 396.04 233.133 396.453 232.36C396.866 231.573 397.44 230.96 398.173 230.52C398.906 230.067 399.773 229.84 400.773 229.84C401.586 229.84 402.306 230.007 402.933 230.34C403.56 230.673 404.046 231.14 404.393 231.74V225.6H406.073V240H404.553L404.393 238.36C404.073 238.84 403.613 239.273 403.013 239.66C402.413 240.047 401.66 240.24 400.753 240.24ZM400.933 238.78C401.6 238.78 402.186 238.627 402.693 238.32C403.213 238 403.613 237.56 403.893 237C404.186 236.44 404.333 235.787 404.333 235.04C404.333 234.293 404.186 233.64 403.893 233.08C403.613 232.52 403.213 232.087 402.693 231.78C402.186 231.46 401.6 231.3 400.933 231.3C400.28 231.3 399.693 231.46 399.173 231.78C398.666 232.087 398.266 232.52 397.973 233.08C397.693 233.64 397.553 234.293 397.553 235.04C397.553 235.787 397.693 236.44 397.973 237C398.266 237.56 398.666 238 399.173 238.32C399.693 238.627 400.28 238.78 400.933 238.78ZM416.905 240.24C415.718 240.24 414.731 239.94 413.945 239.34C413.158 238.74 412.698 237.927 412.565 236.9H414.285C414.391 237.42 414.665 237.873 415.105 238.26C415.558 238.633 416.165 238.82 416.925 238.82C417.631 238.82 418.151 238.673 418.485 238.38C418.818 238.073 418.985 237.713 418.985 237.3C418.985 236.7 418.765 236.3 418.325 236.1C417.898 235.9 417.291 235.72 416.505 235.56C415.971 235.453 415.438 235.3 414.905 235.1C414.371 234.9 413.925 234.62 413.565 234.26C413.205 233.887 413.025 233.4 413.025 232.8C413.025 231.933 413.345 231.227 413.985 230.68C414.638 230.12 415.518 229.84 416.625 229.84C417.678 229.84 418.538 230.107 419.205 230.64C419.885 231.16 420.278 231.907 420.385 232.88H418.725C418.658 232.373 418.438 231.98 418.065 231.7C417.705 231.407 417.218 231.26 416.605 231.26C416.005 231.26 415.538 231.387 415.205 231.64C414.885 231.893 414.725 232.227 414.725 232.64C414.725 233.04 414.931 233.353 415.345 233.58C415.771 233.807 416.345 234 417.065 234.16C417.678 234.293 418.258 234.46 418.805 234.66C419.365 234.847 419.818 235.133 420.165 235.52C420.525 235.893 420.705 236.44 420.705 237.16C420.718 238.053 420.378 238.793 419.685 239.38C419.005 239.953 418.078 240.24 416.905 240.24ZM426.075 240C425.169 240 424.455 239.78 423.935 239.34C423.415 238.9 423.155 238.107 423.155 236.96V231.5H421.435V230.08H423.155L423.375 227.7H424.835V230.08H427.755V231.5H424.835V236.96C424.835 237.587 424.962 238.013 425.215 238.24C425.469 238.453 425.915 238.56 426.555 238.56H427.595V240H426.075ZM430.47 244.4L432.93 239.04H432.35L428.41 230.08H430.23L433.51 237.8L436.99 230.08H438.73L432.23 244.4H430.47ZM440.003 240V225.6H441.683V240H440.003ZM444.957 227.88C444.623 227.88 444.343 227.773 444.117 227.56C443.903 227.333 443.797 227.053 443.797 226.72C443.797 226.4 443.903 226.133 444.117 225.92C444.343 225.707 444.623 225.6 444.957 225.6C445.277 225.6 445.55 225.707 445.777 225.92C446.003 226.133 446.117 226.4 446.117 226.72C446.117 227.053 446.003 227.333 445.777 227.56C445.55 227.773 445.277 227.88 444.957 227.88ZM444.117 240V230.08H445.797V240H444.117ZM452.022 240.24C450.835 240.24 449.848 239.94 449.062 239.34C448.275 238.74 447.815 237.927 447.682 236.9H449.402C449.508 237.42 449.782 237.873 450.222 238.26C450.675 238.633 451.282 238.82 452.042 238.82C452.748 238.82 453.268 238.673 453.602 238.38C453.935 238.073 454.102 237.713 454.102 237.3C454.102 236.7 453.882 236.3 453.442 236.1C453.015 235.9 452.408 235.72 451.622 235.56C451.088 235.453 450.555 235.3 450.022 235.1C449.488 234.9 449.042 234.62 448.682 234.26C448.322 233.887 448.142 233.4 448.142 232.8C448.142 231.933 448.462 231.227 449.102 230.68C449.755 230.12 450.635 229.84 451.742 229.84C452.795 229.84 453.655 230.107 454.322 230.64C455.002 231.16 455.395 231.907 455.502 232.88H453.842C453.775 232.373 453.555 231.98 453.182 231.7C452.822 231.407 452.335 231.26 451.722 231.26C451.122 231.26 450.655 231.387 450.322 231.64C450.002 231.893 449.842 232.227 449.842 232.64C449.842 233.04 450.048 233.353 450.462 233.58C450.888 233.807 451.462 234 452.182 234.16C452.795 234.293 453.375 234.46 453.922 234.66C454.482 234.847 454.935 235.133 455.282 235.52C455.642 235.893 455.822 236.44 455.822 237.16C455.835 238.053 455.495 238.793 454.802 239.38C454.122 239.953 453.195 240.24 452.022 240.24ZM461.193 240C460.286 240 459.573 239.78 459.053 239.34C458.533 238.9 458.273 238.107 458.273 236.96V231.5H456.553V230.08H458.273L458.493 227.7H459.953V230.08H462.873V231.5H459.953V236.96C459.953 237.587 460.079 238.013 460.333 238.24C460.586 238.453 461.033 238.56 461.673 238.56H462.713V240H461.193ZM464.202 242.38L465.362 237.96H467.102L465.362 242.38H464.202ZM210.437 274.4V260.08H211.957L212.117 261.72C212.437 261.24 212.89 260.807 213.477 260.42C214.077 260.033 214.837 259.84 215.757 259.84C216.743 259.84 217.603 260.067 218.337 260.52C219.07 260.973 219.637 261.593 220.037 262.38C220.45 263.167 220.657 264.06 220.657 265.06C220.657 266.06 220.45 266.953 220.037 267.74C219.637 268.513 219.063 269.127 218.317 269.58C217.583 270.02 216.723 270.24 215.737 270.24C214.923 270.24 214.197 270.073 213.557 269.74C212.93 269.407 212.45 268.94 212.117 268.34V274.4H210.437ZM215.557 268.78C216.223 268.78 216.81 268.627 217.317 268.32C217.823 268 218.223 267.56 218.517 267C218.81 266.44 218.957 265.787 218.957 265.04C218.957 264.293 218.81 263.64 218.517 263.08C218.223 262.52 217.823 262.087 217.317 261.78C216.81 261.46 216.223 261.3 215.557 261.3C214.89 261.3 214.303 261.46 213.797 261.78C213.29 262.087 212.89 262.52 212.597 263.08C212.303 263.64 212.157 264.293 212.157 265.04C212.157 265.787 212.303 266.44 212.597 267C212.89 267.56 213.29 268 213.797 268.32C214.303 268.627 214.89 268.78 215.557 268.78ZM222.495 270V255.6H224.175V261.78C224.509 261.167 224.982 260.693 225.595 260.36C226.209 260.013 226.875 259.84 227.595 259.84C228.742 259.84 229.662 260.2 230.355 260.92C231.049 261.627 231.395 262.72 231.395 264.2V270H229.735V264.38C229.735 262.313 228.902 261.28 227.235 261.28C226.369 261.28 225.642 261.593 225.055 262.22C224.469 262.833 224.175 263.713 224.175 264.86V270H222.495ZM237.961 270.24C237.027 270.24 236.187 270.027 235.441 269.6C234.694 269.173 234.101 268.573 233.661 267.8C233.234 267.013 233.021 266.093 233.021 265.04C233.021 263.987 233.241 263.073 233.681 262.3C234.121 261.513 234.714 260.907 235.461 260.48C236.221 260.053 237.067 259.84 238.001 259.84C238.934 259.84 239.774 260.053 240.521 260.48C241.267 260.907 241.854 261.513 242.281 262.3C242.721 263.073 242.941 263.987 242.941 265.04C242.941 266.093 242.721 267.013 242.281 267.8C241.841 268.573 241.241 269.173 240.481 269.6C239.734 270.027 238.894 270.24 237.961 270.24ZM237.961 268.8C238.534 268.8 239.067 268.66 239.561 268.38C240.054 268.1 240.454 267.68 240.761 267.12C241.067 266.56 241.221 265.867 241.221 265.04C241.221 264.213 241.067 263.52 240.761 262.96C240.467 262.4 240.074 261.98 239.581 261.7C239.087 261.42 238.561 261.28 238.001 261.28C237.427 261.28 236.894 261.42 236.401 261.7C235.907 261.98 235.507 262.4 235.201 262.96C234.894 263.52 234.741 264.213 234.741 265.04C234.741 265.867 234.894 266.56 235.201 267.12C235.507 267.68 235.901 268.1 236.381 268.38C236.874 268.66 237.401 268.8 237.961 268.8ZM248.306 270C247.399 270 246.686 269.78 246.166 269.34C245.646 268.9 245.386 268.107 245.386 266.96V261.5H243.666V260.08H245.386L245.606 257.7H247.066V260.08H249.986V261.5H247.066V266.96C247.066 267.587 247.193 268.013 247.446 268.24C247.699 268.453 248.146 268.56 248.786 268.56H249.826V270H248.306ZM255.867 270.24C254.933 270.24 254.093 270.027 253.347 269.6C252.6 269.173 252.007 268.573 251.567 267.8C251.14 267.013 250.927 266.093 250.927 265.04C250.927 263.987 251.147 263.073 251.587 262.3C252.027 261.513 252.62 260.907 253.367 260.48C254.127 260.053 254.973 259.84 255.907 259.84C256.84 259.84 257.68 260.053 258.427 260.48C259.173 260.907 259.76 261.513 260.187 262.3C260.627 263.073 260.847 263.987 260.847 265.04C260.847 266.093 260.627 267.013 260.187 267.8C259.747 268.573 259.147 269.173 258.387 269.6C257.64 270.027 256.8 270.24 255.867 270.24ZM255.867 268.8C256.44 268.8 256.973 268.66 257.467 268.38C257.96 268.1 258.36 267.68 258.667 267.12C258.973 266.56 259.127 265.867 259.127 265.04C259.127 264.213 258.973 263.52 258.667 262.96C258.373 262.4 257.98 261.98 257.487 261.7C256.993 261.42 256.467 261.28 255.907 261.28C255.333 261.28 254.8 261.42 254.307 261.7C253.813 261.98 253.413 262.4 253.107 262.96C252.8 263.52 252.647 264.213 252.647 265.04C252.647 265.867 252.8 266.56 253.107 267.12C253.413 267.68 253.807 268.1 254.287 268.38C254.78 268.66 255.307 268.8 255.867 268.8ZM267.476 274.4V260.08H268.996L269.156 261.72C269.476 261.24 269.929 260.807 270.516 260.42C271.116 260.033 271.876 259.84 272.796 259.84C273.782 259.84 274.642 260.067 275.376 260.52C276.109 260.973 276.676 261.593 277.076 262.38C277.489 263.167 277.696 264.06 277.696 265.06C277.696 266.06 277.489 266.953 277.076 267.74C276.676 268.513 276.102 269.127 275.356 269.58C274.622 270.02 273.762 270.24 272.776 270.24C271.962 270.24 271.236 270.073 270.596 269.74C269.969 269.407 269.489 268.94 269.156 268.34V274.4H267.476ZM272.596 268.78C273.262 268.78 273.849 268.627 274.356 268.32C274.862 268 275.262 267.56 275.556 267C275.849 266.44 275.996 265.787 275.996 265.04C275.996 264.293 275.849 263.64 275.556 263.08C275.262 262.52 274.862 262.087 274.356 261.78C273.849 261.46 273.262 261.3 272.596 261.3C271.929 261.3 271.342 261.46 270.836 261.78C270.329 262.087 269.929 262.52 269.636 263.08C269.342 263.64 269.196 264.293 269.196 265.04C269.196 265.787 269.342 266.44 269.636 267C269.929 267.56 270.329 268 270.836 268.32C271.342 268.627 271.929 268.78 272.596 268.78ZM279.534 270V260.08H281.054L281.194 261.98C281.501 261.327 281.968 260.807 282.594 260.42C283.221 260.033 283.994 259.84 284.914 259.84V261.6H284.454C283.868 261.6 283.328 261.707 282.834 261.92C282.341 262.12 281.948 262.467 281.654 262.96C281.361 263.453 281.214 264.133 281.214 265V270H279.534ZM290.449 270.24C289.515 270.24 288.675 270.027 287.929 269.6C287.182 269.173 286.589 268.573 286.149 267.8C285.722 267.013 285.509 266.093 285.509 265.04C285.509 263.987 285.729 263.073 286.169 262.3C286.609 261.513 287.202 260.907 287.949 260.48C288.709 260.053 289.555 259.84 290.489 259.84C291.422 259.84 292.262 260.053 293.009 260.48C293.755 260.907 294.342 261.513 294.769 262.3C295.209 263.073 295.429 263.987 295.429 265.04C295.429 266.093 295.209 267.013 294.769 267.8C294.329 268.573 293.729 269.173 292.969 269.6C292.222 270.027 291.382 270.24 290.449 270.24ZM290.449 268.8C291.022 268.8 291.555 268.66 292.049 268.38C292.542 268.1 292.942 267.68 293.249 267.12C293.555 266.56 293.709 265.867 293.709 265.04C293.709 264.213 293.555 263.52 293.249 262.96C292.955 262.4 292.562 261.98 292.069 261.7C291.575 261.42 291.049 261.28 290.489 261.28C289.915 261.28 289.382 261.42 288.889 261.7C288.395 261.98 287.995 262.4 287.689 262.96C287.382 263.52 287.229 264.213 287.229 265.04C287.229 265.867 287.382 266.56 287.689 267.12C287.995 267.68 288.389 268.1 288.869 268.38C289.362 268.66 289.889 268.8 290.449 268.8ZM301.825 270.24C300.878 270.24 300.025 270.027 299.265 269.6C298.518 269.16 297.925 268.553 297.485 267.78C297.058 266.993 296.845 266.08 296.845 265.04C296.845 264 297.058 263.093 297.485 262.32C297.925 261.533 298.518 260.927 299.265 260.5C300.025 260.06 300.878 259.84 301.825 259.84C302.998 259.84 303.985 260.147 304.785 260.76C305.598 261.373 306.111 262.193 306.325 263.22H304.605C304.471 262.607 304.145 262.133 303.625 261.8C303.105 261.453 302.498 261.28 301.805 261.28C301.245 261.28 300.718 261.42 300.225 261.7C299.731 261.98 299.331 262.4 299.025 262.96C298.718 263.52 298.565 264.213 298.565 265.04C298.565 265.867 298.718 266.56 299.025 267.12C299.331 267.68 299.731 268.107 300.225 268.4C300.718 268.68 301.245 268.82 301.805 268.82C302.498 268.82 303.105 268.653 303.625 268.32C304.145 267.973 304.471 267.487 304.605 266.86H306.325C306.125 267.86 305.618 268.673 304.805 269.3C303.991 269.927 302.998 270.24 301.825 270.24ZM312.631 270.24C311.684 270.24 310.844 270.027 310.111 269.6C309.378 269.16 308.798 268.553 308.371 267.78C307.958 267.007 307.751 266.093 307.751 265.04C307.751 264 307.958 263.093 308.371 262.32C308.784 261.533 309.358 260.927 310.091 260.5C310.838 260.06 311.698 259.84 312.671 259.84C313.631 259.84 314.458 260.06 315.151 260.5C315.858 260.927 316.398 261.493 316.771 262.2C317.144 262.907 317.331 263.667 317.331 264.48C317.331 264.627 317.324 264.773 317.311 264.92C317.311 265.067 317.311 265.233 317.311 265.42H309.411C309.451 266.18 309.624 266.813 309.931 267.32C310.251 267.813 310.644 268.187 311.111 268.44C311.591 268.693 312.098 268.82 312.631 268.82C313.324 268.82 313.904 268.66 314.371 268.34C314.838 268.02 315.178 267.587 315.391 267.04H317.051C316.784 267.96 316.271 268.727 315.511 269.34C314.764 269.94 313.804 270.24 312.631 270.24ZM312.631 261.26C311.831 261.26 311.118 261.507 310.491 262C309.878 262.48 309.524 263.187 309.431 264.12H315.671C315.631 263.227 315.324 262.527 314.751 262.02C314.178 261.513 313.471 261.26 312.631 261.26ZM322.858 270.24C321.671 270.24 320.684 269.94 319.898 269.34C319.111 268.74 318.651 267.927 318.518 266.9H320.238C320.344 267.42 320.618 267.873 321.058 268.26C321.511 268.633 322.118 268.82 322.878 268.82C323.584 268.82 324.104 268.673 324.438 268.38C324.771 268.073 324.938 267.713 324.938 267.3C324.938 266.7 324.718 266.3 324.278 266.1C323.851 265.9 323.244 265.72 322.458 265.56C321.924 265.453 321.391 265.3 320.858 265.1C320.324 264.9 319.878 264.62 319.518 264.26C319.158 263.887 318.978 263.4 318.978 262.8C318.978 261.933 319.298 261.227 319.938 260.68C320.591 260.12 321.471 259.84 322.578 259.84C323.631 259.84 324.491 260.107 325.158 260.64C325.838 261.16 326.231 261.907 326.338 262.88H324.678C324.611 262.373 324.391 261.98 324.018 261.7C323.658 261.407 323.171 261.26 322.558 261.26C321.958 261.26 321.491 261.387 321.158 261.64C320.838 261.893 320.678 262.227 320.678 262.64C320.678 263.04 320.884 263.353 321.298 263.58C321.724 263.807 322.298 264 323.018 264.16C323.631 264.293 324.211 264.46 324.758 264.66C325.318 264.847 325.771 265.133 326.118 265.52C326.478 265.893 326.658 266.44 326.658 267.16C326.671 268.053 326.331 268.793 325.638 269.38C324.958 269.953 324.031 270.24 322.858 270.24ZM332.358 270.24C331.171 270.24 330.184 269.94 329.398 269.34C328.611 268.74 328.151 267.927 328.018 266.9H329.738C329.844 267.42 330.118 267.873 330.558 268.26C331.011 268.633 331.618 268.82 332.378 268.82C333.084 268.82 333.604 268.673 333.938 268.38C334.271 268.073 334.438 267.713 334.438 267.3C334.438 266.7 334.218 266.3 333.778 266.1C333.351 265.9 332.744 265.72 331.958 265.56C331.424 265.453 330.891 265.3 330.358 265.1C329.824 264.9 329.378 264.62 329.018 264.26C328.658 263.887 328.478 263.4 328.478 262.8C328.478 261.933 328.798 261.227 329.438 260.68C330.091 260.12 330.971 259.84 332.078 259.84C333.131 259.84 333.991 260.107 334.658 260.64C335.338 261.16 335.731 261.907 335.838 262.88H334.178C334.111 262.373 333.891 261.98 333.518 261.7C333.158 261.407 332.671 261.26 332.058 261.26C331.458 261.26 330.991 261.387 330.658 261.64C330.338 261.893 330.178 262.227 330.178 262.64C330.178 263.04 330.384 263.353 330.798 263.58C331.224 263.807 331.798 264 332.518 264.16C333.131 264.293 333.711 264.46 334.258 264.66C334.818 264.847 335.271 265.133 335.618 265.52C335.978 265.893 336.158 266.44 336.158 267.16C336.171 268.053 335.831 268.793 335.138 269.38C334.458 269.953 333.531 270.24 332.358 270.24ZM339.078 257.88C338.744 257.88 338.464 257.773 338.238 257.56C338.024 257.333 337.918 257.053 337.918 256.72C337.918 256.4 338.024 256.133 338.238 255.92C338.464 255.707 338.744 255.6 339.078 255.6C339.398 255.6 339.671 255.707 339.898 255.92C340.124 256.133 340.238 256.4 340.238 256.72C340.238 257.053 340.124 257.333 339.898 257.56C339.671 257.773 339.398 257.88 339.078 257.88ZM338.238 270V260.08H339.918V270H338.238ZM342.343 270V260.08H343.863L343.963 261.86C344.283 261.233 344.743 260.74 345.343 260.38C345.943 260.02 346.623 259.84 347.383 259.84C348.556 259.84 349.49 260.2 350.183 260.92C350.89 261.627 351.243 262.72 351.243 264.2V270H349.563V264.38C349.563 262.313 348.71 261.28 347.003 261.28C346.15 261.28 345.436 261.593 344.863 262.22C344.303 262.833 344.023 263.713 344.023 264.86V270H342.343ZM357.208 266.88C356.648 266.88 356.135 266.807 355.668 266.66L354.668 267.6C354.815 267.707 354.995 267.8 355.208 267.88C355.435 267.947 355.755 268.013 356.168 268.08C356.582 268.133 357.162 268.193 357.908 268.26C359.242 268.353 360.195 268.66 360.768 269.18C361.342 269.7 361.628 270.38 361.628 271.22C361.628 271.793 361.468 272.34 361.148 272.86C360.842 273.38 360.362 273.807 359.708 274.14C359.068 274.473 358.242 274.64 357.228 274.64C356.335 274.64 355.542 274.52 354.848 274.28C354.155 274.053 353.615 273.7 353.228 273.22C352.842 272.753 352.648 272.16 352.648 271.44C352.648 271.067 352.748 270.66 352.948 270.22C353.148 269.793 353.522 269.387 354.068 269C353.775 268.88 353.522 268.753 353.308 268.62C353.108 268.473 352.922 268.313 352.748 268.14V267.68L354.448 266C353.662 265.333 353.268 264.453 353.268 263.36C353.268 262.707 353.422 262.113 353.728 261.58C354.035 261.047 354.482 260.627 355.068 260.32C355.655 260 356.368 259.84 357.208 259.84C357.782 259.84 358.302 259.92 358.768 260.08H362.428V261.34L360.568 261.42C360.955 261.98 361.148 262.627 361.148 263.36C361.148 264.013 360.988 264.607 360.668 265.14C360.362 265.673 359.915 266.1 359.328 266.42C358.755 266.727 358.048 266.88 357.208 266.88ZM357.208 265.5C357.915 265.5 358.475 265.32 358.888 264.96C359.315 264.587 359.528 264.053 359.528 263.36C359.528 262.68 359.315 262.16 358.888 261.8C358.475 261.427 357.915 261.24 357.208 261.24C356.488 261.24 355.915 261.427 355.488 261.8C355.075 262.16 354.868 262.68 354.868 263.36C354.868 264.053 355.075 264.587 355.488 264.96C355.915 265.32 356.488 265.5 357.208 265.5ZM354.288 271.28C354.288 271.947 354.568 272.44 355.128 272.76C355.688 273.093 356.388 273.26 357.228 273.26C358.055 273.26 358.715 273.08 359.208 272.72C359.715 272.36 359.968 271.88 359.968 271.28C359.968 270.853 359.795 270.48 359.448 270.16C359.102 269.853 358.462 269.673 357.528 269.62C356.795 269.567 356.162 269.5 355.628 269.42C355.082 269.713 354.722 270.027 354.548 270.36C354.375 270.707 354.288 271.013 354.288 271.28Z" fill="#171718"/>
<path d="M153.014 143V108H165.964C168.764 108 171.081 108.467 172.914 109.4C174.748 110.333 176.114 111.617 177.014 113.25C177.914 114.883 178.364 116.717 178.364 118.75C178.364 120.683 177.931 122.467 177.064 124.1C176.198 125.7 174.848 127 173.014 128C171.181 128.967 168.831 129.45 165.964 129.45H159.414V143H153.014ZM159.414 124.25H165.564C167.798 124.25 169.398 123.767 170.364 122.8C171.364 121.8 171.864 120.45 171.864 118.75C171.864 117.017 171.364 115.667 170.364 114.7C169.398 113.7 167.798 113.2 165.564 113.2H159.414V124.25ZM182.735 143V107H189.135V122C189.969 120.633 191.085 119.567 192.485 118.8C193.919 118 195.552 117.6 197.385 117.6C200.452 117.6 202.819 118.567 204.485 120.5C206.185 122.433 207.035 125.267 207.035 129V143H200.685V129.6C200.685 127.467 200.252 125.833 199.385 124.7C198.552 123.567 197.219 123 195.385 123C193.585 123 192.085 123.633 190.885 124.9C189.719 126.167 189.135 127.933 189.135 130.2V143H182.735ZM224.555 143.6C222.155 143.6 219.989 143.05 218.055 141.95C216.155 140.85 214.639 139.333 213.505 137.4C212.405 135.433 211.855 133.167 211.855 130.6C211.855 128.033 212.422 125.783 213.555 123.85C214.689 121.883 216.205 120.35 218.105 119.25C220.039 118.15 222.205 117.6 224.605 117.6C226.972 117.6 229.105 118.15 231.005 119.25C232.939 120.35 234.455 121.883 235.555 123.85C236.689 125.783 237.255 128.033 237.255 130.6C237.255 133.167 236.689 135.433 235.555 137.4C234.455 139.333 232.939 140.85 231.005 141.95C229.072 143.05 226.922 143.6 224.555 143.6ZM224.555 138.05C226.222 138.05 227.672 137.433 228.905 136.2C230.139 134.933 230.755 133.067 230.755 130.6C230.755 128.133 230.139 126.283 228.905 125.05C227.672 123.783 226.239 123.15 224.605 123.15C222.905 123.15 221.439 123.783 220.205 125.05C219.005 126.283 218.405 128.133 218.405 130.6C218.405 133.067 219.005 134.933 220.205 136.2C221.439 137.433 222.889 138.05 224.555 138.05ZM252.551 143C249.951 143 247.868 142.367 246.301 141.1C244.734 139.833 243.951 137.583 243.951 134.35V123.55H239.701V118.2H243.951L244.701 111.55H250.351V118.2H257.051V123.55H250.351V134.4C250.351 135.6 250.601 136.433 251.101 136.9C251.634 137.333 252.534 137.55 253.801 137.55H256.901V143H252.551ZM273.311 143.6C270.911 143.6 268.744 143.05 266.811 141.95C264.911 140.85 263.394 139.333 262.261 137.4C261.161 135.433 260.611 133.167 260.611 130.6C260.611 128.033 261.178 125.783 262.311 123.85C263.444 121.883 264.961 120.35 266.861 119.25C268.794 118.15 270.961 117.6 273.361 117.6C275.728 117.6 277.861 118.15 279.761 119.25C281.694 120.35 283.211 121.883 284.311 123.85C285.444 125.783 286.011 128.033 286.011 130.6C286.011 133.167 285.444 135.433 284.311 137.4C283.211 139.333 281.694 140.85 279.761 141.95C277.828 143.05 275.678 143.6 273.311 143.6ZM273.311 138.05C274.978 138.05 276.428 137.433 277.661 136.2C278.894 134.933 279.511 133.067 279.511 130.6C279.511 128.133 278.894 126.283 277.661 125.05C276.428 123.783 274.994 123.15 273.361 123.15C271.661 123.15 270.194 123.783 268.961 125.05C267.761 126.283 267.161 128.133 267.161 130.6C267.161 133.067 267.761 134.933 268.961 136.2C270.194 137.433 271.644 138.05 273.311 138.05ZM301.483 143.6C299.283 143.6 297.35 143.25 295.683 142.55C294.017 141.817 292.683 140.817 291.683 139.55C290.683 138.283 290.083 136.817 289.883 135.15H296.333C296.533 136.117 297.067 136.95 297.933 137.65C298.833 138.317 299.983 138.65 301.383 138.65C302.783 138.65 303.8 138.367 304.433 137.8C305.1 137.233 305.433 136.583 305.433 135.85C305.433 134.783 304.967 134.067 304.033 133.7C303.1 133.3 301.8 132.917 300.133 132.55C299.067 132.317 297.983 132.033 296.883 131.7C295.783 131.367 294.767 130.95 293.833 130.45C292.933 129.917 292.2 129.25 291.633 128.45C291.067 127.617 290.783 126.6 290.783 125.4C290.783 123.2 291.65 121.35 293.383 119.85C295.15 118.35 297.617 117.6 300.783 117.6C303.717 117.6 306.05 118.283 307.783 119.65C309.55 121.017 310.6 122.9 310.933 125.3H304.883C304.517 123.467 303.133 122.55 300.733 122.55C299.533 122.55 298.6 122.783 297.933 123.25C297.3 123.717 296.983 124.3 296.983 125C296.983 125.733 297.467 126.317 298.433 126.75C299.4 127.183 300.683 127.583 302.283 127.95C304.017 128.35 305.6 128.8 307.033 129.3C308.5 129.767 309.667 130.483 310.533 131.45C311.4 132.383 311.833 133.733 311.833 135.5C311.867 137.033 311.467 138.417 310.633 139.65C309.8 140.883 308.6 141.85 307.033 142.55C305.467 143.25 303.617 143.6 301.483 143.6ZM317.003 143V107H323.403V122C324.236 120.633 325.353 119.567 326.753 118.8C328.186 118 329.82 117.6 331.653 117.6C334.72 117.6 337.086 118.567 338.753 120.5C340.453 122.433 341.303 125.267 341.303 129V143H334.953V129.6C334.953 127.467 334.52 125.833 333.653 124.7C332.82 123.567 331.486 123 329.653 123C327.853 123 326.353 123.633 325.153 124.9C323.986 126.167 323.403 127.933 323.403 130.2V143H317.003ZM358.823 143.6C356.423 143.6 354.256 143.05 352.323 141.95C350.423 140.85 348.906 139.333 347.773 137.4C346.673 135.433 346.123 133.167 346.123 130.6C346.123 128.033 346.69 125.783 347.823 123.85C348.956 121.883 350.473 120.35 352.373 119.25C354.306 118.15 356.473 117.6 358.873 117.6C361.24 117.6 363.373 118.15 365.273 119.25C367.206 120.35 368.723 121.883 369.823 123.85C370.956 125.783 371.523 128.033 371.523 130.6C371.523 133.167 370.956 135.433 369.823 137.4C368.723 139.333 367.206 140.85 365.273 141.95C363.34 143.05 361.19 143.6 358.823 143.6ZM358.823 138.05C360.49 138.05 361.94 137.433 363.173 136.2C364.406 134.933 365.023 133.067 365.023 130.6C365.023 128.133 364.406 126.283 363.173 125.05C361.94 123.783 360.506 123.15 358.873 123.15C357.173 123.15 355.706 123.783 354.473 125.05C353.273 126.283 352.673 128.133 352.673 130.6C352.673 133.067 353.273 134.933 354.473 136.2C355.706 137.433 357.156 138.05 358.823 138.05ZM388.645 143.6C386.245 143.6 384.078 143.05 382.145 141.95C380.245 140.85 378.728 139.333 377.595 137.4C376.495 135.433 375.945 133.167 375.945 130.6C375.945 128.033 376.512 125.783 377.645 123.85C378.778 121.883 380.295 120.35 382.195 119.25C384.128 118.15 386.295 117.6 388.695 117.6C391.062 117.6 393.195 118.15 395.095 119.25C397.028 120.35 398.545 121.883 399.645 123.85C400.778 125.783 401.345 128.033 401.345 130.6C401.345 133.167 400.778 135.433 399.645 137.4C398.545 139.333 397.028 140.85 395.095 141.95C393.162 143.05 391.012 143.6 388.645 143.6ZM388.645 138.05C390.312 138.05 391.762 137.433 392.995 136.2C394.228 134.933 394.845 133.067 394.845 130.6C394.845 128.133 394.228 126.283 392.995 125.05C391.762 123.783 390.328 123.15 388.695 123.15C386.995 123.15 385.528 123.783 384.295 125.05C383.095 126.283 382.495 128.133 382.495 130.6C382.495 133.067 383.095 134.933 384.295 136.2C385.528 137.433 386.978 138.05 388.645 138.05ZM416.641 143C414.041 143 411.957 142.367 410.391 141.1C408.824 139.833 408.041 137.583 408.041 134.35V123.55H403.791V118.2H408.041L408.791 111.55H414.441V118.2H421.141V123.55H414.441V134.4C414.441 135.6 414.691 136.433 415.191 136.9C415.724 137.333 416.624 137.55 417.891 137.55H420.991V143H416.641Z" fill="#171718"/>
</svg>
